<svg id="Laag_1" data-name="Laag 1" xmlns="http://www.w3.org/2000/svg" viewBox="0 0 263.02 87.08"><defs><style>.cls-1{fill:#081f2d;}.cls-2{fill:#e04403;}</style></defs><title>element1</title><path class="cls-1" d="M23.87,203.54h51a1.5,1.5,0,0,0,0-3h-51a1.5,1.5,0,0,0,0,3Z" transform="translate(-22.37 -116.46)"/><path class="cls-1" d="M232.85,119.76h51a1.5,1.5,0,0,0,0-3h-51a1.5,1.5,0,0,0,0,3Z" transform="translate(-22.37 -116.46)"/><path class="cls-1" d="M23.87,174.62h51a1.5,1.5,0,0,0,0-3h-51a1.5,1.5,0,0,0,0,3Z" transform="translate(-22.37 -116.46)"/><path class="cls-2" d="M91.53,174.32h51a1.5,1.5,0,0,0,0-3h-51a1.5,1.5,0,0,0,0,3Z" transform="translate(-22.37 -116.46)"/><path class="cls-2" d="M23.87,146.74h51a1.5,1.5,0,0,0,0-3h-51a1.5,1.5,0,0,0,0,3Z" transform="translate(-22.37 -116.46)"/><path class="cls-1" d="M91.53,147h51a1.5,1.5,0,0,0,0-3h-51a1.5,1.5,0,0,0,0,3Z" transform="translate(-22.37 -116.46)"/><path class="cls-2" d="M160.4,146.84h51a1.5,1.5,0,0,0,0-3h-51a1.5,1.5,0,0,0,0,3Z" transform="translate(-22.37 -116.46)"/><path class="cls-2" d="M23.87,119.46H211.44a1.5,1.5,0,0,0,0-3H23.87a1.5,1.5,0,1,0,0,3Z" transform="translate(-22.37 -116.46)"/></svg>