<svg id="Laag_1" data-name="Laag 1" xmlns="http://www.w3.org/2000/svg" viewBox="0 0 200.26 66.3"><defs><style>.cls-1{fill:#081f2d;}.cls-2{fill:#6a488e;}</style></defs><title>element9</title><path class="cls-1" d="M64.14,184.3H103a1.14,1.14,0,1,0,0-2.28H64.14a1.14,1.14,0,1,0,0,2.28Z" transform="translate(-63 -118)"/><path class="cls-1" d="M223.26,120.51h38.86a1.14,1.14,0,0,0,0-2.28H223.26a1.14,1.14,0,1,0,0,2.28Z" transform="translate(-63 -118)"/><path class="cls-1" d="M64.14,162.29H103a1.15,1.15,0,0,0,0-2.29H64.14a1.15,1.15,0,0,0,0,2.29Z" transform="translate(-63 -118)"/><path class="cls-2" d="M115.66,162.06h38.86a1.15,1.15,0,0,0,0-2.29H115.66a1.15,1.15,0,0,0,0,2.29Z" transform="translate(-63 -118)"/><path class="cls-2" d="M64.14,141.06H103a1.15,1.15,0,0,0,0-2.29H64.14a1.15,1.15,0,0,0,0,2.29Z" transform="translate(-63 -118)"/><path class="cls-1" d="M115.66,141.29h38.86a1.15,1.15,0,0,0,0-2.29H115.66a1.15,1.15,0,0,0,0,2.29Z" transform="translate(-63 -118)"/><path class="cls-2" d="M168.09,141.14H207a1.15,1.15,0,0,0,0-2.29H168.09a1.15,1.15,0,0,0,0,2.29Z" transform="translate(-63 -118)"/><path class="cls-2" d="M64.14,120.28H207a1.14,1.14,0,0,0,0-2.28H64.14a1.14,1.14,0,0,0,0,2.28Z" transform="translate(-63 -118)"/></svg>