<svg id="Laag_1" data-name="Laag 1" xmlns="http://www.w3.org/2000/svg" viewBox="0 0 356.72 74"><defs><style>.cls-1{fill:#081f2d;}.cls-2{fill:#fff;}.cls-3{fill:#e04403;}</style></defs><title>element5</title><rect class="cls-1" width="356" height="74"/><path class="cls-2" d="M300.1,163H279.27a.61.61,0,0,1,0-1.22H300.1a.61.61,0,1,1,0,1.22Z" transform="translate(56 -109)"/><path class="cls-2" d="M214.81,128.8H194a.61.61,0,0,1,0-1.22h20.83a.61.61,0,0,1,0,1.22Z" transform="translate(56 -109)"/><path class="cls-2" d="M300.1,151.2H279.27a.62.62,0,0,1,0-1.23H300.1a.62.62,0,1,1,0,1.23Z" transform="translate(56 -109)"/><path class="cls-3" d="M272.49,151.08H251.66a.62.62,0,0,1-.62-.62.61.61,0,0,1,.62-.61h20.83a.61.61,0,0,1,.61.61A.61.61,0,0,1,272.49,151.08Z" transform="translate(56 -109)"/><path class="cls-3" d="M300.1,139.82H279.27a.62.62,0,0,1,0-1.23H300.1a.62.62,0,1,1,0,1.23Z" transform="translate(56 -109)"/><path class="cls-2" d="M272.49,139.94H251.66a.61.61,0,1,1,0-1.22h20.83a.61.61,0,0,1,0,1.22Z" transform="translate(56 -109)"/><path class="cls-3" d="M244.38,139.86H223.55a.61.61,0,0,1,0-1.22h20.83a.61.61,0,0,1,0,1.22Z" transform="translate(56 -109)"/><path class="cls-3" d="M300.1,128.68H223.55a.61.61,0,1,1,0-1.22H300.1a.61.61,0,1,1,0,1.22Z" transform="translate(56 -109)"/></svg>