<svg id="Laag_1" data-name="Laag 1" xmlns="http://www.w3.org/2000/svg" viewBox="0 0 263.02 87.08"><defs><style>.cls-1{fill:#081f2d;}.cls-2{fill:#e04403;}</style></defs><title>element2</title><path class="cls-1" d="M283.89,116.46h-51a1.5,1.5,0,0,0,0,3h51a1.5,1.5,0,0,0,0-3Z" transform="translate(-22.37 -116.46)"/><path class="cls-1" d="M74.91,200.24h-51a1.5,1.5,0,0,0,0,3h51a1.5,1.5,0,0,0,0-3Z" transform="translate(-22.37 -116.46)"/><path class="cls-1" d="M283.89,145.38h-51a1.5,1.5,0,0,0,0,3h51a1.5,1.5,0,0,0,0-3Z" transform="translate(-22.37 -116.46)"/><path class="cls-2" d="M216.22,145.68h-51a1.5,1.5,0,0,0,0,3h51a1.5,1.5,0,0,0,0-3Z" transform="translate(-22.37 -116.46)"/><path class="cls-2" d="M283.89,173.26h-51a1.5,1.5,0,0,0,0,3h51a1.5,1.5,0,0,0,0-3Z" transform="translate(-22.37 -116.46)"/><path class="cls-1" d="M216.22,173h-51a1.5,1.5,0,0,0,0,3h51a1.5,1.5,0,0,0,0-3Z" transform="translate(-22.37 -116.46)"/><path class="cls-2" d="M147.36,173.15h-51a1.5,1.5,0,0,0,0,3h51a1.5,1.5,0,0,0,0-3Z" transform="translate(-22.37 -116.46)"/><path class="cls-2" d="M283.89,200.54H96.32a1.5,1.5,0,0,0,0,3H283.89a1.5,1.5,0,0,0,0-3Z" transform="translate(-22.37 -116.46)"/></svg>