<svg id="Laag_1" data-name="Laag 1" xmlns="http://www.w3.org/2000/svg" viewBox="0 0 87.08 263.02"><defs><style>.cls-1{fill:#081f2d;}.cls-2{fill:#e04403;}</style></defs><title>element3</title><path class="cls-1" d="M197.42,290V239a1.5,1.5,0,0,0-3,0v51a1.5,1.5,0,0,0,3,0Z" transform="translate(-110.34 -28.49)"/><path class="cls-1" d="M113.64,81V30a1.5,1.5,0,1,0-3,0V81a1.5,1.5,0,0,0,3,0Z" transform="translate(-110.34 -28.49)"/><path class="cls-1" d="M168.5,290V239a1.5,1.5,0,0,0-3,0v51a1.5,1.5,0,0,0,3,0Z" transform="translate(-110.34 -28.49)"/><path class="cls-2" d="M168.2,222.35v-51a1.5,1.5,0,0,0-3,0v51a1.5,1.5,0,0,0,3,0Z" transform="translate(-110.34 -28.49)"/><path class="cls-2" d="M140.62,290V239a1.5,1.5,0,0,0-3,0v51a1.5,1.5,0,0,0,3,0Z" transform="translate(-110.34 -28.49)"/><path class="cls-1" d="M140.92,222.35v-51a1.5,1.5,0,0,0-3,0v51a1.5,1.5,0,0,0,3,0Z" transform="translate(-110.34 -28.49)"/><path class="cls-2" d="M140.72,153.48v-51a1.5,1.5,0,0,0-3,0v51a1.5,1.5,0,0,0,3,0Z" transform="translate(-110.34 -28.49)"/><path class="cls-2" d="M113.34,290V102.44a1.5,1.5,0,0,0-3,0V290a1.5,1.5,0,0,0,3,0Z" transform="translate(-110.34 -28.49)"/></svg>