<svg id="Laag_1" data-name="Laag 1" xmlns="http://www.w3.org/2000/svg" viewBox="0 0 300 138"><defs><style>.cls-1{fill:#081f2d;}.cls-2{fill:#fff;}.cls-3{fill:#69c3c4;}</style></defs><title>element12</title><rect class="cls-1" width="300" height="138"/><path class="cls-2" d="M57.14,184.3H96A1.14,1.14,0,1,0,96,182H57.14a1.14,1.14,0,1,0,0,2.28Z" transform="translate(0 -80)"/><path class="cls-2" d="M216.26,120.51h38.86a1.14,1.14,0,0,0,0-2.28H216.26a1.14,1.14,0,1,0,0,2.28Z" transform="translate(0 -80)"/><path class="cls-2" d="M57.14,162.29H96A1.15,1.15,0,0,0,96,160H57.14a1.15,1.15,0,0,0,0,2.29Z" transform="translate(0 -80)"/><path class="cls-3" d="M108.66,162.06h38.86a1.15,1.15,0,0,0,0-2.29H108.66a1.15,1.15,0,0,0,0,2.29Z" transform="translate(0 -80)"/><path class="cls-3" d="M57.14,141.06H96a1.15,1.15,0,0,0,0-2.29H57.14a1.15,1.15,0,0,0,0,2.29Z" transform="translate(0 -80)"/><path class="cls-2" d="M108.66,141.29h38.86a1.15,1.15,0,0,0,0-2.29H108.66a1.15,1.15,0,0,0,0,2.29Z" transform="translate(0 -80)"/><path class="cls-3" d="M161.09,141.14H200a1.15,1.15,0,0,0,0-2.29H161.09a1.15,1.15,0,0,0,0,2.29Z" transform="translate(0 -80)"/><path class="cls-3" d="M57.14,120.28H200a1.14,1.14,0,0,0,0-2.28H57.14a1.14,1.14,0,0,0,0,2.28Z" transform="translate(0 -80)"/></svg>