<svg id="Laag_1" data-name="Laag 1" xmlns="http://www.w3.org/2000/svg" viewBox="0 0 87.08 263.02"><defs><style>.cls-1{fill:#081f2d;}.cls-2{fill:#e04403;}</style></defs><title>element4</title><path class="cls-1" d="M110.34,30V81a1.5,1.5,0,0,0,3,0V30a1.5,1.5,0,0,0-3,0Z" transform="translate(-110.34 -28.49)"/><path class="cls-1" d="M194.12,239v51a1.5,1.5,0,0,0,3,0V239a1.5,1.5,0,0,0-3,0Z" transform="translate(-110.34 -28.49)"/><path class="cls-1" d="M139.25,30V81a1.5,1.5,0,0,0,3,0V30a1.5,1.5,0,0,0-3,0Z" transform="translate(-110.34 -28.49)"/><path class="cls-2" d="M139.55,97.65v51a1.5,1.5,0,0,0,3,0v-51a1.5,1.5,0,0,0-3,0Z" transform="translate(-110.34 -28.49)"/><path class="cls-2" d="M167.14,30V81a1.5,1.5,0,0,0,3,0V30a1.5,1.5,0,0,0-3,0Z" transform="translate(-110.34 -28.49)"/><path class="cls-1" d="M166.84,97.65v51a1.5,1.5,0,0,0,3,0v-51a1.5,1.5,0,0,0-3,0Z" transform="translate(-110.34 -28.49)"/><path class="cls-2" d="M167,166.52v51a1.5,1.5,0,0,0,3,0v-51a1.5,1.5,0,0,0-3,0Z" transform="translate(-110.34 -28.49)"/><path class="cls-2" d="M194.42,30V217.56a1.5,1.5,0,0,0,3,0V30a1.5,1.5,0,0,0-3,0Z" transform="translate(-110.34 -28.49)"/></svg>