<svg id="Laag_1" data-name="Laag 1" xmlns="http://www.w3.org/2000/svg" viewBox="0 0 259.11 209.11"><defs><style>.cls-1{font-size:21.67px;font-family:FuturaStd-Heavy, Futura Std;}.cls-1,.cls-3,.cls-4,.cls-6,.cls-7{fill:#09202d;}.cls-2{font-size:10.84px;fill:#e04403;font-family:FuturaStd-Light, Futura Std;}.cls-3{font-size:5.2px;}.cls-3,.cls-6{font-family:FuturaStd-Book, Futura Std;}.cls-4,.cls-6{font-size:6.5px;}.cls-4{font-family:FuturaStd-CondensedBold, Futura Std;font-weight:700;}.cls-5{fill:none;stroke:#09202d;stroke-width:0.45px;}</style></defs><title>futura_gebruik</title><text class="cls-1" transform="translate(0 18.98) scale(1 1.03)">Catchy titel</text><text class="cls-2" transform="translate(0 55.6) scale(1 1.03)">Een lichte subtitel</text><text class="cls-3" transform="translate(0 73) scale(1 1.03)">Ut porest, aut maios int, quia volorum expe ad qui</text><text class="cls-3" transform="translate(113.64 73) scale(1 1.03)">-</text><text class="cls-3" transform="translate(0 81.33) scale(1 1.03)">dessedi odit et voluptas veliquia cus.</text><text class="cls-4" transform="translate(28.73 102.49) scale(1 1.03)">“Een inspirerende quote.”</text><text class="cls-3" transform="translate(0 123.53) scale(1 1.03)">Se parum veris ipis doluptaspe consequam, te </text><text class="cls-3" transform="translate(0 131.85) scale(1 1.03)">et oditae aut paruptas mos iumquamust fugit res </text><text class="cls-3" transform="translate(0 140.18) scale(1 1.03)">id quatemp oreicil ipsumen daeptatus magnis re </text><text class="cls-3" transform="translate(0 148.5) scale(1 1.03)">reprem quidenihic tem dipiene cabore est explitatur </text><text class="cls-3" transform="translate(0 156.83) scale(1 1.03)">auditem intibusdae. Nem et latur mo con cum lan</text><text class="cls-3" transform="translate(111.5 156.83) scale(1 1.03)">-</text><text class="cls-3" transform="translate(0 165.16) scale(1 1.03)">dunt otatem illabore nos dolupta pratquibus dolore, </text><text class="cls-3" transform="translate(0 173.48) scale(1 1.03)">oditio. Nequiaest et lacestia et voloribus natur?</text><text class="cls-3" transform="translate(0 190.88) scale(1 1.03)">Fuga. Nemqui rest, ilitatur ad eiciet quatur? </text><text class="cls-3" transform="translate(99.94 190.89) scale(1 1.03)"> </text><text class="cls-3" transform="translate(0 199.21) scale(1 1.03)">Ped quistrum ut el est, sequi autatec estrum </text><text class="cls-3" transform="translate(97.87 199.21) scale(1 1.03)"> </text><text class="cls-3" transform="translate(0 207.54) scale(1 1.03)">eaquamenda venihicia eostias nimil ius.</text><line class="cls-5" x1="121.16" y1="12.27" x2="191.57" y2="12.27"/><line class="cls-5" x1="91.34" y1="52.42" x2="191.57" y2="52.42"/><line class="cls-5" x1="106.57" y1="99.17" x2="191.57" y2="99.17"/><line class="cls-5" x1="137.65" y1="145.93" x2="191.57" y2="145.93"/><text class="cls-6" transform="translate(205.53 10.42) scale(1 1.03)">Futura Std - Heavy</text><text class="cls-6" transform="translate(257.11 10.42) scale(1 1.03)"> </text><text class="cls-6" transform="translate(205.53 19.82) scale(1 1.03)">50pt</text><text class="cls-6" transform="translate(205.53 50.57) scale(1 1.03)">Futura Std - Light</text><text class="cls-6" transform="translate(252 50.57) scale(1 1.03)"> </text><text class="cls-6" transform="translate(205.53 59.97) scale(1 1.03)">25pt</text><text class="cls-6" transform="translate(153.93 37.67) scale(1 1.03)">2X</text><text class="cls-6" transform="translate(153.93 63.79) scale(1 1.03)">1X</text><text class="cls-6" transform="translate(203.83 97.33) scale(1 1.03)">Futura Std - Heavy</text><text class="cls-6" transform="translate(255.42 97.32) scale(1 1.03)"> </text><text class="cls-6" transform="translate(203.83 106.72) scale(1 1.03)">15pt</text><text class="cls-6" transform="translate(205.52 143.63) scale(1 1.03)">Futura Std - Book</text><text class="cls-6" transform="translate(253.15 143.63) scale(1 1.03)"> </text><text class="cls-6" transform="translate(205.53 153.03) scale(1 1.03)">12pt</text><line class="cls-5" x1="168.29" y1="27.18" x2="168.29" y2="44.7"/><polygon class="cls-7" points="168.29 24.73 167.14 27.87 169.43 27.87 168.29 24.73"/><polygon class="cls-7" points="168.29 47.15 169.43 44.01 167.14 44.01 168.29 47.15"/><line class="cls-5" x1="168.29" y1="58.89" x2="168.29" y2="65.21"/><polygon class="cls-7" points="168.29 56.45 167.14 59.59 169.43 59.59 168.29 56.45"/><polygon class="cls-7" points="168.29 67.66 169.43 64.52 167.14 64.52 168.29 67.66"/></svg>