<svg id="Group_11" data-name="Group 11" xmlns="http://www.w3.org/2000/svg" viewBox="0 0 176.241 115.636">
  <defs>
    <style>
      .cls-1 {
        fill: none;
        stroke: #000;
        stroke-miterlimit: 10;
        stroke-width: 0.25px;
      }

      .cls-2 {
        fill: #e04403;
      }

      .cls-3 {
        fill: #fff;
      }
    </style>
  </defs>
  <path id="Path_1" data-name="Path 1" class="cls-1" d="M134.3,52.3" transform="translate(-46.212 -17.996)"/>
  <path id="Path_2" data-name="Path 2" class="cls-1" d="M125.4,52.3" transform="translate(-43.15 -17.996)"/>
  <g id="Group_8" data-name="Group 8" transform="translate(43.355)">
    <g id="Group_1" data-name="Group 1" transform="translate(23.678 37.321)">
      <path id="Path_3" data-name="Path 3" class="cls-2" d="M102.2,56.9" transform="translate(-102.2 -56.9)"/>
    </g>
    <g id="Group_2" data-name="Group 2" transform="translate(20.923 30.172)">
      <path id="Path_4" data-name="Path 4" class="cls-2" d="M98,46" transform="translate(-98 -46)"/>
    </g>
    <g id="Group_3" data-name="Group 3" transform="translate(47.619 32.467)">
      <path id="Path_5" data-name="Path 5" class="cls-2" d="M138.7,49.5" transform="translate(-138.7 -49.5)"/>
    </g>
    <g id="Group_4" data-name="Group 4" transform="translate(67.952 68.148)">
      <path id="Path_6" data-name="Path 6" class="cls-2" d="M169.7,103.9" transform="translate(-169.7 -103.9)"/>
    </g>
    <g id="Group_5" data-name="Group 5" transform="translate(45.651 35.288)">
      <path id="Path_7" data-name="Path 7" class="cls-2" d="M158.788,89.284h-1.64a13.4,13.4,0,0,1-12.331-8.724V80.43L135.7,53.8l5.247.066,8.527,24.924a8.407,8.407,0,0,0,7.805,5.51Z" transform="translate(-135.7 -53.8)"/>
    </g>
    <g id="Group_6" data-name="Group 6" transform="translate(65.525 2.754)">
      <path id="Path_8" data-name="Path 8" class="cls-2" d="M190.334,18.958a15.288,15.288,0,0,1-5.313,11.61,13.014,13.014,0,0,1-5.969,2.886,28.53,28.53,0,0,1-3.411.394H166a18.444,18.444,0,0,0,5.182-3.607l.2-.2.984-1.115A25.871,25.871,0,0,0,178,28.6a8.572,8.572,0,0,0,3.8-1.837,10.194,10.194,0,0,0,3.542-7.805c0-5.444-4.067-9.839-8.986-9.839h-2.886l-.525-.853A18.721,18.721,0,0,0,169.476,4.2h6.953C184.037,4.134,190.334,10.824,190.334,18.958Z" transform="translate(-166 -4.199)"/>
      <path id="Path_9" data-name="Path 9" class="cls-2" d="M189.088,89.216h-1.705a13.5,13.5,0,0,1-12.331-8.789l-.066-.131L166,53.6l5.247.066,8.4,24.99a8.637,8.637,0,0,0,7.74,5.575Z" transform="translate(-166 -21.198)"/>
    </g>
    <g id="Group_7" data-name="Group 7">
      <path id="Path_10" data-name="Path 10" class="cls-2" d="M102.505,4.919,100.8,0h32.73a16.378,16.378,0,0,1,8.133,2.164c.262.131.525.328.853.525a9.6,9.6,0,0,0,.853.59,16.022,16.022,0,0,1,4,4.395,3.535,3.535,0,0,1,.459.853c.131.262.262.525.394.853a16.378,16.378,0,0,1,1.574,6.953,15.994,15.994,0,0,1-3.28,9.642,9.642,9.642,0,0,0-.656.853,9.816,9.816,0,0,0-.721.853c-.066.066-.066.131-.131.131a16.226,16.226,0,0,1-10.56,4.788H122.773l-.328-.918-1.377-4h12.725a9.258,9.258,0,0,0,3.935-.853,7.316,7.316,0,0,0,1.574-.853,10.78,10.78,0,0,0,2.164-1.705,10.982,10.982,0,0,0,3.411-7.936,11.538,11.538,0,0,0-2.361-6.953c-.262-.328-.525-.59-.787-.918A11.337,11.337,0,0,0,133.6,4.985H107.687l-5.182-.066" transform="translate(-78.04)"/>
      <path id="Path_11" data-name="Path 11" class="cls-2" d="M103.749,33.117,96.665,11.8H91.483l7.608,22.891c.262.853.59,1.771.918,2.689,2.952,8.658,6.362,18.5.787,25.777a16.529,16.529,0,0,1-29.712-9.9A16.825,16.825,0,0,1,87.81,36.593h6.1L92.2,31.608h-4.46A21.78,21.78,0,0,0,66.1,53.188a21.448,21.448,0,0,0,38.567,12.921c7.084-9.445,3.148-21.055-.066-30.368C104.339,34.822,104.077,33.97,103.749,33.117Z" transform="translate(-66.1 -4.06)"/>
    </g>
  </g>
  <g id="Group_9" data-name="Group 9" transform="translate(0 80.611)">
    <path id="Path_12" data-name="Path 12" class="cls-3" d="M5.9,133.4a4.794,4.794,0,0,1-.721,3.148,3.272,3.272,0,0,1-2.755,1.377A3.448,3.448,0,0,1,0,136.744l1.574-1.771a1.125,1.125,0,0,0,.918.787c1.181,0,1.049-2.033,1.049-2.82V125.2H5.9Z" transform="translate(0 -123.691)"/>
    <path id="Path_13" data-name="Path 13" class="cls-3" d="M19.127,135.729a4.063,4.063,0,0,1-4.263,4.263,4.063,4.063,0,0,1-4.263-4.263,4.115,4.115,0,0,1,4.263-4.329A4.115,4.115,0,0,1,19.127,135.729Zm-6.166,0a2.069,2.069,0,0,0,1.9,2.23,2.109,2.109,0,0,0,1.9-2.23,2.131,2.131,0,0,0-1.9-2.3A2.131,2.131,0,0,0,12.961,135.729Z" transform="translate(-3.647 -125.825)"/>
    <path id="Path_14" data-name="Path 14" class="cls-3" d="M27.63,132.484h0a2.526,2.526,0,0,1,2.164-.984c2.164,0,2.82,1.509,2.82,3.411v4.919h-2.3v-4.263c0-.984.066-2.23-1.246-2.23-1.377,0-1.377,1.509-1.377,2.492v4H25.4v-8.068h2.3v.721Z" transform="translate(-8.74 -125.859)"/>
    <path id="Path_15" data-name="Path 15" class="cls-3" d="M45.964,139.305c0,2.624-.918,4.788-3.935,4.788-1.968,0-3.935-1.181-4.067-3.345h2.427a1.571,1.571,0,0,0,1.574,1.443c1.64,0,1.64-1.443,1.64-2.624v-.525h-.066a2.9,2.9,0,0,1-2.23,1.049c-2.361,0-3.607-2.1-3.607-4.263,0-2.23,1.377-4.329,3.739-4.329a2.641,2.641,0,0,1,2.1,1.049H43.6v-.787h2.3v7.543ZM44,135.763a2.131,2.131,0,0,0-1.9-2.3,2.131,2.131,0,0,0-1.9,2.3,1.926,1.926,0,1,0,3.8,0Z" transform="translate(-12.972 -125.859)"/>
    <path id="Path_16" data-name="Path 16" class="cls-3" d="M54.427,136.123c0,1.049.394,2.164,1.574,2.164a1.7,1.7,0,0,0,1.574-1.115l2.1.328A3.684,3.684,0,0,1,56,139.992a3.875,3.875,0,0,1-4-4.2c0-2.427,1.312-4.395,3.935-4.395s3.8,1.968,3.8,4.395v.262H54.427Zm3.148-1.443c-.131-.853-.656-1.64-1.509-1.64a1.7,1.7,0,0,0-1.574,1.64Z" transform="translate(-17.893 -125.825)"/>
    <path id="Path_17" data-name="Path 17" class="cls-3" d="M81.1,137.6H78.144l-3.017-4.985h0V137.6H72.7V125.2h3.28c2.427,0,4.132,1.115,4.132,3.739a3.22,3.22,0,0,1-2.558,3.411Zm-5.969-6.625h.328c1.312,0,2.3-.394,2.3-1.9s-.984-1.837-2.23-1.837h-.328v3.739Z" transform="translate(-25.016 -123.691)"/>
    <path id="Path_18" data-name="Path 18" class="cls-3" d="M88.127,136.123c0,1.049.394,2.164,1.574,2.164a1.7,1.7,0,0,0,1.574-1.115l2.1.328a3.684,3.684,0,0,1-3.673,2.492,3.875,3.875,0,0,1-4-4.2c0-2.427,1.312-4.395,3.935-4.395s3.8,1.968,3.8,4.395v.262H88.127Zm3.148-1.443c-.131-.853-.656-1.64-1.509-1.64a1.7,1.7,0,0,0-1.574,1.64Z" transform="translate(-29.489 -125.825)"/>
    <path id="Path_19" data-name="Path 19" class="cls-3" d="M101.43,132.484h0a2.526,2.526,0,0,1,2.164-.984c2.164,0,2.82,1.509,2.82,3.411v4.919h-2.3v-4.263c0-.984.066-2.23-1.246-2.23-1.377,0-1.377,1.509-1.377,2.492v4H99.2v-8.068h2.3v.721Z" transform="translate(-34.134 -125.859)"/>
    <path id="Path_20" data-name="Path 20" class="cls-3" d="M115.03,132.484h0a2.526,2.526,0,0,1,2.164-.984c2.164,0,2.82,1.509,2.82,3.411v4.919h-2.3v-4.263c0-.984.066-2.23-1.246-2.23-1.377,0-1.377,1.509-1.377,2.492v4h-2.3v-8.068h2.3v.721Z" transform="translate(-38.814 -125.859)"/>
    <path id="Path_21" data-name="Path 21" class="cls-3" d="M127.727,136.123c0,1.049.394,2.164,1.574,2.164a1.7,1.7,0,0,0,1.574-1.115l2.1.328a3.684,3.684,0,0,1-3.673,2.492,3.875,3.875,0,0,1-4-4.2c0-2.427,1.312-4.395,3.935-4.395s3.8,1.968,3.8,4.395v.262h-5.313Zm3.148-1.443c-.131-.853-.656-1.64-1.509-1.64a1.7,1.7,0,0,0-1.574,1.64Z" transform="translate(-43.115 -125.825)"/>
    <path id="Path_22" data-name="Path 22" class="cls-3" d="M141,132.515h0a2.416,2.416,0,0,1,2.033-1.115,2.632,2.632,0,0,1,.984.2l-.262,2.165a1.611,1.611,0,0,0-.984-.328c-1.574,0-1.771,1.443-1.771,2.689v3.607h-2.3v-8.068H141v.853Z" transform="translate(-47.726 -125.825)"/>
    <path id="Path_23" data-name="Path 23" class="cls-3" d="M151.723,133.63a1.864,1.864,0,0,0-1.246-.59.788.788,0,0,0-.787.722c0,.59.853.787,1.64,1.115a2.322,2.322,0,0,1,1.64,2.3,2.935,2.935,0,0,1-3.148,2.886,3.575,3.575,0,0,1-2.82-1.377l1.049-1.377a2.354,2.354,0,0,0,1.705.918.845.845,0,0,0,.918-.853c0-.721-.787-.853-1.64-1.246a2.21,2.21,0,0,1-1.64-2.1,2.5,2.5,0,0,1,2.558-2.624,4.194,4.194,0,0,1,2.624.853Z" transform="translate(-50.582 -125.825)"/>
    <path id="Path_24" data-name="Path 24" class="cls-3" d="M173.9,137.6h-2.952l-3.017-4.985h0V137.6H165.5V125.2h3.28c2.427,0,4.132,1.115,4.132,3.739a3.22,3.22,0,0,1-2.558,3.411Zm-5.969-6.625h.328c1.312,0,2.3-.394,2.3-1.9s-.984-1.837-2.23-1.837h-.328v3.739Z" transform="translate(-56.948 -123.691)"/>
    <path id="Path_25" data-name="Path 25" class="cls-3" d="M186.927,135.729a4.263,4.263,0,0,1-8.527,0,4.264,4.264,0,1,1,8.527,0Zm-6.1,0a2.069,2.069,0,0,0,1.9,2.23,2.109,2.109,0,0,0,1.9-2.23,2.131,2.131,0,0,0-1.9-2.3A2.172,2.172,0,0,0,180.827,135.729Z" transform="translate(-61.387 -125.825)"/>
    <path id="Path_26" data-name="Path 26" class="cls-3" d="M194.627,136.123c0,1.049.394,2.164,1.574,2.164a1.7,1.7,0,0,0,1.574-1.115l2.1.328a3.684,3.684,0,0,1-3.673,2.492,3.875,3.875,0,0,1-4-4.2c0-2.427,1.312-4.395,3.935-4.395s3.8,1.968,3.8,4.395v.262h-5.313Zm3.148-1.443c-.131-.853-.656-1.64-1.509-1.64a1.7,1.7,0,0,0-1.574,1.64Z" transform="translate(-66.135 -125.825)"/>
    <path id="Path_27" data-name="Path 27" class="cls-3" d="M209.423,133.63a1.864,1.864,0,0,0-1.246-.59.788.788,0,0,0-.787.722c0,.59.853.787,1.64,1.115a2.322,2.322,0,0,1,1.64,2.3,2.935,2.935,0,0,1-3.148,2.886,3.575,3.575,0,0,1-2.82-1.377l1.049-1.377a2.354,2.354,0,0,0,1.705.918.845.845,0,0,0,.918-.853c0-.721-.787-.853-1.64-1.246a2.21,2.21,0,0,1-1.64-2.1,2.5,2.5,0,0,1,2.558-2.624,4.194,4.194,0,0,1,2.624.853Z" transform="translate(-70.436 -125.825)"/>
    <path id="Path_28" data-name="Path 28" class="cls-3" d="M217.427,136.123c0,1.049.394,2.164,1.574,2.164a1.7,1.7,0,0,0,1.574-1.115l2.1.328A3.684,3.684,0,0,1,219,139.992a3.875,3.875,0,0,1-4-4.2c0-2.427,1.312-4.395,3.935-4.395s3.8,1.968,3.8,4.395v.262h-5.313Zm3.148-1.443c-.131-.853-.656-1.64-1.509-1.64a1.7,1.7,0,0,0-1.574,1.64Z" transform="translate(-73.981 -125.825)"/>
    <path id="Path_29" data-name="Path 29" class="cls-3" d="M230.7,136.805h-2.3V122.9h2.3Z" transform="translate(-78.591 -122.9)"/>
    <path id="Path_30" data-name="Path 30" class="cls-3" d="M241.7,139.73h-2.3v-.721h0a2.8,2.8,0,0,1-2.165.984c-2.361,0-3.739-2.164-3.739-4.329s1.377-4.263,3.673-4.263a2.9,2.9,0,0,1,2.23,1.049v-.787h2.3Zm-2.033-4a2.069,2.069,0,0,0-1.9-2.23,2.109,2.109,0,0,0-1.9,2.23,2.131,2.131,0,0,0,1.9,2.3A2.172,2.172,0,0,0,239.665,135.729Z" transform="translate(-80.346 -125.825)"/>
    <path id="Path_31" data-name="Path 31" class="cls-3" d="M250.9,132.515h0a2.416,2.416,0,0,1,2.033-1.115,2.632,2.632,0,0,1,.984.2l-.262,2.165a1.611,1.611,0,0,0-.984-.328c-1.574,0-1.771,1.443-1.771,2.689v3.607h-2.3v-8.068h2.3Z" transform="translate(-85.542 -125.825)"/>
    <path id="Path_32" data-name="Path 32" class="cls-3" d="M259.327,136.123c0,1.049.394,2.164,1.574,2.164a1.7,1.7,0,0,0,1.574-1.115l2.1.328a3.684,3.684,0,0,1-3.673,2.492,3.875,3.875,0,0,1-4-4.2c0-2.427,1.312-4.395,3.935-4.395s3.8,1.968,3.8,4.395v.262h-5.313Zm3.148-1.443c-.131-.853-.656-1.64-1.509-1.64a1.7,1.7,0,0,0-1.574,1.64Z" transform="translate(-88.398 -125.825)"/>
  </g>
  <g id="Group_10" data-name="Group 10" transform="translate(25.383 104.748)">
    <path id="Path_33" data-name="Path 33" class="cls-3" d="M41.389,167.655l.984-2.755h1.509l-2.23,4.919H40.93L38.7,164.9h1.509Z" transform="translate(-38.7 -161.489)"/>
    <path id="Path_34" data-name="Path 34" class="cls-3" d="M50.991,168.673v1.181H46.4l2.492-3.673h-2.1V165h4.395l-2.427,3.673Z" transform="translate(-41.35 -161.524)"/>
    <path id="Path_35" data-name="Path 35" class="cls-3" d="M55.858,167.652l1.181-2.952h.656l1.181,2.952,1.049-2.82h1.509L59.2,169.75h-.721L57.432,166.8l-1.181,2.952H55.53l-2.23-4.919h1.509Z" transform="translate(-43.724 -161.42)"/>
    <path id="Path_36" data-name="Path 36" class="cls-3" d="M73.607,166.374a1.267,1.267,0,0,0-.984-.459,1.335,1.335,0,0,0-1.246,1.443,1.243,1.243,0,0,0,1.246,1.377,1.4,1.4,0,0,0,.984-.459v1.312a2.673,2.673,0,0,1-1.181.328,2.56,2.56,0,0,1,.066-5.116,2.211,2.211,0,0,1,1.115.328Z" transform="translate(-49.47 -161.455)"/>
    <path id="Path_37" data-name="Path 37" class="cls-3" d="M75.8,165h1.574l1.181,2.755L79.8,165H81.31l-3.542,7.412H76.259l1.574-3.345Z" transform="translate(-51.466 -161.524)"/>
    <path id="Path_38" data-name="Path 38" class="cls-3" d="M87.707,166.374a1.267,1.267,0,0,0-.984-.459,1.335,1.335,0,0,0-1.246,1.443,1.243,1.243,0,0,0,1.246,1.377,1.4,1.4,0,0,0,.984-.459v1.312a2.673,2.673,0,0,1-1.181.328,2.56,2.56,0,0,1,.066-5.116,2.211,2.211,0,0,1,1.115.328Z" transform="translate(-54.322 -161.455)"/>
    <path id="Path_39" data-name="Path 39" class="cls-3" d="M92.277,168.03H90.9V159.7h1.377Z" transform="translate(-56.662 -159.7)"/>
    <path id="Path_40" data-name="Path 40" class="cls-3" d="M96.074,161.487a.8.8,0,0,1-.787.787.846.846,0,0,1-.787-.787.787.787,0,0,1,1.574,0Zm-.131,6.887H94.566V163.52h1.377Z" transform="translate(-57.901 -160.044)"/>
    <path id="Path_41" data-name="Path 41" class="cls-3" d="M99.712,165.39h0a1.475,1.475,0,0,1,1.312-.59c1.312,0,1.705.918,1.705,2.033v2.952h-1.377v-2.558c0-.59,0-1.312-.721-1.312-.787,0-.853.918-.853,1.509v2.361H98.4v-4.854h1.377v.459Z" transform="translate(-59.243 -161.455)"/>
    <path id="Path_42" data-name="Path 42" class="cls-3" d="M110.854,169.423c0,1.574-.525,2.886-2.361,2.886a2.264,2.264,0,0,1-2.427-2.033h1.443a.941.941,0,0,0,.984.853c.984,0,.984-.853.984-1.574v-.328h0a1.712,1.712,0,0,1-1.312.656A2.286,2.286,0,0,1,106,167.324a2.393,2.393,0,0,1,2.23-2.624,1.736,1.736,0,0,1,1.246.59h0V164.9h1.377Zm-1.246-2.1c0-.656-.459-1.377-1.115-1.377s-1.115.722-1.115,1.377.459,1.377,1.115,1.377S109.607,167.98,109.607,167.324Z" transform="translate(-61.858 -161.42)"/>
    <path id="Path_43" data-name="Path 43" class="cls-3" d="M120.637,168.993h-1.377V165.32H118.8V164.14h.459V162.5h1.377v1.64h.853v1.181h-.853Z" transform="translate(-66.262 -160.663)"/>
    <path id="Path_44" data-name="Path 44" class="cls-3" d="M124.243,167.52c0,.59.262,1.312.984,1.312a.986.986,0,0,0,.918-.656l1.246.2a2.184,2.184,0,0,1-2.164,1.509,2.343,2.343,0,0,1-2.427-2.558,2.314,2.314,0,0,1,2.361-2.624c1.574,0,2.3,1.181,2.3,2.624v.2Zm1.9-.853a.92.92,0,1,0-1.837,0Z" transform="translate(-67.638 -161.42)"/>
    <path id="Path_45" data-name="Path 45" class="cls-3" d="M135.219,169.75h-1.377v-.459h0a1.651,1.651,0,0,1-1.312.59,2.393,2.393,0,0,1-2.23-2.624,2.334,2.334,0,0,1,2.23-2.558,1.888,1.888,0,0,1,1.377.59V164.9h1.377v4.854Zm-1.181-2.427a1.308,1.308,0,0,0-1.181-1.377,1.257,1.257,0,0,0-1.115,1.377c0,.656.459,1.377,1.115,1.377A1.359,1.359,0,0,0,134.039,167.324Z" transform="translate(-70.219 -161.42)"/>
    <path id="Path_46" data-name="Path 46" class="cls-3" d="M140.743,165.29h0a1.49,1.49,0,0,1,1.181-.59,1.542,1.542,0,0,1,1.377.787,1.782,1.782,0,0,1,1.377-.787c1.246,0,1.509.918,1.509,1.968v3.017H144.81v-2.558c0-.459,0-1.377-.656-1.377-.721,0-.721.984-.721,1.509v2.361h-1.377v-2.427c0-.459.066-1.443-.656-1.443-.787,0-.721.984-.721,1.509v2.361H139.3V164.9h1.377v.394Z" transform="translate(-73.316 -161.42)"/>
    <path id="Path_47" data-name="Path 47" class="cls-3" d="M157.243,167.165h2.033v1.246H155.8V161h1.443Z" transform="translate(-78.994 -160.147)"/>
    <path id="Path_48" data-name="Path 48" class="cls-3" d="M163.077,165v2.624c0,.525.066,1.181.787,1.181s.787-.656.787-1.181V165h1.377v2.82a1.94,1.94,0,0,1-2.164,2.164,1.913,1.913,0,0,1-2.164-2.164V165Z" transform="translate(-81.024 -161.524)"/>
    <path id="Path_49" data-name="Path 49" class="cls-3" d="M172.907,166.374a1.267,1.267,0,0,0-.984-.459,1.335,1.335,0,0,0-1.246,1.443,1.243,1.243,0,0,0,1.246,1.377,1.4,1.4,0,0,0,.984-.459v1.312a2.673,2.673,0,0,1-1.181.328,2.56,2.56,0,0,1,.066-5.116,2.211,2.211,0,0,1,1.115.328Z" transform="translate(-83.639 -161.455)"/>
    <path id="Path_50" data-name="Path 50" class="cls-3" d="M182.517,166.082h0l1.509-5.182h.853l1.509,5.182h0l1.443-5.05h1.509l-2.492,7.543H185.8l-1.509-4.854h0l-1.377,4.854h-1.049l-2.361-7.543h1.509Z" transform="translate(-87.149 -160.113)"/>
    <path id="Path_51" data-name="Path 51" class="cls-3" d="M198.619,169.75h-1.377v-.459h0a1.651,1.651,0,0,1-1.312.59,2.393,2.393,0,0,1-2.23-2.624,2.334,2.334,0,0,1,2.23-2.558,1.888,1.888,0,0,1,1.377.59V164.9h1.377v4.854Zm-1.181-2.427a1.308,1.308,0,0,0-1.181-1.377,1.257,1.257,0,0,0-1.115,1.377c0,.656.459,1.377,1.115,1.377A1.359,1.359,0,0,0,197.439,167.324Z" transform="translate(-92.035 -161.42)"/>
    <path id="Path_52" data-name="Path 52" class="cls-3" d="M204.077,168.03H202.7V159.7h1.377Z" transform="translate(-95.132 -159.7)"/>
    <path id="Path_53" data-name="Path 53" class="cls-3" d="M207.677,168.03H206.3V159.7h1.377Z" transform="translate(-96.37 -159.7)"/>
    <path id="Path_54" data-name="Path 54" class="cls-3" d="M214.319,169.75h-1.377v-.459h0a1.651,1.651,0,0,1-1.312.59,2.393,2.393,0,0,1-2.23-2.624,2.334,2.334,0,0,1,2.23-2.558,1.888,1.888,0,0,1,1.377.59V164.9h1.377v4.854Zm-1.246-2.427a1.308,1.308,0,0,0-1.181-1.377,1.257,1.257,0,0,0-1.115,1.377c0,.656.459,1.377,1.115,1.377A1.359,1.359,0,0,0,213.073,167.324Z" transform="translate(-97.437 -161.42)"/>
    <path id="Path_55" data-name="Path 55" class="cls-3" d="M217.4,165h1.574l1.181,2.755L221.4,165h1.509l-3.542,7.412h-1.509l1.574-3.345Z" transform="translate(-100.19 -161.524)"/>
    <path id="Path_56" data-name="Path 56" class="cls-3" d="M228.52,166.046a1.053,1.053,0,0,0-.721-.328c-.2,0-.459.2-.459.394,0,.328.525.459.984.656a1.324,1.324,0,0,1,.984,1.377,1.745,1.745,0,0,1-1.9,1.705,2.33,2.33,0,0,1-1.705-.787l.656-.787a1.336,1.336,0,0,0,1.049.59.483.483,0,0,0,.525-.525c0-.394-.459-.525-.984-.721a1.351,1.351,0,0,1-.984-1.246,1.5,1.5,0,0,1,1.509-1.574,2.29,2.29,0,0,1,1.574.525Z" transform="translate(-103.046 -161.455)"/>
  </g>
</svg>
