<svg id="Laag_1" data-name="Laag 1" xmlns="http://www.w3.org/2000/svg" viewBox="0 0 300 300"><defs><style>.cls-1{fill:#081f2d;}.cls-2{fill:#fff;}</style></defs><title>logo_onecolor_neg</title><rect class="cls-1" width="300" height="300"/><path class="cls-2" d="M149.16,116.59"/><path class="cls-2" d="M140.85,116.59"/><path class="cls-2" d="M119.12,120.85"/><path class="cls-2" d="M115.17,110.7"/><path class="cls-2" d="M153.25,114"/><path class="cls-2" d="M182.3,164.86"/><path class="cls-2" d="M183.49,168.66l-2.34,0a19.31,19.31,0,0,1-17.63-12.47l-.05-.14-13-38,7.48.1,12.16,35.6a12.3,12.3,0,0,0,11.12,7.91Z"/><path class="cls-2" d="M213.6,92.6A21.8,21.8,0,0,1,206,109.16a19.39,19.39,0,0,1-8.51,4.16,32,32,0,0,1-4.84.56H178.94a26.1,26.1,0,0,0,7.36-5.13l.31-.32,1.39-1.56a40.36,40.36,0,0,0,8.08-.44,12.4,12.4,0,0,0,5.4-2.66,14.68,14.68,0,0,0,5.05-11.17c0-7.76-5.77-14.08-12.87-14.08h-4.15l-.77-1.23a25,25,0,0,0-5-5.81h9.92C204.65,71.48,213.6,81,213.6,92.6Z"/><path class="cls-2" d="M211.83,168.66l-2.39,0a19.29,19.29,0,0,1-17.59-12.53l0-.15-12.86-38.1,7.5.12,12,35.66a12.34,12.34,0,0,0,11.09,8Z"/><path class="cls-2" d="M120.19,74.66l-2.35-7.06h46.77a23.15,23.15,0,0,1,11.61,3.12c.4.23.79.47,1.17.73s.8.54,1.18.83a23.43,23.43,0,0,1,5.73,6.26c.25.39.47.78.69,1.18s.41.78.6,1.18a22.91,22.91,0,0,1,2.24,9.92,22.62,22.62,0,0,1-4.72,13.81c-.3.4-.61.79-1,1.18s-.7.79-1.07,1.18l-.21.21a23.38,23.38,0,0,1-15,6.81c-.37,0-.74,0-1.1,0h-1.28l-2,0H149.07l-.45-1.27-2-5.75,9.68,0h4.15c1.4,0,2.81,0,4.21,0h.2a14.43,14.43,0,0,0,5.63-1.18,14.69,14.69,0,0,0,2.3-1.18,17.13,17.13,0,0,0,3.1-2.45,15.9,15.9,0,0,0,4.87-11.35,16.11,16.11,0,0,0-3.41-9.92,15.71,15.71,0,0,0-1.13-1.3,16.11,16.11,0,0,0-11.61-4.93H120.19"/><path class="cls-2" d="M139.08,109.06,129,78.63h-7.44l10.86,32.66c.42,1.25.86,2.54,1.31,3.85,4.24,12.37,9.06,26.39,1.17,36.85A23.63,23.63,0,1,1,116.26,114H125L122.6,107l-6.34,0A31.05,31.05,0,0,0,85.35,137.8a30.66,30.66,0,0,0,55.13,18.45c10.16-13.47,4.46-30.06-.12-43.4C139.92,111.56,139.49,110.29,139.08,109.06Z"/><path class="cls-2" d="M31.87,196.58a7.15,7.15,0,0,1-1,4.48,4.64,4.64,0,0,1-4,2,5.11,5.11,0,0,1-3.47-1.66l2.2-2.53A1.74,1.74,0,0,0,27,200c1.69,0,1.48-2.87,1.48-4V184.9h3.44Z"/><path class="cls-2" d="M45.52,196.84A5.82,5.82,0,0,1,39.47,203a6.13,6.13,0,0,1,0-12.26A5.83,5.83,0,0,1,45.52,196.84Zm-8.77,0c0,1.55,1,3.21,2.72,3.21s2.72-1.66,2.72-3.21-1-3.24-2.72-3.24S36.75,195.24,36.75,196.84Z"/><path class="cls-2" d="M50.35,192.13h0a3.42,3.42,0,0,1,3-1.43c3.1,0,4,2.18,4,4.85v7H54.1v-6.09c0-1.39.07-3.17-1.78-3.17s-2,2.18-2,3.57v5.69H47.06V191.07h3.29Z"/><path class="cls-2" d="M70.55,201.88c0,3.75-1.26,6.85-5.58,6.85-2.81,0-5.65-1.71-5.81-4.79h3.47a2.19,2.19,0,0,0,2.27,2c2.33,0,2.37-2,2.37-3.77v-.75h0A4,4,0,0,1,64.08,203c-3.37,0-5.18-3-5.18-6.05s1.92-6.21,5.35-6.21a3.82,3.82,0,0,1,3,1.47h0v-1.1h3.28Zm-2.88-5c0-1.55-1-3.24-2.72-3.24s-2.72,1.69-2.72,3.24,1,3.21,2.72,3.21S67.67,198.39,67.67,196.84Z"/><path class="cls-2" d="M75.55,197.36c0,1.45.56,3.09,2.27,3.09A2.42,2.42,0,0,0,80,198.88l3,.49A5.3,5.3,0,0,1,77.82,203c-3.56,0-5.74-2.53-5.74-6s1.85-6.23,5.58-6.23,5.46,2.79,5.46,6.26v.4ZM80,195.31A2.42,2.42,0,0,0,77.84,193a2.37,2.37,0,0,0-2.2,2.32Z"/><path class="cls-2" d="M103.47,202.58H99.3L95,195.46h0v7.12H91.51V184.9h4.67c3.49,0,5.91,1.55,5.91,5.33,0,2.25-1.25,4.5-3.62,4.9ZM95,193h.44c1.9,0,3.24-.56,3.24-2.72s-1.38-2.6-3.21-2.6H95Z"/><path class="cls-2" d="M107.15,197.36c0,1.45.56,3.09,2.27,3.09a2.42,2.42,0,0,0,2.21-1.57l3,.49a5.3,5.3,0,0,1-5.23,3.59c-3.56,0-5.74-2.53-5.74-6s1.85-6.23,5.58-6.23,5.46,2.79,5.46,6.26v.4Zm4.48-2.05a2.42,2.42,0,0,0-2.18-2.32,2.38,2.38,0,0,0-2.21,2.32Z"/><path class="cls-2" d="M119.52,192.13h0a3.42,3.42,0,0,1,3-1.43c3.1,0,4,2.18,4,4.85v7h-3.28v-6.09c0-1.39.07-3.17-1.79-3.17s-2,2.18-2,3.57v5.69h-3.28V191.07h3.28Z"/><path class="cls-2" d="M132.18,192.13h0a3.42,3.42,0,0,1,3-1.43c3.1,0,4,2.18,4,4.85v7h-3.28v-6.09c0-1.39.07-3.17-1.79-3.17s-2,2.18-2,3.57v5.69H128.9V191.07h3.28Z"/><path class="cls-2" d="M144.21,197.36c0,1.45.56,3.09,2.28,3.09a2.42,2.42,0,0,0,2.2-1.57l3,.49a5.28,5.28,0,0,1-5.22,3.59c-3.57,0-5.75-2.53-5.75-6s1.85-6.23,5.58-6.23,5.46,2.79,5.46,6.26v.4Zm4.48-2.05a2.4,2.4,0,0,0-2.18-2.32,2.37,2.37,0,0,0-2.2,2.32Z"/><path class="cls-2" d="M156.59,192.27h0a3.28,3.28,0,0,1,2.86-1.57,3.71,3.71,0,0,1,1.36.28l-.4,3.05a2.29,2.29,0,0,0-1.36-.43c-2.28,0-2.51,2-2.51,3.8v5.18h-3.28V191.07h3.28Z"/><path class="cls-2" d="M167.82,193.79a2.64,2.64,0,0,0-1.74-.8,1.06,1.06,0,0,0-1.07,1c0,.84,1.19,1.08,2.36,1.59a3.34,3.34,0,0,1,2.37,3.31c0,2.56-2.06,4.08-4.48,4.08a5.27,5.27,0,0,1-4-1.92l1.5-1.95a3.47,3.47,0,0,0,2.44,1.34,1.24,1.24,0,0,0,1.31-1.25c0-1-1.15-1.24-2.3-1.73s-2.3-1.17-2.3-3a3.55,3.55,0,0,1,3.66-3.72,6,6,0,0,1,3.71,1.19Z"/><path class="cls-2" d="M190.35,202.58h-4.18l-4.29-7.12h0v7.12h-3.45V184.9h4.67c3.49,0,5.91,1.55,5.91,5.33,0,2.25-1.25,4.5-3.62,4.9ZM181.84,193h.44c1.9,0,3.24-.56,3.24-2.72s-1.39-2.6-3.21-2.6h-.47Z"/><path class="cls-2" d="M202.68,196.84a6.05,6.05,0,1,1-6.05-6.14A5.82,5.82,0,0,1,202.68,196.84Zm-8.77,0c0,1.55,1,3.21,2.72,3.21s2.72-1.66,2.72-3.21-1-3.24-2.72-3.24S193.91,195.24,193.91,196.84Z"/><path class="cls-2" d="M206.87,197.36c0,1.45.57,3.09,2.28,3.09a2.4,2.4,0,0,0,2.2-1.57l3,.49a5.3,5.3,0,0,1-5.23,3.59c-3.57,0-5.75-2.53-5.75-6s1.86-6.23,5.58-6.23,5.47,2.79,5.47,6.26v.4Zm4.48-2.05a2.4,2.4,0,0,0-2.18-2.32,2.37,2.37,0,0,0-2.2,2.32Z"/><path class="cls-2" d="M221.88,193.79a2.64,2.64,0,0,0-1.74-.8,1.07,1.07,0,0,0-1.08,1c0,.84,1.2,1.08,2.37,1.59a3.34,3.34,0,0,1,2.37,3.31c0,2.56-2.06,4.08-4.48,4.08a5.26,5.26,0,0,1-4-1.92l1.5-1.95a3.47,3.47,0,0,0,2.43,1.34,1.24,1.24,0,0,0,1.32-1.25c0-1-1.15-1.24-2.3-1.73s-2.3-1.17-2.3-3a3.55,3.55,0,0,1,3.66-3.72,6,6,0,0,1,3.7,1.19Z"/><path class="cls-2" d="M228.23,197.36c0,1.45.56,3.09,2.27,3.09a2.42,2.42,0,0,0,2.21-1.57l3,.49A5.29,5.29,0,0,1,230.5,203c-3.56,0-5.74-2.53-5.74-6s1.85-6.23,5.58-6.23,5.46,2.79,5.46,6.26v.4Zm4.48-2.05a2.42,2.42,0,0,0-2.18-2.32,2.38,2.38,0,0,0-2.21,2.32Z"/><path class="cls-2" d="M240.61,202.58h-3.29V182.7h3.29Z"/><path class="cls-2" d="M253.81,202.58h-3.24v-1.05h0a4,4,0,0,1-3.12,1.43c-3.38,0-5.3-3.07-5.3-6.19s1.94-6.07,5.25-6.07a4.24,4.24,0,0,1,3.21,1.45v-1.08h3.24Zm-2.91-5.76c0-1.55-1.05-3.22-2.74-3.22s-2.72,1.67-2.72,3.22,1,3.23,2.72,3.23S250.9,198.36,250.9,196.82Z"/><path class="cls-2" d="M259.46,192.27h0a3.29,3.29,0,0,1,2.86-1.57,3.67,3.67,0,0,1,1.36.28l-.4,3.05a2.25,2.25,0,0,0-1.36-.43c-2.27,0-2.5,2-2.5,3.8v5.18h-3.29V191.07h3.29Z"/><path class="cls-2" d="M267.43,197.36c0,1.45.56,3.09,2.27,3.09a2.42,2.42,0,0,0,2.21-1.57l3,.49A5.3,5.3,0,0,1,269.7,203c-3.56,0-5.74-2.53-5.74-6s1.85-6.23,5.58-6.23S275,193.49,275,197v.4Zm4.48-2.05a2.42,2.42,0,0,0-2.19-2.32,2.37,2.37,0,0,0-2.2,2.32Z"/><path class="cls-2" d="M63.53,226,65,222.1H67.1l-3.17,7h-1l-3.16-7h2.17Z"/><path class="cls-2" d="M73.41,227.34V229H66.85l3.53-5.24h-3V222.1h6.23l-3.5,5.24Z"/><path class="cls-2" d="M77,226.08l1.68-4.21h.94l1.71,4.26,1.46-4h2.13l-3.2,7h-1l-1.48-4.2-1.64,4.2h-1l-3.18-7h2.15Z"/><path class="cls-2" d="M94.11,224.21a1.94,1.94,0,0,0-1.45-.68,1.89,1.89,0,0,0-1.74,2.05,1.84,1.84,0,0,0,1.81,2,1.88,1.88,0,0,0,1.38-.66v1.89a3.39,3.39,0,0,1-1.7.43,3.53,3.53,0,0,1-3.49-3.66,3.58,3.58,0,0,1,3.59-3.7,3,3,0,0,1,1.6.44Z"/><path class="cls-2" d="M94.38,222.1h2.24L98.26,226,100,222.1h2.2l-5,10.58H95L97.32,228Z"/><path class="cls-2" d="M107.35,224.21a2,2,0,0,0-1.45-.68,1.89,1.89,0,0,0-1.74,2.05,1.83,1.83,0,0,0,1.81,2,1.91,1.91,0,0,0,1.38-.66v1.89a3.42,3.42,0,0,1-1.71.43,3.53,3.53,0,0,1-3.48-3.66,3.57,3.57,0,0,1,3.58-3.7,3.07,3.07,0,0,1,1.61.44Z"/><path class="cls-2" d="M110.54,229h-2V217.08h2Z"/><path class="cls-2" d="M114.18,219.2a1.17,1.17,0,1,1-2.33,0,1.17,1.17,0,1,1,2.33,0ZM114,229h-2v-6.9h2Z"/><path class="cls-2" d="M117.46,222.73h0a2.07,2.07,0,0,1,1.8-.86c1.85,0,2.39,1.31,2.39,2.91V229h-2v-3.65c0-.83,0-1.9-1.07-1.9s-1.18,1.31-1.18,2.13V229h-2v-6.9h2Z"/><path class="cls-2" d="M129.58,228.58c0,2.25-.76,4.1-3.34,4.1a3.25,3.25,0,0,1-3.49-2.86h2.08A1.32,1.32,0,0,0,126.2,231c1.39,0,1.42-1.23,1.42-2.27v-.45h0a2.39,2.39,0,0,1-1.89.92c-2,0-3.1-1.78-3.1-3.63s1.15-3.73,3.2-3.73a2.29,2.29,0,0,1,1.79.89h0v-.66h2Zm-1.73-3a1.65,1.65,0,1,0-1.63,1.92A1.81,1.81,0,0,0,127.85,225.56Z"/><path class="cls-2" d="M137.27,229h-2v-5.24h-.68V222.1h.68v-2.34h2v2.34h1.2v1.66h-1.2Z"/><path class="cls-2" d="M140.5,225.87c0,.87.34,1.85,1.36,1.85a1.45,1.45,0,0,0,1.33-.94l1.81.3a3.19,3.19,0,0,1-3.14,2.15,3.34,3.34,0,0,1-3.44-3.62c0-2.09,1.11-3.74,3.35-3.74s3.27,1.68,3.27,3.76v.24Zm2.69-1.23a1.45,1.45,0,0,0-1.31-1.39,1.42,1.42,0,0,0-1.32,1.39Z"/><path class="cls-2" d="M152.48,229h-1.94v-.63h0a2.38,2.38,0,0,1-1.87.86c-2,0-3.17-1.85-3.17-3.72a3.37,3.37,0,0,1,3.15-3.64,2.56,2.56,0,0,1,1.92.87v-.64h1.94Zm-1.74-3.46a1.66,1.66,0,1,0-1.65,1.94A1.83,1.83,0,0,0,150.74,225.54Z"/><path class="cls-2" d="M155.87,222.72h0a2.09,2.09,0,0,1,1.69-.85,2.17,2.17,0,0,1,2,1.09,2.38,2.38,0,0,1,2-1.09c1.76,0,2.2,1.32,2.2,2.83V229h-2v-3.63c0-.67,0-1.92-.93-1.92s-1.06,1.45-1.06,2.16V229h-2v-3.5c0-.67.08-2.05-1-2.05s-1,1.43-1,2.16V229h-2v-6.9h2Z"/><path class="cls-2" d="M171.37,227.2h2.93V229h-5V218.4h2.06Z"/><path class="cls-2" d="M176.83,222.1v3.74c0,.79.13,1.73,1.13,1.73s1.12-.94,1.12-1.73V222.1h2v4.06a2.74,2.74,0,0,1-3.09,3.07c-2.06,0-3.1-1.06-3.1-3.07V222.1Z"/><path class="cls-2" d="M187.13,224.21a2,2,0,0,0-1.45-.68,1.89,1.89,0,0,0-1.74,2.05,1.83,1.83,0,0,0,1.81,2,1.9,1.9,0,0,0,1.38-.66v1.89a3.41,3.41,0,0,1-1.7.43,3.53,3.53,0,0,1-3.49-3.66,3.57,3.57,0,0,1,3.58-3.7,3.07,3.07,0,0,1,1.61.44Z"/><path class="cls-2" d="M195.82,225.63h0l2.11-7.37h1.22l2.19,7.37h0l2.08-7.23h2.17l-3.59,10.81h-1.52l-2.11-6.93h0l-2,6.93h-1.52l-3.37-10.81h2.16Z"/><path class="cls-2" d="M211.84,229H209.9v-.63h0a2.38,2.38,0,0,1-1.87.86c-2,0-3.18-1.85-3.18-3.72a3.38,3.38,0,0,1,3.15-3.64,2.57,2.57,0,0,1,1.93.87v-.64h1.94Zm-1.74-3.46a1.66,1.66,0,1,0-1.65,1.94A1.83,1.83,0,0,0,210.1,225.54Z"/><path class="cls-2" d="M215.23,229h-2V217.08h2Z"/><path class="cls-2" d="M218.59,229h-2V217.08h2Z"/><path class="cls-2" d="M226.51,229h-1.94v-.63h0a2.38,2.38,0,0,1-1.87.86c-2,0-3.18-1.85-3.18-3.72a3.38,3.38,0,0,1,3.15-3.64,2.57,2.57,0,0,1,1.93.87v-.64h1.94Zm-1.74-3.46a1.66,1.66,0,1,0-1.65,1.94A1.83,1.83,0,0,0,224.77,225.54Z"/><path class="cls-2" d="M227,222.1h2.23l1.65,3.92,1.77-3.92h2.19l-5,10.58h-2.16l2.28-4.73Z"/><path class="cls-2" d="M238.79,223.73a1.56,1.56,0,0,0-1-.48.64.64,0,0,0-.65.59c0,.51.72.65,1.42,1a2,2,0,0,1,1.42,2,2.48,2.48,0,0,1-2.68,2.45,3.17,3.17,0,0,1-2.43-1.16l.9-1.16a2.06,2.06,0,0,0,1.46.8A.74.74,0,0,0,238,227c0-.6-.68-.74-1.37-1a1.84,1.84,0,0,1-1.38-1.81,2.13,2.13,0,0,1,2.19-2.24,3.6,3.6,0,0,1,2.22.72Z"/></svg>