<svg xmlns="http://www.w3.org/2000/svg" viewBox="0 0 590.2 404.78"><defs><style>.cls-1,.cls-2{fill:#1d1d1b;}.cls-1{stroke:#1d1d1b;stroke-width:15.7px;}.cls-1,.cls-10,.cls-11,.cls-12,.cls-13,.cls-14,.cls-15,.cls-16,.cls-17,.cls-18,.cls-19,.cls-20,.cls-21,.cls-22,.cls-23,.cls-24,.cls-25,.cls-26,.cls-27,.cls-28,.cls-4,.cls-5,.cls-6,.cls-7,.cls-8,.cls-9{stroke-miterlimit:10;}.cls-3{fill:#e94e1b;}.cls-10,.cls-11,.cls-12,.cls-13,.cls-14,.cls-15,.cls-16,.cls-17,.cls-18,.cls-19,.cls-20,.cls-21,.cls-22,.cls-23,.cls-24,.cls-25,.cls-26,.cls-27,.cls-28,.cls-4,.cls-5,.cls-6,.cls-7,.cls-8,.cls-9{fill:none;stroke:#e94e1b;}.cls-10,.cls-11,.cls-12,.cls-13,.cls-14,.cls-15,.cls-16,.cls-17,.cls-18,.cls-19,.cls-20,.cls-21,.cls-23,.cls-24,.cls-25,.cls-26,.cls-27,.cls-4,.cls-5,.cls-6,.cls-7,.cls-8,.cls-9{stroke-width:0.52px;}.cls-5{stroke-dasharray:2.07 2.07;}.cls-6{stroke-dasharray:2.07 2.07;}.cls-7{stroke-dasharray:2.08 2.08;}.cls-8{stroke-dasharray:2.08 2.08;}.cls-9{stroke-dasharray:2.07 2.07;}.cls-10{stroke-dasharray:2.07 2.07;}.cls-11{stroke-dasharray:2.09 2.09;}.cls-12{stroke-dasharray:2.07 2.07;}.cls-13{stroke-dasharray:2.09 2.09;}.cls-14{stroke-dasharray:2.08 2.08;}.cls-15{stroke-dasharray:2.07 2.07;}.cls-16{stroke-dasharray:2.07 2.07;}.cls-17{stroke-dasharray:2.07 2.07;}.cls-18{stroke-dasharray:2.07 2.07;}.cls-19{stroke-dasharray:2.07 2.07;}.cls-20{stroke-dasharray:2.07 2.07;}.cls-21{stroke-dasharray:2.08 2.08;}.cls-22{stroke-width:0.52px;stroke-dasharray:2.1 2.1;}.cls-23{stroke-dasharray:2.09 2.09;}.cls-24{stroke-dasharray:2.09 2.09;}.cls-25{stroke-dasharray:2.1 2.1;}.cls-26{stroke-dasharray:2.09 2.09;}.cls-27{stroke-dasharray:2.08;}.cls-28{stroke-width:0.52px;stroke-dasharray:2.06;}</style></defs><title>logo_grid</title><g id="Laag_2" data-name="Laag 2"><path class="cls-1" d="M353.72,239.38" transform="translate(-124.63 -83.09)"/><path class="cls-1" d="M345,216.81" transform="translate(-124.63 -83.09)"/><path class="cls-1" d="M429.57,224.11" transform="translate(-124.63 -83.09)"/><path class="cls-1" d="M494.11,337.16" transform="translate(-124.63 -83.09)"/><path class="cls-2" d="M496.75,345.61l-5.19-.07c-3.7,0-28.89-1.33-39.19-27.7l-.1-.32L423.42,233l16.62.2,27,79.12c6.9,17.43,24,17.59,24.69,17.58Z" transform="translate(-124.63 -83.09)"/><path class="cls-2" d="M563.65,176.6a48.39,48.39,0,0,1-16.81,36.79,43.25,43.25,0,0,1-18.91,9.25,70.46,70.46,0,0,1-10.75,1.23H486.64A57.85,57.85,0,0,0,503,212.48a9,9,0,0,0,.68-.71l3.09-3.46c6.23.05,12.65.11,18-1a27.63,27.63,0,0,0,12-5.89A32.67,32.67,0,0,0,548,176.6c0-17.25-12.82-31.29-28.59-31.29h-9.24l-1.71-2.74a55.54,55.54,0,0,0-11.09-12.9h22C543.78,129.67,563.65,150.72,563.65,176.6Z" transform="translate(-124.63 -83.09)"/><path class="cls-2" d="M559.74,345.61l-5.32-.09c-3.72-.06-28.89-1.43-39.09-27.86l-.11-.31-28.58-84.68,16.67.27L530,312.19c6.84,17.47,23.93,17.69,24.65,17.68Z" transform="translate(-124.63 -83.09)"/><path class="cls-2" d="M356.1,136.74l-5.22-15.69H454.79a51.43,51.43,0,0,1,25.8,6.92c.89.51,1.76,1.05,2.62,1.63s1.76,1.2,2.62,1.84a51.85,51.85,0,0,1,12.73,13.92c.54.86,1.05,1.73,1.53,2.62s.91,1.73,1.33,2.62a51,51,0,0,1,5,22.05,50.26,50.26,0,0,1-10.48,30.68c-.67.89-1.36,1.76-2.13,2.61s-1.55,1.77-2.39,2.62c-.14.16-.3.32-.45.47a52,52,0,0,1-33.41,15.14c-.82.06-1.64.07-2.44.07h-.42c-.8,0-1.6,0-2.42,0-1.49,0-3,0-4.47,0h-6.07c-1.27,0-2.53,0-3.78,0H435.8c-.7,0-1.68,0-2.81,0H420.26l-1-2.82-4.43-12.79c2.27,0,19.23-.05,21.5-.07,3,0,6.12,0,9.23,0s6.24,0,9.35.08h.45a32.1,32.1,0,0,0,12.51-2.61,35,35,0,0,0,5.09-2.62,38,38,0,0,0,6.91-5.44,35.27,35.27,0,0,0,3.22-47.27,36.21,36.21,0,0,0-2.51-2.9,35.78,35.78,0,0,0-25.8-10.95H356.1" transform="translate(-124.63 -83.09)"/><path class="cls-2" d="M398.07,213.17l-22.5-67.61H359l24.13,72.56c.93,2.79,1.9,5.65,2.9,8.56,9.43,27.48,20.13,58.63,2.6,81.88A52.42,52.42,0,0,1,294.39,277c0-28.91,24.08-52.79,53-52.79h19.41l-5.32-15.73-14.09,0c-37.54,0-68.67,30.93-68.67,68.49a68.12,68.12,0,0,0,122.5,41c22.57-29.92,9.91-66.79-.26-96.43C399.93,218.73,399,215.91,398.07,213.17Z" transform="translate(-124.63 -83.09)"/><path class="cls-2" d="M159.86,407.65c0,3.65-.11,6.77-2.3,10a10.34,10.34,0,0,1-8.8,4.43,11.32,11.32,0,0,1-7.71-3.7l4.9-5.63c.36,1.15,1.72,2.55,3,2.55,3.75,0,3.28-6.35,3.28-8.9V381.71h7.66Z" transform="translate(-124.63 -83.09)"/><path class="cls-2" d="M190.17,408.22c0,7.92-5.41,13.6-13.44,13.6s-13.44-5.68-13.44-13.6,5.47-13.65,13.44-13.65S190.17,400.25,190.17,408.22Zm-19.48,0c0,3.44,2.29,7.14,6,7.14s6.05-3.7,6.05-7.14-2.3-7.19-6.05-7.19S170.69,404.68,170.69,408.22Z" transform="translate(-124.63 -83.09)"/><path class="cls-2" d="M200.9,397.75H201a7.64,7.64,0,0,1,6.67-3.18c6.87,0,8.85,4.85,8.85,10.79V421h-7.29V407.44c0-3.07.16-7-4-7-4.32,0-4.38,4.84-4.38,7.92V421h-7.29V395.41h7.29Z" transform="translate(-124.63 -83.09)"/><path class="cls-2" d="M245.81,419.42c0,8.34-2.82,15.21-12.4,15.21-6.25,0-12.56-3.8-12.92-10.62h7.71a4.88,4.88,0,0,0,5.05,4.48c5.16,0,5.26-4.54,5.26-8.39v-1.67h-.1a8.87,8.87,0,0,1-7,3.39c-7.5,0-11.51-6.57-11.51-13.44,0-7,4.27-13.81,11.87-13.81a8.5,8.5,0,0,1,6.62,3.28h.1v-2.44h7.3Zm-6.41-11.2c0-3.44-2.29-7.19-6-7.19s-6.05,3.75-6.05,7.19,2.3,7.14,6.05,7.14S239.4,411.66,239.4,408.22Z" transform="translate(-124.63 -83.09)"/><path class="cls-2" d="M256.9,409.37c0,3.23,1.25,6.87,5.06,6.87,2.39,0,3.9-1.46,4.89-3.49l6.72,1.1c-1.77,5.1-6.25,8-11.61,8-7.92,0-12.77-5.63-12.77-13.39s4.12-13.86,12.4-13.86,12.14,6.2,12.14,13.91v.89Zm10-4.53c-.36-2.61-2-5.16-4.84-5.16s-4.53,2.5-4.9,5.16Z" transform="translate(-124.63 -83.09)"/><path class="cls-2" d="M318.94,421h-9.27l-9.53-15.83H300V421h-7.65V381.71h10.36c7.76,0,13.13,3.43,13.13,11.82,0,5-2.76,10-8,10.89ZM300,399.78h1c4.22,0,7.19-1.25,7.19-6s-3.07-5.78-7.13-5.78H300Z" transform="translate(-124.63 -83.09)"/><path class="cls-2" d="M327.12,409.37c0,3.23,1.25,6.87,5.05,6.87,2.4,0,3.91-1.46,4.9-3.49l6.72,1.1c-1.77,5.1-6.25,8-11.62,8-7.91,0-12.76-5.63-12.76-13.39s4.12-13.86,12.4-13.86S344,400.77,344,408.48v.89Zm9.95-4.53c-.36-2.61-2-5.16-4.84-5.16s-4.54,2.5-4.9,5.16Z" transform="translate(-124.63 -83.09)"/><path class="cls-2" d="M354.63,397.75h.1a7.64,7.64,0,0,1,6.67-3.18c6.87,0,8.85,4.85,8.85,10.79V421H363V407.44c0-3.07.16-7-4-7-4.32,0-4.37,4.84-4.37,7.92V421h-7.3V395.41h7.3Z" transform="translate(-124.63 -83.09)"/><path class="cls-2" d="M382.75,397.75h.11a7.64,7.64,0,0,1,6.67-3.18c6.87,0,8.85,4.85,8.85,10.79V421h-7.29V407.44c0-3.07.16-7-4-7-4.32,0-4.38,4.84-4.38,7.92V421h-7.29V395.41h7.29Z" transform="translate(-124.63 -83.09)"/><path class="cls-2" d="M409.48,409.37c0,3.23,1.25,6.87,5,6.87,2.4,0,3.91-1.46,4.9-3.49l6.72,1.1c-1.77,5.1-6.25,8-11.62,8-7.92,0-12.76-5.63-12.76-13.39s4.11-13.86,12.4-13.86,12.13,6.2,12.13,13.91v.89Zm9.95-4.53c-.37-2.61-2-5.16-4.85-5.16s-4.53,2.5-4.89,5.16Z" transform="translate(-124.63 -83.09)"/><path class="cls-2" d="M437,398.06h.11a7.29,7.29,0,0,1,6.35-3.49,8.36,8.36,0,0,1,3,.63l-.88,6.77a5.17,5.17,0,0,0-3-.94c-5.06,0-5.58,4.48-5.58,8.44V421h-7.29V395.41H437Z" transform="translate(-124.63 -83.09)"/><path class="cls-2" d="M461.93,401.45a5.77,5.77,0,0,0-3.85-1.77,2.36,2.36,0,0,0-2.4,2.19c0,1.87,2.66,2.39,5.26,3.54s5.27,2.92,5.27,7.34c0,5.68-4.59,9.07-10,9.07a11.76,11.76,0,0,1-9-4.27l3.34-4.33c1.4,1.56,3.28,3,5.41,3a2.75,2.75,0,0,0,2.92-2.76c0-2.24-2.55-2.76-5.1-3.85s-5.11-2.61-5.11-6.73a7.9,7.9,0,0,1,8.13-8.28c2.71,0,6.15.84,8.23,2.66Z" transform="translate(-124.63 -83.09)"/><path class="cls-2" d="M512,421h-9.27l-9.53-15.83h-.11V421h-7.66V381.71h10.37c7.76,0,13.13,3.43,13.13,11.82,0,5-2.76,10-8,10.89Zm-18.91-21.2h1c4.22,0,7.19-1.25,7.19-6s-3.07-5.78-7.14-5.78h-1Z" transform="translate(-124.63 -83.09)"/><path class="cls-2" d="M539.39,408.22c0,7.92-5.41,13.6-13.44,13.6s-13.44-5.68-13.44-13.6S518,394.57,526,394.57,539.39,400.25,539.39,408.22Zm-19.48,0c0,3.44,2.29,7.14,6,7.14s6-3.7,6-7.14-2.3-7.19-6-7.19S519.91,404.68,519.91,408.22Z" transform="translate(-124.63 -83.09)"/><path class="cls-2" d="M548.72,409.37c0,3.23,1.25,6.87,5,6.87,2.4,0,3.91-1.46,4.9-3.49l6.72,1.1c-1.77,5.1-6.25,8-11.62,8-7.92,0-12.76-5.63-12.76-13.39s4.11-13.86,12.4-13.86,12.13,6.2,12.13,13.91v.89Zm9.95-4.53c-.37-2.61-2-5.16-4.85-5.16s-4.53,2.5-4.89,5.16Z" transform="translate(-124.63 -83.09)"/><path class="cls-2" d="M582.05,401.45a5.77,5.77,0,0,0-3.85-1.77,2.36,2.36,0,0,0-2.4,2.19c0,1.87,2.66,2.39,5.27,3.54s5.26,2.92,5.26,7.34c0,5.68-4.59,9.07-10,9.07a11.78,11.78,0,0,1-9-4.27l3.34-4.33c1.41,1.56,3.28,3,5.42,3a2.75,2.75,0,0,0,2.91-2.76c0-2.24-2.55-2.76-5.1-3.85s-5.11-2.61-5.11-6.73a7.9,7.9,0,0,1,8.13-8.28c2.71,0,6.15.84,8.23,2.66Z" transform="translate(-124.63 -83.09)"/><path class="cls-2" d="M596.17,409.37c0,3.23,1.25,6.87,5.05,6.87,2.4,0,3.91-1.46,4.9-3.49l6.72,1.1c-1.77,5.1-6.25,8-11.62,8-7.92,0-12.76-5.63-12.76-13.39s4.12-13.86,12.4-13.86S613,400.77,613,408.48v.89Zm10-4.53c-.36-2.61-2-5.16-4.84-5.16s-4.54,2.5-4.9,5.16Z" transform="translate(-124.63 -83.09)"/><path class="cls-2" d="M623.67,421h-7.29V376.81h7.29Z" transform="translate(-124.63 -83.09)"/><path class="cls-2" d="M653,421h-7.19v-2.34h-.1a8.84,8.84,0,0,1-6.93,3.18c-7.5,0-11.77-6.83-11.77-13.75s4.32-13.5,11.67-13.5a9.47,9.47,0,0,1,7.13,3.23v-2.39H653Zm-6.46-12.81c0-3.44-2.34-7.14-6.09-7.14s-6.05,3.7-6.05,7.14,2.3,7.19,6.05,7.19S646.54,411.61,646.54,408.17Z" transform="translate(-124.63 -83.09)"/><path class="cls-2" d="M665.56,398.06h.1a7.32,7.32,0,0,1,6.36-3.49,8.36,8.36,0,0,1,3,.63l-.89,6.77a5.15,5.15,0,0,0-3-.94c-5,0-5.57,4.48-5.57,8.44V421h-7.3V395.41h7.3Z" transform="translate(-124.63 -83.09)"/><path class="cls-2" d="M683.27,409.37c0,3.23,1.25,6.87,5.05,6.87,2.4,0,3.91-1.46,4.9-3.49l6.72,1.1c-1.77,5.1-6.25,8-11.62,8-7.92,0-12.76-5.63-12.76-13.39s4.11-13.86,12.4-13.86,12.13,6.2,12.13,13.91v.89Zm10-4.53c-.37-2.61-2-5.16-4.85-5.16s-4.53,2.5-4.89,5.16Z" transform="translate(-124.63 -83.09)"/><path class="cls-2" d="M230.21,473l3.15-8.66h4.79L231.08,480h-2.25l-7-15.66h4.81Z" transform="translate(-124.63 -83.09)"/><path class="cls-2" d="M252.15,476v3.69H237.58L245.43,468H238.8v-3.69h13.85L244.87,476Z" transform="translate(-124.63 -83.09)"/><path class="cls-2" d="M260.06,473.19l3.75-9.35h2.09l3.78,9.47,3.25-9h4.75L270.56,480h-2.22l-3.28-9.35L261.4,480h-2.25l-7.06-15.66h4.78Z" transform="translate(-124.63 -83.09)"/><path class="cls-2" d="M298.16,469a4.31,4.31,0,0,0-3.22-1.5c-2.47,0-3.88,2.31-3.88,4.56,0,2.41,1.53,4.41,4,4.41a4.21,4.21,0,0,0,3.07-1.47v4.22a7.72,7.72,0,0,1-3.79.94,7.84,7.84,0,0,1-7.75-8.13,8,8,0,0,1,8-8.22,6.87,6.87,0,0,1,3.57,1Z" transform="translate(-124.63 -83.09)"/><path class="cls-2" d="M298.75,464.34h5l3.66,8.72,3.93-8.72h4.88L305,487.87h-4.81l5.06-10.53Z" transform="translate(-124.63 -83.09)"/><path class="cls-2" d="M327.57,469a4.31,4.31,0,0,0-3.22-1.5c-2.47,0-3.88,2.31-3.88,4.56,0,2.41,1.53,4.41,4,4.41a4.21,4.21,0,0,0,3.07-1.47v4.22a7.72,7.72,0,0,1-3.79.94,7.84,7.84,0,0,1-7.75-8.13,8,8,0,0,1,8-8.22,6.87,6.87,0,0,1,3.57,1Z" transform="translate(-124.63 -83.09)"/><path class="cls-2" d="M334.66,479.69h-4.37V453.18h4.37Z" transform="translate(-124.63 -83.09)"/><path class="cls-2" d="M342.76,457.9a2.6,2.6,0,1,1-2.6-2.59A2.59,2.59,0,0,1,342.76,457.9Zm-.41,21.79H338V464.34h4.38Z" transform="translate(-124.63 -83.09)"/><path class="cls-2" d="M350,465.75h.06a4.58,4.58,0,0,1,4-1.91c4.13,0,5.31,2.91,5.31,6.47v9.38H355v-8.13c0-1.84.09-4.22-2.38-4.22s-2.62,2.91-2.62,4.75v7.6h-4.38V464.34H350Z" transform="translate(-124.63 -83.09)"/><path class="cls-2" d="M377,478.75c0,5-1.69,9.12-7.44,9.12-3.75,0-7.53-2.28-7.75-6.37h4.62a2.94,2.94,0,0,0,3,2.69c3.09,0,3.15-2.72,3.15-5v-1h-.06a5.34,5.34,0,0,1-4.19,2c-4.5,0-6.9-3.94-6.9-8.07s2.56-8.28,7.12-8.28a5.07,5.07,0,0,1,4,2h.06v-1.47H377ZM373.13,472c0-2.06-1.37-4.31-3.62-4.31s-3.63,2.25-3.63,4.31,1.38,4.28,3.63,4.28S373.13,474.09,373.13,472Z" transform="translate(-124.63 -83.09)"/><path class="cls-2" d="M394,479.69h-4.37V468h-1.5v-3.69h1.5v-5.19H394v5.19h2.69V468H394Z" transform="translate(-124.63 -83.09)"/><path class="cls-2" d="M401.23,472.72c0,1.93.75,4.12,3,4.12a3.2,3.2,0,0,0,2.94-2.09l4,.65a7.06,7.06,0,0,1-7,4.79c-4.75,0-7.65-3.38-7.65-8s2.47-8.31,7.44-8.31,7.28,3.72,7.28,8.35v.53Zm6-2.72c-.22-1.57-1.22-3.1-2.9-3.1s-2.72,1.5-2.94,3.1Z" transform="translate(-124.63 -83.09)"/><path class="cls-2" d="M427.86,479.69h-4.31v-1.41h-.06a5.32,5.32,0,0,1-4.16,1.91c-4.5,0-7.06-4.1-7.06-8.25s2.59-8.1,7-8.1a5.68,5.68,0,0,1,4.28,1.94v-1.44h4.31ZM424,472c0-2.06-1.41-4.28-3.66-4.28s-3.63,2.22-3.63,4.28,1.38,4.31,3.63,4.31S424,474.06,424,472Z" transform="translate(-124.63 -83.09)"/><path class="cls-2" d="M435.39,465.72h.07a4.61,4.61,0,0,1,3.75-1.88,4.85,4.85,0,0,1,4.4,2.41,5.32,5.32,0,0,1,4.47-2.41c3.91,0,4.88,2.94,4.88,6.28v9.57h-4.38v-8.07c0-1.5.1-4.28-2.06-4.28-2.38,0-2.34,3.22-2.34,4.81v7.54H439.8V471.9c0-1.5.19-4.56-2.09-4.56-2.44,0-2.32,3.19-2.32,4.81v7.54H431V464.34h4.37Z" transform="translate(-124.63 -83.09)"/><path class="cls-2" d="M469.84,475.69h6.5v4h-11.1V456.12h4.6Z" transform="translate(-124.63 -83.09)"/><path class="cls-2" d="M482,464.34v8.31c0,1.75.29,3.85,2.51,3.85s2.5-2.1,2.5-3.85v-8.31h4.37v9c0,4.47-2.31,6.82-6.87,6.82s-6.88-2.35-6.88-6.82v-9Z" transform="translate(-124.63 -83.09)"/><path class="cls-2" d="M504.84,469a4.29,4.29,0,0,0-3.22-1.5c-2.46,0-3.87,2.31-3.87,4.56,0,2.41,1.53,4.41,4,4.41a4.17,4.17,0,0,0,3.06-1.47v4.22a7.68,7.68,0,0,1-3.78.94,7.84,7.84,0,0,1-7.75-8.13,8,8,0,0,1,8-8.22,6.81,6.81,0,0,1,3.56,1Z" transform="translate(-124.63 -83.09)"/><path class="cls-2" d="M524.16,472.19h.06l4.69-16.38h2.72l4.87,16.38h.07l4.62-16.07H546l-8,24h-3.37L530,464.75h-.06l-4.44,15.4H522.1l-7.51-24h4.82Z" transform="translate(-124.63 -83.09)"/><path class="cls-2" d="M559.76,479.69h-4.32v-1.41h-.06a5.3,5.3,0,0,1-4.15,1.91c-4.5,0-7.07-4.1-7.07-8.25s2.6-8.1,7-8.1a5.66,5.66,0,0,1,4.28,1.94v-1.44h4.32ZM555.88,472c0-2.06-1.4-4.28-3.65-4.28s-3.63,2.22-3.63,4.28,1.38,4.31,3.63,4.31S555.88,474.06,555.88,472Z" transform="translate(-124.63 -83.09)"/><path class="cls-2" d="M567.29,479.69h-4.38V453.18h4.38Z" transform="translate(-124.63 -83.09)"/><path class="cls-2" d="M574.76,479.69h-4.38V453.18h4.38Z" transform="translate(-124.63 -83.09)"/><path class="cls-2" d="M592.36,479.69H588v-1.41H588a5.3,5.3,0,0,1-4.15,1.91c-4.51,0-7.07-4.1-7.07-8.25s2.6-8.1,7-8.1a5.66,5.66,0,0,1,4.28,1.94v-1.44h4.32ZM588.48,472c0-2.06-1.41-4.28-3.65-4.28s-3.63,2.22-3.63,4.28,1.37,4.31,3.63,4.31S588.48,474.06,588.48,472Z" transform="translate(-124.63 -83.09)"/><path class="cls-2" d="M593.39,464.34h5l3.65,8.72,3.94-8.72h4.88l-11.16,23.53h-4.81l5.06-10.53Z" transform="translate(-124.63 -83.09)"/><path class="cls-2" d="M619.64,468a3.45,3.45,0,0,0-2.31-1.07,1.42,1.42,0,0,0-1.44,1.32c0,1.12,1.6,1.43,3.16,2.12s3.15,1.75,3.15,4.41c0,3.4-2.74,5.44-6,5.44a7,7,0,0,1-5.41-2.57l2-2.59a4.61,4.61,0,0,0,3.25,1.78,1.65,1.65,0,0,0,1.75-1.66c0-1.34-1.53-1.65-3.06-2.31s-3.07-1.56-3.07-4a4.74,4.74,0,0,1,4.88-5,8,8,0,0,1,4.94,1.59Z" transform="translate(-124.63 -83.09)"/><circle class="cls-3" cx="242.36" cy="58.06" r="4.41"/><circle class="cls-3" cx="280.41" cy="136.37" r="4.41"/><circle class="cls-3" cx="289.16" cy="136.37" r="4.41"/><circle class="cls-3" cx="373.57" cy="251.29" r="4.41"/><circle class="cls-3" cx="382.32" cy="251.29" r="4.41"/><circle class="cls-3" cx="391.13" cy="251.29" r="4.41"/><circle class="cls-3" cx="222.39" cy="293.43" r="4.41"/><circle class="cls-3" cx="222.39" cy="284.68" r="4.41"/><circle class="cls-3" cx="222.39" cy="275.87" r="4.41"/><circle class="cls-3" cx="222.39" cy="267.13" r="4.41"/><circle class="cls-3" cx="222.4" cy="367.93" r="4.41"/><circle class="cls-3" cx="222.4" cy="359.17" r="4.41"/><circle class="cls-3" cx="222.4" cy="350.36" r="4.41"/><circle class="cls-3" cx="222.4" cy="341.62" r="4.41"/><circle class="cls-3" cx="245.24" cy="136.37" r="4.41"/><circle class="cls-3" cx="254" cy="136.37" r="4.41"/><circle class="cls-3" cx="307.68" cy="145.56" r="4.41"/><circle class="cls-3" cx="370.93" cy="145.19" r="4.41"/><circle class="cls-3" cx="360.45" cy="136.48" r="4.41"/><circle class="cls-3" cx="377.05" cy="57.85" r="4.41"/><circle class="cls-3" cx="385.31" cy="42.26" r="4.41"/><line class="cls-4" x1="132.51" y1="37.95" x2="133.55" y2="37.95"/><line class="cls-5" x1="135.63" y1="37.95" x2="462.33" y2="37.95"/><line class="cls-4" x1="463.36" y1="37.95" x2="464.41" y2="37.95"/></g><g id="Laag_1" data-name="Laag 1"><path class="cls-4" d="M337.3,83.31l.36,1" transform="translate(-124.63 -83.09)"/><path class="cls-6" d="M338.37,86.24c32.78,90.15,59.49,184.22,91.62,274.33" transform="translate(-124.63 -83.09)"/><path class="cls-4" d="M430.34,361.54c.12.33.23.66.35,1" transform="translate(-124.63 -83.09)"/><path class="cls-4" d="M354.77,83.18l.33,1" transform="translate(-124.63 -83.09)"/><path class="cls-7" d="M355.77,86.13C380.23,157.91,404,229.93,428,301.86q9.93,29.79,19.93,59.54" transform="translate(-124.63 -83.09)"/><path class="cls-4" d="M448.26,362.39l.33,1" transform="translate(-124.63 -83.09)"/><path class="cls-4" d="M373.32,83.56c.1.33.2.66.31,1" transform="translate(-124.63 -83.09)"/><path class="cls-8" d="M374.25,86.53C403.3,178.37,436,268.48,466.33,361" transform="translate(-124.63 -83.09)"/><path class="cls-4" d="M466.65,362l.33,1" transform="translate(-124.63 -83.09)"/><path class="cls-4" d="M390.08,83.42c.11.34.21.67.31,1" transform="translate(-124.63 -83.09)"/><path class="cls-9" d="M391,86.4c28.69,92,63.38,182.06,92.1,274" transform="translate(-124.63 -83.09)"/><path class="cls-4" d="M483.42,361.42c.1.33.21.66.31,1" transform="translate(-124.63 -83.09)"/><path class="cls-4" d="M437.23,83.3c.12.32.24.65.35,1" transform="translate(-124.63 -83.09)"/><path class="cls-10" d="M438.28,86.23c32.17,90.16,58.88,184.24,91.63,274.39" transform="translate(-124.63 -83.09)"/><path class="cls-4" d="M530.27,361.59c.11.33.23.65.35,1" transform="translate(-124.63 -83.09)"/><path class="cls-4" d="M453.59,83.54c.11.33.23.66.34,1" transform="translate(-124.63 -83.09)"/><path class="cls-11" d="M454.62,86.5C479.2,157.3,502,228.69,525.75,299.79q9.93,29.73,20.11,59.39" transform="translate(-124.63 -83.09)"/><path class="cls-4" d="M546.2,360.17c.12.32.23.65.34,1" transform="translate(-124.63 -83.09)"/><path class="cls-4" d="M409.27,83.44c.11.33.22.66.32,1" transform="translate(-124.63 -83.09)"/><path class="cls-12" d="M410.23,86.4c23.35,71.88,48.17,143.27,72.25,214.9q10,29.7,19.75,59.46" transform="translate(-124.63 -83.09)"/><path class="cls-4" d="M502.55,361.74l.33,1" transform="translate(-124.63 -83.09)"/><path class="cls-4" d="M472.16,83.26l.36,1" transform="translate(-124.63 -83.09)"/><path class="cls-13" d="M473.25,86.2c13.16,35.62,24.19,72,35.61,108.18,11.57,36.64,26.54,72.17,37.19,109.06,3,10.27,6.1,19.95,9.9,29.92,3.28,8.63,5.63,17.29,8.59,25.93" transform="translate(-124.63 -83.09)"/><path class="cls-4" d="M564.88,360.29c.11.33.23.65.34,1" transform="translate(-124.63 -83.09)"/><path class="cls-4" d="M319.14,83.33l.33,1" transform="translate(-124.63 -83.09)"/><path class="cls-14" d="M320.14,86.29c31,92.11,61.71,184.21,92.29,275.56" transform="translate(-124.63 -83.09)"/><path class="cls-4" d="M412.76,362.84l.33,1" transform="translate(-124.63 -83.09)"/><path class="cls-4" d="M258.05,129.67h1" transform="translate(-124.63 -83.09)"/><path class="cls-15" d="M261.16,129.65q164.47-.57,326.16-.09" transform="translate(-124.63 -83.09)"/><path class="cls-4" d="M588.35,129.56h1" transform="translate(-124.63 -83.09)"/><path class="cls-4" d="M257.6,208.37h1" transform="translate(-124.63 -83.09)"/><path class="cls-16" d="M260.71,208.36q162.1-.18,326.26,0" transform="translate(-124.63 -83.09)"/><path class="cls-4" d="M588,208.33h1" transform="translate(-124.63 -83.09)"/><path class="cls-4" d="M258.05,145.56h1" transform="translate(-124.63 -83.09)"/><path class="cls-15" d="M261.16,145.57q164.47.39,326.16.06" transform="translate(-124.63 -83.09)"/><path class="cls-4" d="M588.35,145.63h1" transform="translate(-124.63 -83.09)"/><path class="cls-4" d="M258.05,136.35h1" transform="translate(-124.63 -83.09)"/><path class="cls-17" d="M261.16,136.38q164.47,1.5,326.16.25" transform="translate(-124.63 -83.09)"/><path class="cls-4" d="M588.35,136.62h1" transform="translate(-124.63 -83.09)"/><path class="cls-4" d="M257.6,223.48h1" transform="translate(-124.63 -83.09)"/><path class="cls-18" d="M260.71,223.51q162.1,1.45,326.26.24" transform="translate(-124.63 -83.09)"/><path class="cls-4" d="M588,223.75h1" transform="translate(-124.63 -83.09)"/><path class="cls-4" d="M257.6,232.79h1" transform="translate(-124.63 -83.09)"/><path class="cls-19" d="M260.71,232.8q162.1.49,326.26.08" transform="translate(-124.63 -83.09)"/><path class="cls-4" d="M588,232.88h1" transform="translate(-124.63 -83.09)"/><path class="cls-4" d="M257.15,345.12h1" transform="translate(-124.63 -83.09)"/><path class="cls-20" d="M260.26,345.15c108.51.71,217.22.71,326.7.17" transform="translate(-124.63 -83.09)"/><path class="cls-4" d="M588,345.32h1" transform="translate(-124.63 -83.09)"/><path class="cls-4" d="M257.15,330h1" transform="translate(-124.63 -83.09)"/><path class="cls-20" d="M260.26,330c108.51-.75,217.22-.75,326.7-.19" transform="translate(-124.63 -83.09)"/><path class="cls-4" d="M588,329.77h1" transform="translate(-124.63 -83.09)"/><ellipse class="cls-21" cx="221.77" cy="193.86" rx="52.04" ry="52.81"/><ellipse class="cls-22" cx="222.4" cy="193.75" rx="68.13" ry="68.28"/><circle class="cls-23" cx="454.78" cy="172.61" r="35.86" transform="translate(113.57 525.07) rotate(-84.35)"/><circle class="cls-24" cx="455.05" cy="172.39" r="51.34" transform="translate(114.03 525.14) rotate(-84.35)"/><circle class="cls-25" cx="390.84" cy="93.51" r="32.69"/><circle class="cls-26" cx="515.7" cy="176.49" r="47.87" transform="translate(186.33 598.55) rotate(-86.83)"/><circle class="cls-27" cx="430.97" cy="88.35" r="7.98"/><circle class="cls-27" cx="373.57" cy="88.35" r="7.98"/><circle class="cls-27" cx="381.76" cy="183.68" r="7.98"/><circle class="cls-27" cx="318.53" cy="183.68" r="7.98"/><circle class="cls-27" cx="280.41" cy="183.68" r="7.98"/><line class="cls-28" y1="297.39" x2="590.2" y2="297.39"/><line class="cls-28" y1="337.22" x2="590.2" y2="337.22"/><line class="cls-28" y1="372" x2="590.2" y2="372"/><line class="cls-28" y1="396.09" x2="590.2" y2="396.09"/></g></svg>