<svg id="Group_8" data-name="Group 8" xmlns="http://www.w3.org/2000/svg" viewBox="0 0 89.859 70.772">
  <defs>
    <style>
      .cls-1 {
        fill: #e04403;
      }
    </style>
  </defs>
  <g id="Group_1" data-name="Group 1" transform="translate(23.678 37.321)">
    <path id="Path_3" data-name="Path 3" class="cls-1" d="M102.2,56.9" transform="translate(-102.2 -56.9)"/>
  </g>
  <g id="Group_2" data-name="Group 2" transform="translate(20.923 30.172)">
    <path id="Path_4" data-name="Path 4" class="cls-1" d="M98,46" transform="translate(-98 -46)"/>
  </g>
  <g id="Group_3" data-name="Group 3" transform="translate(47.619 32.467)">
    <path id="Path_5" data-name="Path 5" class="cls-1" d="M138.7,49.5" transform="translate(-138.7 -49.5)"/>
  </g>
  <g id="Group_4" data-name="Group 4" transform="translate(67.952 68.148)">
    <path id="Path_6" data-name="Path 6" class="cls-1" d="M169.7,103.9" transform="translate(-169.7 -103.9)"/>
  </g>
  <g id="Group_5" data-name="Group 5" transform="translate(45.651 35.288)">
    <path id="Path_7" data-name="Path 7" class="cls-1" d="M158.788,89.284h-1.64a13.4,13.4,0,0,1-12.331-8.724V80.43L135.7,53.8l5.247.066,8.527,24.924a8.407,8.407,0,0,0,7.805,5.51Z" transform="translate(-135.7 -53.8)"/>
  </g>
  <g id="Group_6" data-name="Group 6" transform="translate(65.525 2.754)">
    <path id="Path_8" data-name="Path 8" class="cls-1" d="M190.334,18.958a15.288,15.288,0,0,1-5.313,11.61,13.014,13.014,0,0,1-5.969,2.886,28.53,28.53,0,0,1-3.411.394H166a18.444,18.444,0,0,0,5.182-3.607l.2-.2.984-1.115A25.871,25.871,0,0,0,178,28.6a8.572,8.572,0,0,0,3.8-1.837,10.194,10.194,0,0,0,3.542-7.805c0-5.444-4.067-9.839-8.986-9.839h-2.886l-.525-.853A18.721,18.721,0,0,0,169.476,4.2h6.953C184.037,4.134,190.334,10.824,190.334,18.958Z" transform="translate(-166 -4.199)"/>
    <path id="Path_9" data-name="Path 9" class="cls-1" d="M189.088,89.216h-1.705a13.5,13.5,0,0,1-12.331-8.789l-.066-.131L166,53.6l5.247.066,8.4,24.99a8.637,8.637,0,0,0,7.74,5.575Z" transform="translate(-166 -21.198)"/>
  </g>
  <g id="Group_7" data-name="Group 7">
    <path id="Path_10" data-name="Path 10" class="cls-1" d="M102.505,4.919,100.8,0h32.73a16.378,16.378,0,0,1,8.133,2.164c.262.131.525.328.853.525a9.6,9.6,0,0,0,.853.59,16.022,16.022,0,0,1,4,4.395,3.535,3.535,0,0,1,.459.853c.131.262.262.525.394.853a16.378,16.378,0,0,1,1.574,6.953,15.994,15.994,0,0,1-3.28,9.642,9.642,9.642,0,0,0-.656.853,9.816,9.816,0,0,0-.721.853c-.066.066-.066.131-.131.131a16.226,16.226,0,0,1-10.56,4.788H122.773l-.328-.918-1.377-4h12.725a9.258,9.258,0,0,0,3.935-.853,7.316,7.316,0,0,0,1.574-.853,10.78,10.78,0,0,0,2.164-1.705,10.982,10.982,0,0,0,3.411-7.936,11.538,11.538,0,0,0-2.361-6.953c-.262-.328-.525-.59-.787-.918A11.337,11.337,0,0,0,133.6,4.985H107.687l-5.182-.066" transform="translate(-78.04)"/>
    <path id="Path_11" data-name="Path 11" class="cls-1" d="M103.749,33.117,96.665,11.8H91.483l7.608,22.891c.262.853.59,1.771.918,2.689,2.952,8.658,6.362,18.5.787,25.777a16.529,16.529,0,0,1-29.712-9.9A16.825,16.825,0,0,1,87.81,36.593h6.1L92.2,31.608h-4.46A21.78,21.78,0,0,0,66.1,53.188a21.448,21.448,0,0,0,38.567,12.921c7.084-9.445,3.148-21.055-.066-30.368C104.339,34.822,104.077,33.97,103.749,33.117Z" transform="translate(-66.1 -4.06)"/>
  </g>
</svg>
