<svg id="Laag_1" data-name="Laag 1" xmlns="http://www.w3.org/2000/svg" viewBox="0 0 506.88 716.58"><defs><style>.cls-1,.cls-4,.cls-5,.cls-6{fill:none;stroke:#1d1d1b;stroke-miterlimit:10;}.cls-1{stroke-width:0.11px;}.cls-2{fill:#e04403;}.cls-3{fill:#081f2d;}.cls-4{stroke-width:0.07px;}.cls-5{stroke-width:0.05px;}.cls-6{stroke-width:0.04px;}</style></defs><title>logo_afmetingen</title><path class="cls-1" d="M153.14,659.91" transform="translate(-44.34 -63.24)"/><path class="cls-1" d="M149.4,659.91" transform="translate(-44.34 -63.24)"/><path class="cls-2" d="M139.65,661.83" transform="translate(-44.34 -63.24)"/><path class="cls-2" d="M137.87,657.27" transform="translate(-44.34 -63.24)"/><path class="cls-2" d="M155,658.75" transform="translate(-44.34 -63.24)"/><path class="cls-2" d="M168,681.59" transform="translate(-44.34 -63.24)"/><path class="cls-2" d="M168.55,683.3H167.5a8.68,8.68,0,0,1-7.92-5.6l0-.06-5.83-17.09,3.36,0,5.47,16a5.53,5.53,0,0,0,5,3.56Z" transform="translate(-44.34 -63.24)"/><path class="cls-2" d="M182.07,649.14a9.82,9.82,0,0,1-3.39,7.44,8.86,8.86,0,0,1-3.83,1.87,15.32,15.32,0,0,1-2.17.25h-6.17a11.87,11.87,0,0,0,3.31-2.3l.13-.15.63-.7a18.41,18.41,0,0,0,3.63-.2,5.5,5.5,0,0,0,2.42-1.19,6.6,6.6,0,0,0,2.27-5,6.08,6.08,0,0,0-5.78-6.32h-1.86l-.35-.55a11.18,11.18,0,0,0-2.24-2.61h4.45A9.23,9.23,0,0,1,182.07,649.14Z" transform="translate(-44.34 -63.24)"/><path class="cls-2" d="M181.28,683.3l-1.07,0a8.67,8.67,0,0,1-7.9-5.63l0-.06-5.77-17.11,3.37,0,5.4,16a5.53,5.53,0,0,0,5,3.57Z" transform="translate(-44.34 -63.24)"/><path class="cls-2" d="M140.13,641.09l-1.06-3.17h21a10.39,10.39,0,0,1,5.22,1.4l.53.32c.18.12.35.25.52.38a10.48,10.48,0,0,1,2.58,2.81c.11.17.21.35.31.53l.27.53a10.37,10.37,0,0,1,1,4.45,10.18,10.18,0,0,1-2.12,6.21,5.15,5.15,0,0,1-.43.52c-.15.18-.31.36-.48.53l-.09.1a10.53,10.53,0,0,1-6.75,3.06h-7.54l-.2-.57L152,655.6h6.21l1.89,0h.09a6.45,6.45,0,0,0,2.53-.53,6.7,6.7,0,0,0,1-.53,7.23,7.23,0,0,0,1.39-1.1,7.11,7.11,0,0,0,.65-9.55,5.57,5.57,0,0,0-.5-.59,7.25,7.25,0,0,0-5.22-2.21H140.13" transform="translate(-44.34 -63.24)"/><path class="cls-2" d="M148.61,656.53l-4.55-13.66h-3.34l4.88,14.67c.18.56.38,1.14.58,1.73,1.91,5.55,4.07,11.85.53,16.54a10.6,10.6,0,0,1-19.06-6.37,10.77,10.77,0,0,1,10.71-10.67h3.92l-1.07-3.18h-2.85a13.94,13.94,0,0,0-13.88,13.84,13.77,13.77,0,0,0,24.76,8.29c4.56-6.05,2-13.5-.05-19.49C149,657.66,148.79,657.09,148.61,656.53Z" transform="translate(-44.34 -63.24)"/><path class="cls-3" d="M100.46,695.84a3.23,3.23,0,0,1-.46,2,2.09,2.09,0,0,1-1.78.9,2.3,2.3,0,0,1-1.56-.75l1-1.14a.79.79,0,0,0,.6.52c.76,0,.67-1.29.67-1.8v-5h1.54Z" transform="translate(-44.34 -63.24)"/><path class="cls-3" d="M106.59,696a2.72,2.72,0,1,1-2.71-2.76A2.6,2.6,0,0,1,106.59,696Zm-3.94,0a1.24,1.24,0,1,0,1.23-1.46A1.36,1.36,0,0,0,102.65,696Z" transform="translate(-44.34 -63.24)"/><path class="cls-3" d="M108.76,693.84h0a1.55,1.55,0,0,1,1.35-.64c1.39,0,1.79,1,1.79,2.18v3.16h-1.48V695.8c0-.62,0-1.42-.8-1.42s-.88,1-.88,1.6v2.56h-1.47v-5.18h1.47Z" transform="translate(-44.34 -63.24)"/><path class="cls-3" d="M117.84,698.22c0,1.68-.57,3.07-2.51,3.07a2.43,2.43,0,0,1-2.61-2.14h1.56a1,1,0,0,0,1,.9c1,0,1.06-.91,1.06-1.69V698h0a1.8,1.8,0,0,1-1.41.68A2.45,2.45,0,0,1,112.6,696a2.56,2.56,0,0,1,2.4-2.79,1.7,1.7,0,0,1,1.34.66h0v-.5h1.48Zm-1.3-2.26a1.24,1.24,0,1,0-1.22,1.44A1.36,1.36,0,0,0,116.54,696Z" transform="translate(-44.34 -63.24)"/><path class="cls-3" d="M120.08,696.19c0,.65.25,1.39,1,1.39a1.09,1.09,0,0,0,1-.71l1.36.22a2.39,2.39,0,0,1-2.35,1.61,2.49,2.49,0,0,1-2.58-2.7c0-1.57.83-2.8,2.51-2.8s2.45,1.25,2.45,2.81v.18Zm2-.92a1.07,1.07,0,0,0-1-1,1.06,1.06,0,0,0-1,1Z" transform="translate(-44.34 -63.24)"/><path class="cls-3" d="M132.62,698.54h-1.88l-1.92-3.21h0v3.21h-1.54V690.6h2.09c1.57,0,2.66.69,2.66,2.39a2.1,2.1,0,0,1-1.63,2.2Zm-3.83-4.29h.2c.86,0,1.46-.25,1.46-1.22s-.62-1.17-1.44-1.17h-.22Z" transform="translate(-44.34 -63.24)"/><path class="cls-3" d="M134.27,696.19c0,.65.25,1.39,1,1.39a1.08,1.08,0,0,0,1-.71l1.36.22a2.38,2.38,0,0,1-2.35,1.61,2.49,2.49,0,0,1-2.58-2.7c0-1.57.83-2.8,2.51-2.8s2.45,1.25,2.45,2.81v.18Zm2-.92a1.07,1.07,0,0,0-1-1,1.06,1.06,0,0,0-1,1Z" transform="translate(-44.34 -63.24)"/><path class="cls-3" d="M139.83,693.84h0a1.54,1.54,0,0,1,1.35-.64c1.39,0,1.79,1,1.79,2.18v3.16h-1.48V695.8c0-.62,0-1.42-.8-1.42s-.88,1-.88,1.6v2.56h-1.48v-5.18h1.48Z" transform="translate(-44.34 -63.24)"/><path class="cls-3" d="M145.51,693.84h0a1.57,1.57,0,0,1,1.35-.64c1.39,0,1.79,1,1.79,2.18v3.16H147.2V695.8c0-.62,0-1.42-.8-1.42s-.89,1-.89,1.6v2.56H144v-5.18h1.47Z" transform="translate(-44.34 -63.24)"/><path class="cls-3" d="M150.91,696.19c0,.65.26,1.39,1,1.39a1.1,1.1,0,0,0,1-.71l1.35.22a2.37,2.37,0,0,1-2.34,1.61,2.49,2.49,0,0,1-2.58-2.7c0-1.57.83-2.8,2.5-2.8s2.46,1.25,2.46,2.81v.18Zm2-.92a1.09,1.09,0,0,0-1-1,1.06,1.06,0,0,0-1,1Z" transform="translate(-44.34 -63.24)"/><path class="cls-3" d="M156.47,693.9h0a1.49,1.49,0,0,1,1.29-.7,1.79,1.79,0,0,1,.61.12l-.18,1.37a1.1,1.1,0,0,0-.61-.19c-1,0-1.13.91-1.13,1.71v2.33H155v-5.18h1.47Z" transform="translate(-44.34 -63.24)"/><path class="cls-3" d="M161.52,694.59a1.18,1.18,0,0,0-.78-.36.48.48,0,0,0-.49.44c0,.38.54.49,1.07.72a1.5,1.5,0,0,1,1.06,1.48,1.86,1.86,0,0,1-2,1.83,2.35,2.35,0,0,1-1.82-.86l.67-.87a1.57,1.57,0,0,0,1.1.6.56.56,0,0,0,.59-.56c0-.45-.52-.56-1-.78a1.39,1.39,0,0,1-1-1.36,1.59,1.59,0,0,1,1.64-1.67,2.68,2.68,0,0,1,1.67.53Z" transform="translate(-44.34 -63.24)"/><path class="cls-3" d="M171.63,698.54h-1.87l-1.93-3.21h0v3.21h-1.55V690.6h2.1c1.57,0,2.65.69,2.65,2.39a2.1,2.1,0,0,1-1.62,2.2Zm-3.82-4.29h.2c.85,0,1.45-.25,1.45-1.22s-.62-1.17-1.44-1.17h-.21Z" transform="translate(-44.34 -63.24)"/><path class="cls-3" d="M177.17,696a2.72,2.72,0,1,1-2.72-2.76A2.6,2.6,0,0,1,177.17,696Zm-3.94,0a1.24,1.24,0,1,0,1.22-1.46A1.36,1.36,0,0,0,173.23,696Z" transform="translate(-44.34 -63.24)"/><path class="cls-3" d="M179.05,696.19c0,.65.26,1.39,1,1.39a1.09,1.09,0,0,0,1-.71l1.35.22a2.37,2.37,0,0,1-2.34,1.61,2.49,2.49,0,0,1-2.58-2.7c0-1.57.83-2.8,2.5-2.8s2.46,1.25,2.46,2.81v.18Zm2-.92a1.08,1.08,0,0,0-1-1,1.06,1.06,0,0,0-1,1Z" transform="translate(-44.34 -63.24)"/><path class="cls-3" d="M185.79,694.59a1.16,1.16,0,0,0-.78-.36.47.47,0,0,0-.48.44c0,.38.54.49,1.06.72a1.49,1.49,0,0,1,1.07,1.48,1.86,1.86,0,0,1-2,1.83,2.38,2.38,0,0,1-1.83-.86l.68-.87a1.56,1.56,0,0,0,1.09.6.55.55,0,0,0,.59-.56c0-.45-.51-.56-1-.78a1.38,1.38,0,0,1-1-1.36,1.59,1.59,0,0,1,1.64-1.67,2.66,2.66,0,0,1,1.66.53Z" transform="translate(-44.34 -63.24)"/><path class="cls-3" d="M188.65,696.19c0,.65.25,1.39,1,1.39a1.09,1.09,0,0,0,1-.71l1.36.22a2.39,2.39,0,0,1-2.35,1.61,2.49,2.49,0,0,1-2.58-2.7c0-1.57.83-2.8,2.5-2.8s2.46,1.25,2.46,2.81v.18Zm2-.92a1.08,1.08,0,0,0-1-1,1.06,1.06,0,0,0-1,1Z" transform="translate(-44.34 -63.24)"/><path class="cls-3" d="M194.2,698.54h-1.47v-8.93h1.47Z" transform="translate(-44.34 -63.24)"/><path class="cls-3" d="M200.13,698.54h-1.45v-.48h0a1.8,1.8,0,0,1-1.4.64,2.55,2.55,0,0,1-2.38-2.78,2.52,2.52,0,0,1,2.36-2.72,1.92,1.92,0,0,1,1.44.65v-.49h1.45Zm-1.3-2.6a1.25,1.25,0,1,0-1.24,1.46A1.37,1.37,0,0,0,198.83,695.94Z" transform="translate(-44.34 -63.24)"/><path class="cls-3" d="M202.67,693.9h0a1.47,1.47,0,0,1,1.28-.7,1.8,1.8,0,0,1,.62.12l-.18,1.37a1.1,1.1,0,0,0-.61-.19c-1,0-1.13.91-1.13,1.71v2.33h-1.48v-5.18h1.48Z" transform="translate(-44.34 -63.24)"/><path class="cls-3" d="M206.25,696.19c0,.65.25,1.39,1,1.39a1.09,1.09,0,0,0,1-.71l1.36.22a2.39,2.39,0,0,1-2.35,1.61,2.49,2.49,0,0,1-2.58-2.7c0-1.57.83-2.8,2.51-2.8s2.45,1.25,2.45,2.81v.18Zm2-.92a1.07,1.07,0,0,0-1-1,1.06,1.06,0,0,0-1,1Z" transform="translate(-44.34 -63.24)"/><path class="cls-3" d="M114.68,709.05l.64-1.75h1l-1.43,3.16h-.46L113,707.3h1Z" transform="translate(-44.34 -63.24)"/><path class="cls-3" d="M119.12,709.65v.75h-3l1.59-2.36h-1.34v-.74h2.8l-1.58,2.35Z" transform="translate(-44.34 -63.24)"/><path class="cls-3" d="M120.71,709.09l.76-1.89h.43l.76,1.91.66-1.81h1l-1.44,3.16h-.45l-.66-1.89-.74,1.89h-.46l-1.43-3.16h1Z" transform="translate(-44.34 -63.24)"/><path class="cls-3" d="M128.41,708.25a.8.8,0,0,0-1.43.61.82.82,0,0,0,.82.89.79.79,0,0,0,.61-.29v.85a1.56,1.56,0,0,1-.76.19,1.58,1.58,0,0,1-1.57-1.64,1.61,1.61,0,0,1,1.61-1.66,1.39,1.39,0,0,1,.72.19Z" transform="translate(-44.34 -63.24)"/><path class="cls-3" d="M128.54,707.3h1l.74,1.76.79-1.76h1l-2.26,4.75h-1l1-2.12Z" transform="translate(-44.34 -63.24)"/><path class="cls-3" d="M134.36,708.25a.88.88,0,0,0-.65-.31.85.85,0,0,0-.78.92.82.82,0,0,0,.81.89.83.83,0,0,0,.62-.29v.85a1.58,1.58,0,0,1-2.33-1.45,1.6,1.6,0,0,1,1.61-1.66,1.41,1.41,0,0,1,.72.19Z" transform="translate(-44.34 -63.24)"/><path class="cls-3" d="M135.79,710.4h-.88V705h.88Z" transform="translate(-44.34 -63.24)"/><path class="cls-3" d="M137.43,706a.53.53,0,0,1-1.05,0,.53.53,0,1,1,1.05,0Zm-.08,4.4h-.89v-3.1h.89Z" transform="translate(-44.34 -63.24)"/><path class="cls-3" d="M138.9,707.58h0a.93.93,0,0,1,.81-.38c.84,0,1.07.58,1.07,1.3v1.9h-.88v-1.64c0-.38,0-.86-.48-.86s-.53.59-.53,1v1.54H138v-3.1h.88Z" transform="translate(-44.34 -63.24)"/><path class="cls-3" d="M144.34,710.21c0,1-.34,1.84-1.5,1.84a1.45,1.45,0,0,1-1.56-1.28h.93a.59.59,0,0,0,.61.54c.63,0,.64-.55.64-1v-.2h0a1.09,1.09,0,0,1-.85.41,1.47,1.47,0,0,1-1.39-1.63,1.52,1.52,0,0,1,1.44-1.67,1,1,0,0,1,.8.4h0v-.3h.88Zm-.77-1.36a.75.75,0,1,0-.73.87A.82.82,0,0,0,143.57,708.85Z" transform="translate(-44.34 -63.24)"/><path class="cls-3" d="M147.79,710.4h-.88V708h-.3v-.74h.3v-1h.88v1h.55V708h-.55Z" transform="translate(-44.34 -63.24)"/><path class="cls-3" d="M149.25,709c0,.39.15.83.61.83a.64.64,0,0,0,.59-.42l.82.13a1.44,1.44,0,0,1-1.41,1,1.65,1.65,0,0,1,0-3.3c1,0,1.47.75,1.47,1.68V709Zm1.2-.55a.59.59,0,1,0-1.18,0Z" transform="translate(-44.34 -63.24)"/><path class="cls-3" d="M154.63,710.4h-.87v-.29h0a1.05,1.05,0,0,1-.84.39,1.53,1.53,0,0,1-1.42-1.67,1.51,1.51,0,0,1,1.41-1.63,1.18,1.18,0,0,1,.87.39v-.29h.87Zm-.78-1.55a.75.75,0,1,0-.74.87A.82.82,0,0,0,153.85,708.85Z" transform="translate(-44.34 -63.24)"/><path class="cls-3" d="M156.15,707.58h0a.93.93,0,0,1,.76-.38,1,1,0,0,1,.89.48,1.08,1.08,0,0,1,.9-.48c.79,0,1,.59,1,1.27v1.93h-.88v-1.63c0-.3,0-.87-.42-.87s-.47.65-.47,1v1.52H157v-1.57c0-.31,0-.93-.42-.93s-.47.65-.47,1v1.52h-.88v-3.1h.88Z" transform="translate(-44.34 -63.24)"/><path class="cls-3" d="M163.11,709.59h1.32v.81h-2.25v-4.76h.93Z" transform="translate(-44.34 -63.24)"/><path class="cls-3" d="M165.56,707.3V709c0,.35.06.77.51.77s.5-.42.5-.77V707.3h.89v1.82a1.39,1.39,0,0,1-2.78,0V707.3Z" transform="translate(-44.34 -63.24)"/><path class="cls-3" d="M170.19,708.25a.88.88,0,0,0-.65-.31.85.85,0,0,0-.79.92.82.82,0,0,0,1.44.6v.85a1.6,1.6,0,0,1-.77.19,1.58,1.58,0,0,1-1.56-1.64,1.6,1.6,0,0,1,1.61-1.66,1.44,1.44,0,0,1,.72.19Z" transform="translate(-44.34 -63.24)"/><path class="cls-3" d="M174.09,708.88h0l1-3.31h.55l1,3.31h0l.93-3.24h1l-1.61,4.85h-.68l-.94-3.11h0l-.89,3.11h-.69l-1.51-4.85h1Z" transform="translate(-44.34 -63.24)"/><path class="cls-3" d="M181.29,710.4h-.88v-.29h0a1.07,1.07,0,0,1-.84.39,1.53,1.53,0,0,1-1.43-1.67,1.51,1.51,0,0,1,1.42-1.63,1.14,1.14,0,0,1,.86.39v-.29h.88Zm-.79-1.55a.75.75,0,1,0-.74.87A.82.82,0,0,0,180.5,708.85Z" transform="translate(-44.34 -63.24)"/><path class="cls-3" d="M182.81,710.4h-.89V705h.89Z" transform="translate(-44.34 -63.24)"/><path class="cls-3" d="M184.32,710.4h-.89V705h.89Z" transform="translate(-44.34 -63.24)"/><path class="cls-3" d="M187.87,710.4H187v-.29h0a1.07,1.07,0,0,1-.84.39,1.53,1.53,0,0,1-1.43-1.67,1.51,1.51,0,0,1,1.42-1.63,1.14,1.14,0,0,1,.86.39v-.29h.87Zm-.78-1.55a.75.75,0,1,0-.74.87A.82.82,0,0,0,187.09,708.85Z" transform="translate(-44.34 -63.24)"/><path class="cls-3" d="M188.08,707.3h1l.74,1.76.79-1.76h1l-2.26,4.75h-1l1-2.12Z" transform="translate(-44.34 -63.24)"/><path class="cls-3" d="M193.39,708a.7.7,0,0,0-.47-.21.28.28,0,0,0-.29.26c0,.23.32.29.64.43a.9.9,0,0,1,.64.89,1.12,1.12,0,0,1-1.21,1.1,1.41,1.41,0,0,1-1.09-.52l.4-.52a.94.94,0,0,0,.66.36.33.33,0,0,0,.35-.34c0-.27-.31-.33-.62-.46a.84.84,0,0,1-.62-.82,1,1,0,0,1,1-1,1.63,1.63,0,0,1,1,.32Z" transform="translate(-44.34 -63.24)"/><path class="cls-4" d="M275.58,488.15" transform="translate(-44.34 -63.24)"/><path class="cls-4" d="M273.12,488.15" transform="translate(-44.34 -63.24)"/><path class="cls-2" d="M266.66,489.42" transform="translate(-44.34 -63.24)"/><path class="cls-2" d="M265.49,486.4" transform="translate(-44.34 -63.24)"/><path class="cls-2" d="M276.8,487.38" transform="translate(-44.34 -63.24)"/><path class="cls-2" d="M285.42,502.48" transform="translate(-44.34 -63.24)"/><path class="cls-2" d="M285.78,503.61h-.7a5.7,5.7,0,0,1-5.23-3.7l0,0L276,488.56l2.22,0,3.61,10.57a3.64,3.64,0,0,0,3.3,2.35Z" transform="translate(-44.34 -63.24)"/><path class="cls-2" d="M294.72,481a6.44,6.44,0,0,1-2.25,4.91,5.72,5.72,0,0,1-2.53,1.24,9.63,9.63,0,0,1-1.43.17h-4.08a7.61,7.61,0,0,0,2.18-1.53l.09-.09.42-.46a12.31,12.31,0,0,0,2.4-.14,3.74,3.74,0,0,0,1.6-.78,4.36,4.36,0,0,0,1.5-3.32,4,4,0,0,0-3.82-4.18h-1.24l-.22-.37a7.62,7.62,0,0,0-1.49-1.72h2.95A6.11,6.11,0,0,1,294.72,481Z" transform="translate(-44.34 -63.24)"/><path class="cls-2" d="M294.19,503.61h-.71a5.73,5.73,0,0,1-5.22-3.72l0,0-3.81-11.32,2.22,0,3.58,10.59a3.65,3.65,0,0,0,3.29,2.36Z" transform="translate(-44.34 -63.24)"/><path class="cls-2" d="M267,475.7l-.69-2.09h13.88a6.87,6.87,0,0,1,3.45.92l.35.22.35.25a6.87,6.87,0,0,1,1.7,1.86l.2.34a3.91,3.91,0,0,1,.18.35,6.82,6.82,0,0,1,.67,2.95,6.66,6.66,0,0,1-1.41,4.1,3.07,3.07,0,0,1-.28.35c-.1.12-.21.24-.32.35l-.06.06a7,7,0,0,1-4.46,2h-5l-.14-.38-.59-1.71h5.42a4.28,4.28,0,0,0,1.67-.35,6.24,6.24,0,0,0,.68-.35,4.92,4.92,0,0,0,.92-.73,4.7,4.7,0,0,0,.43-6.32,3.9,3.9,0,0,0-.33-.38,4.8,4.8,0,0,0-3.45-1.47H267" transform="translate(-44.34 -63.24)"/><path class="cls-2" d="M272.59,485.92l-3-9h-2.2l3.22,9.7q.18.56.39,1.14c1.26,3.67,2.69,7.84.34,10.94a7,7,0,0,1-12.59-4.21,7.12,7.12,0,0,1,7.07-7.05h2.6l-.71-2.11h-1.89a9.22,9.22,0,0,0-9.17,9.15A9.1,9.1,0,0,0,273,499.93c3-4,1.32-8.93,0-12.89Z" transform="translate(-44.34 -63.24)"/><path class="cls-3" d="M240.76,511.9a2.08,2.08,0,0,1-.31,1.33,1.36,1.36,0,0,1-1.17.59,1.48,1.48,0,0,1-1-.49l.65-.75a.51.51,0,0,0,.4.34c.5,0,.44-.85.44-1.19v-3.29h1Z" transform="translate(-44.34 -63.24)"/><path class="cls-3" d="M244.81,512a1.8,1.8,0,1,1-1.8-1.83A1.73,1.73,0,0,1,244.81,512Zm-2.6,0a.82.82,0,1,0,.8-1A.88.88,0,0,0,242.21,512Z" transform="translate(-44.34 -63.24)"/><path class="cls-3" d="M246.24,510.58h0a1,1,0,0,1,.89-.43c.92,0,1.18.65,1.18,1.45v2.08h-1v-1.81c0-.41,0-.94-.53-.94s-.59.65-.59,1.06v1.69h-1v-3.41h1Z" transform="translate(-44.34 -63.24)"/><path class="cls-3" d="M252.25,513.48c0,1.11-.38,2-1.66,2a1.61,1.61,0,0,1-1.73-1.42h1a.66.66,0,0,0,.68.6c.69,0,.7-.61.7-1.12v-.23h0a1.19,1.19,0,0,1-.94.46,1.63,1.63,0,0,1-1.54-1.8,1.7,1.7,0,0,1,1.59-1.85,1.17,1.17,0,0,1,.89.44h0v-.32h1Zm-.86-1.5a.82.82,0,1,0-1.62,0,.82.82,0,1,0,1.62,0Z" transform="translate(-44.34 -63.24)"/><path class="cls-3" d="M253.73,512.13c0,.43.16.92.67.92a.72.72,0,0,0,.66-.47l.9.15a1.59,1.59,0,0,1-1.56,1.07,1.83,1.83,0,0,1-.05-3.65c1.12,0,1.63.83,1.63,1.86v.12Zm1.33-.6a.71.71,0,0,0-.65-.69.69.69,0,0,0-.65.69Z" transform="translate(-44.34 -63.24)"/><path class="cls-3" d="M262,513.68h-1.24l-1.28-2.11h0v2.11h-1v-5.24h1.38c1,0,1.76.45,1.76,1.58a1.39,1.39,0,0,1-1.08,1.45Zm-2.53-2.83h.13c.57,0,1-.17,1-.81s-.41-.77-.95-.77h-.14Z" transform="translate(-44.34 -63.24)"/><path class="cls-3" d="M263.11,512.13c0,.43.17.92.68.92a.7.7,0,0,0,.65-.47l.9.15a1.59,1.59,0,0,1-1.55,1.07,1.83,1.83,0,0,1-.05-3.65c1.12,0,1.62.83,1.62,1.86v.12Zm1.33-.6a.71.71,0,0,0-.65-.69c-.39,0-.6.33-.65.69Z" transform="translate(-44.34 -63.24)"/><path class="cls-3" d="M266.79,510.58h0a1,1,0,0,1,.89-.43c.92,0,1.18.65,1.18,1.45v2.08h-1v-1.81c0-.41,0-.94-.53-.94s-.58.65-.58,1.06v1.69h-1v-3.41h1Z" transform="translate(-44.34 -63.24)"/><path class="cls-3" d="M270.54,510.58h0a1,1,0,0,1,.89-.43c.92,0,1.18.65,1.18,1.45v2.08h-1v-1.81c0-.41,0-.94-.53-.94s-.59.65-.59,1.06v1.69h-1v-3.41h1Z" transform="translate(-44.34 -63.24)"/><path class="cls-3" d="M274.12,512.13c0,.43.16.92.67.92a.7.7,0,0,0,.65-.47l.9.15a1.57,1.57,0,0,1-1.55,1.07,1.83,1.83,0,0,1-.05-3.65c1.12,0,1.62.83,1.62,1.86v.12Zm1.32-.6a.65.65,0,1,0-1.3,0Z" transform="translate(-44.34 -63.24)"/><path class="cls-3" d="M277.79,510.62h0a1,1,0,0,1,.85-.47,1.16,1.16,0,0,1,.41.09l-.12.9a.72.72,0,0,0-.4-.12c-.68,0-.75.6-.75,1.13v1.53h-1v-3.41h1Z" transform="translate(-44.34 -63.24)"/><path class="cls-3" d="M281.12,511.07a.76.76,0,0,0-.51-.23.31.31,0,0,0-.32.29c0,.25.35.32.7.47a1,1,0,0,1,.71,1,1.24,1.24,0,0,1-1.33,1.22,1.59,1.59,0,0,1-1.21-.57l.45-.58a1,1,0,0,0,.72.39.36.36,0,0,0,.39-.36c0-.3-.34-.37-.68-.52a.92.92,0,0,1-.68-.9,1.05,1.05,0,0,1,1.08-1.11,1.81,1.81,0,0,1,1.1.36Z" transform="translate(-44.34 -63.24)"/><path class="cls-3" d="M287.81,513.68h-1.24l-1.27-2.11h0v2.11h-1v-5.24h1.39c1,0,1.75.45,1.75,1.58a1.39,1.39,0,0,1-1.07,1.45Zm-2.52-2.83h.13c.56,0,1-.17,1-.81s-.41-.77-.95-.77h-.14Z" transform="translate(-44.34 -63.24)"/><path class="cls-3" d="M291.48,512a1.8,1.8,0,1,1-1.8-1.83A1.73,1.73,0,0,1,291.48,512Zm-2.61,0a.82.82,0,1,0,.81-1A.89.89,0,0,0,288.87,512Z" transform="translate(-44.34 -63.24)"/><path class="cls-3" d="M292.72,512.13c0,.43.17.92.68.92a.7.7,0,0,0,.65-.47l.9.15a1.59,1.59,0,0,1-1.55,1.07,1.83,1.83,0,0,1,0-3.65c1.12,0,1.62.83,1.62,1.86v.12Zm1.33-.6a.71.71,0,0,0-.65-.69c-.39,0-.6.33-.65.69Z" transform="translate(-44.34 -63.24)"/><path class="cls-3" d="M297.18,511.07a.78.78,0,0,0-.52-.23.31.31,0,0,0-.32.29c0,.25.36.32.7.47a1,1,0,0,1,.71,1,1.24,1.24,0,0,1-1.33,1.22,1.59,1.59,0,0,1-1.21-.57l.45-.58a1,1,0,0,0,.72.39.36.36,0,0,0,.39-.36c0-.3-.34-.37-.68-.52a.92.92,0,0,1-.68-.9,1.05,1.05,0,0,1,1.08-1.11,1.79,1.79,0,0,1,1.1.36Z" transform="translate(-44.34 -63.24)"/><path class="cls-3" d="M299.06,512.13c0,.43.17.92.68.92a.7.7,0,0,0,.65-.47l.9.15a1.59,1.59,0,0,1-1.55,1.07,1.83,1.83,0,0,1-.05-3.65c1.12,0,1.62.83,1.62,1.86v.12Zm1.33-.6a.71.71,0,0,0-.65-.69c-.39,0-.6.33-.65.69Z" transform="translate(-44.34 -63.24)"/><path class="cls-3" d="M302.74,513.68h-1v-5.9h1Z" transform="translate(-44.34 -63.24)"/><path class="cls-3" d="M306.66,513.68h-1v-.31h0a1.19,1.19,0,0,1-.92.43,1.69,1.69,0,0,1-1.58-1.84,1.67,1.67,0,0,1,1.56-1.81,1.28,1.28,0,0,1,1,.44v-.32h1Zm-.87-1.71a.82.82,0,1,0-1.62,0,.82.82,0,1,0,1.62,0Z" transform="translate(-44.34 -63.24)"/><path class="cls-3" d="M308.33,510.62h0a1,1,0,0,1,.85-.47,1.06,1.06,0,0,1,.4.09l-.12.9a.72.72,0,0,0-.4-.12c-.68,0-.75.6-.75,1.13v1.53h-1v-3.41h1Z" transform="translate(-44.34 -63.24)"/><path class="cls-3" d="M310.7,512.13c0,.43.17.92.68.92a.7.7,0,0,0,.65-.47l.9.15a1.59,1.59,0,0,1-1.55,1.07,1.83,1.83,0,0,1-.05-3.65c1.12,0,1.62.83,1.62,1.86v.12Zm1.33-.6a.71.71,0,0,0-.65-.69c-.39,0-.6.33-.65.69Z" transform="translate(-44.34 -63.24)"/><path class="cls-3" d="M250.16,520.64l.42-1.16h.64l-.94,2.09H250l-.94-2.09h.64Z" transform="translate(-44.34 -63.24)"/><path class="cls-3" d="M253.09,521v.49h-1.94l1-1.56h-.88v-.49h1.85l-1,1.56Z" transform="translate(-44.34 -63.24)"/><path class="cls-3" d="M254.15,520.66l.5-1.25h.28l.5,1.27.44-1.2h.63l-.95,2.09h-.3l-.43-1.25-.49,1.25H254l-.95-2.09h.64Z" transform="translate(-44.34 -63.24)"/><path class="cls-3" d="M259.24,520.1a.6.6,0,0,0-.43-.2.56.56,0,0,0-.52.61.54.54,0,0,0,.54.59.59.59,0,0,0,.41-.19v.56a1,1,0,0,1-.51.13,1,1,0,0,1-1-1.09,1.06,1.06,0,0,1,1.06-1.1.89.89,0,0,1,.48.13Z" transform="translate(-44.34 -63.24)"/><path class="cls-3" d="M259.32,519.48H260l.49,1.16.53-1.16h.65l-1.49,3.14h-.64l.67-1.4Z" transform="translate(-44.34 -63.24)"/><path class="cls-3" d="M263.17,520.1a.6.6,0,0,0-.43-.2.56.56,0,0,0-.52.61.54.54,0,0,0,.54.59.59.59,0,0,0,.41-.19v.56a1,1,0,0,1-.51.13,1,1,0,0,1-1-1.09,1.06,1.06,0,0,1,1.06-1.1.89.89,0,0,1,.48.13Z" transform="translate(-44.34 -63.24)"/><path class="cls-3" d="M264.12,521.53h-.59V518h.59Z" transform="translate(-44.34 -63.24)"/><path class="cls-3" d="M265.2,518.62a.35.35,0,0,1-.35.35.35.35,0,0,1,0-.7A.35.35,0,0,1,265.2,518.62Zm-.06,2.91h-.58v-2h.58Z" transform="translate(-44.34 -63.24)"/><path class="cls-3" d="M266.17,519.67h0a.61.61,0,0,1,.54-.26c.55,0,.7.39.7.87v1.25h-.58v-1.09c0-.24,0-.56-.32-.56s-.35.39-.35.63v1h-.58v-2h.58Z" transform="translate(-44.34 -63.24)"/><path class="cls-3" d="M269.77,521.4c0,.67-.22,1.22-1,1.22a1,1,0,0,1-1-.85h.62a.39.39,0,0,0,.41.36c.41,0,.42-.36.42-.67v-.14h0a.72.72,0,0,1-.56.28,1,1,0,0,1-.92-1.08,1,1,0,0,1,.95-1.11.69.69,0,0,1,.53.27h0v-.2h.58Zm-.51-.89a.55.55,0,0,0-.49-.58.58.58,0,1,0,.49.58Z" transform="translate(-44.34 -63.24)"/><path class="cls-3" d="M272.05,521.53h-.58V520h-.2v-.49h.2v-.69h.58v.69h.36V520h-.36Z" transform="translate(-44.34 -63.24)"/><path class="cls-3" d="M273,520.6c0,.26.1.55.41.55a.43.43,0,0,0,.39-.28l.54.09a.94.94,0,0,1-.93.64,1.1,1.1,0,0,1,0-2.19c.67,0,1,.5,1,1.12v.07Zm.8-.37a.43.43,0,0,0-.39-.41.42.42,0,0,0-.39.41Z" transform="translate(-44.34 -63.24)"/><path class="cls-3" d="M276.57,521.53H276v-.19h0a.74.74,0,0,1-.56.26,1,1,0,0,1-.94-1.11,1,1,0,0,1,.93-1.08.73.73,0,0,1,.57.26v-.19h.58Zm-.52-1a.49.49,0,1,0-.49.58A.54.54,0,0,0,276.05,520.5Z" transform="translate(-44.34 -63.24)"/><path class="cls-3" d="M277.58,519.66h0a.62.62,0,0,1,.5-.25.68.68,0,0,1,.59.32.69.69,0,0,1,.59-.32c.52,0,.65.39.65.84v1.28h-.58v-1.08c0-.2,0-.57-.28-.57s-.31.43-.31.64v1h-.58v-1c0-.2,0-.61-.28-.61s-.31.43-.31.64v1H277v-2h.59Z" transform="translate(-44.34 -63.24)"/><path class="cls-3" d="M282.18,521h.87v.54h-1.48v-3.15h.61Z" transform="translate(-44.34 -63.24)"/><path class="cls-3" d="M283.8,519.48v1.11c0,.23,0,.51.33.51s.34-.28.34-.51v-1.11h.58v1.21a.92.92,0,0,1-1.83,0v-1.21Z" transform="translate(-44.34 -63.24)"/><path class="cls-3" d="M286.86,520.1a.6.6,0,0,0-.43-.2.56.56,0,0,0-.52.61.54.54,0,0,0,.54.59.59.59,0,0,0,.41-.19v.56a1,1,0,0,1-.51.13,1.1,1.1,0,0,1,0-2.19.91.91,0,0,1,.48.13Z" transform="translate(-44.34 -63.24)"/><path class="cls-3" d="M289.44,520.53h0l.62-2.19h.37l.65,2.19h0l.61-2.15h.65l-1.07,3.21h-.45l-.62-2.06h0l-.6,2.06h-.45l-1-3.21h.64Z" transform="translate(-44.34 -63.24)"/><path class="cls-3" d="M294.2,521.53h-.58v-.19h0a.71.71,0,0,1-.55.26,1,1,0,0,1-.95-1.11,1,1,0,0,1,.94-1.08.75.75,0,0,1,.57.26v-.19h.58Zm-.52-1a.5.5,0,1,0-.49.58A.54.54,0,0,0,293.68,520.5Z" transform="translate(-44.34 -63.24)"/><path class="cls-3" d="M295.2,521.53h-.58V518h.58Z" transform="translate(-44.34 -63.24)"/><path class="cls-3" d="M296.2,521.53h-.58V518h.58Z" transform="translate(-44.34 -63.24)"/><path class="cls-3" d="M298.55,521.53H298v-.19h0a.74.74,0,0,1-.56.26,1,1,0,0,1-.94-1.11,1,1,0,0,1,.93-1.08.77.77,0,0,1,.58.26v-.19h.57Zm-.52-1a.49.49,0,1,0-.49.58A.54.54,0,0,0,298,520.5Z" transform="translate(-44.34 -63.24)"/><path class="cls-3" d="M298.69,519.48h.66l.49,1.16.53-1.16H301l-1.49,3.14h-.64l.67-1.4Z" transform="translate(-44.34 -63.24)"/><path class="cls-3" d="M302.2,520a.47.47,0,0,0-.31-.14.19.19,0,0,0-.19.18c0,.15.21.19.42.28a.59.59,0,0,1,.42.59.74.74,0,0,1-.8.73.94.94,0,0,1-.72-.35l.27-.34a.62.62,0,0,0,.43.23.22.22,0,0,0,.24-.22c0-.18-.21-.22-.41-.31a.53.53,0,0,1-.41-.53.63.63,0,0,1,.65-.67,1.1,1.1,0,0,1,.66.21Z" transform="translate(-44.34 -63.24)"/><path class="cls-5" d="M356,350.6" transform="translate(-44.34 -63.24)"/><path class="cls-5" d="M354.19,350.6" transform="translate(-44.34 -63.24)"/><path class="cls-2" d="M349.51,351.52" transform="translate(-44.34 -63.24)"/><path class="cls-2" d="M348.66,349.33" transform="translate(-44.34 -63.24)"/><path class="cls-2" d="M356.87,350" transform="translate(-44.34 -63.24)"/><path class="cls-2" d="M363.13,361" transform="translate(-44.34 -63.24)"/><path class="cls-2" d="M363.38,361.82h-.5a4.16,4.16,0,0,1-3.8-2.68v0l-2.8-8.2,1.61,0,2.63,7.67a2.65,2.65,0,0,0,2.39,1.71Z" transform="translate(-44.34 -63.24)"/><path class="cls-2" d="M369.87,345.43a4.68,4.68,0,0,1-1.63,3.56,4.19,4.19,0,0,1-1.83.9,6,6,0,0,1-1,.12h-3a5.73,5.73,0,0,0,1.59-1.1.46.46,0,0,1,.07-.07l.3-.34a8.89,8.89,0,0,0,1.74-.09,2.65,2.65,0,0,0,1.16-.58,3.16,3.16,0,0,0,1.09-2.4,2.91,2.91,0,0,0-2.77-3h-.9l-.17-.26a5.59,5.59,0,0,0-1.07-1.26h2.14A4.44,4.44,0,0,1,369.87,345.43Z" transform="translate(-44.34 -63.24)"/><path class="cls-2" d="M369.49,361.82H369a4.14,4.14,0,0,1-3.79-2.7l0,0-2.77-8.21,1.62,0,2.59,7.69a2.66,2.66,0,0,0,2.39,1.71Z" transform="translate(-44.34 -63.24)"/><path class="cls-2" d="M349.74,341.56l-.5-1.52h10.07a5,5,0,0,1,2.51.67l.25.16a2.27,2.27,0,0,1,.25.18,5,5,0,0,1,1.24,1.35l.15.25.13.25a5,5,0,0,1,.48,2.14,4.91,4.91,0,0,1-1,3,2.43,2.43,0,0,1-.2.25l-.24.26,0,0a5,5,0,0,1-3.24,1.47H356l-.09-.27-.43-1.24h3.93a3,3,0,0,0,1.21-.25,3.33,3.33,0,0,0,.5-.25,4.22,4.22,0,0,0,.67-.53A3.47,3.47,0,0,0,362.8,345a3.51,3.51,0,0,0-.74-2.14l-.24-.28a3.5,3.5,0,0,0-2.51-1.06h-9.57" transform="translate(-44.34 -63.24)"/><path class="cls-2" d="M353.81,349l-2.18-6.55H350l2.34,7c.09.27.18.55.28.83.91,2.67,2,5.69.25,8a5.14,5.14,0,0,1-4.06,2,5.09,5.09,0,0,1-5.08-5.08,5.16,5.16,0,0,1,5.13-5.12h1.89l-.52-1.53h-1.37a6.69,6.69,0,0,0-6.66,6.65,6.61,6.61,0,0,0,11.88,4c2.19-2.9,1-6.48,0-9.35C354,349.51,353.9,349.24,353.81,349Z" transform="translate(-44.34 -63.24)"/><path class="cls-3" d="M330.71,367.84a1.5,1.5,0,0,1-.23,1,1,1,0,0,1-.85.43,1.09,1.09,0,0,1-.75-.36l.48-.54a.35.35,0,0,0,.29.24c.36,0,.31-.61.31-.86v-2.39h.75Z" transform="translate(-44.34 -63.24)"/><path class="cls-3" d="M333.65,367.89a1.31,1.31,0,1,1-1.31-1.32A1.26,1.26,0,0,1,333.65,367.89Zm-1.89,0a.59.59,0,1,0,1.17,0,.59.59,0,1,0-1.17,0Z" transform="translate(-44.34 -63.24)"/><path class="cls-3" d="M334.69,366.88h0a.72.72,0,0,1,.65-.31c.66,0,.85.47.85,1v1.52h-.7v-1.31c0-.3,0-.69-.39-.69s-.42.47-.42.77v1.23H334v-2.48h.71Z" transform="translate(-44.34 -63.24)"/><path class="cls-3" d="M339,369c0,.81-.27,1.47-1.2,1.47a1.15,1.15,0,0,1-1.25-1h.75a.47.47,0,0,0,.49.44c.5,0,.51-.44.51-.82v-.16h0a.89.89,0,0,1-.68.33,1.18,1.18,0,0,1-1.12-1.3,1.22,1.22,0,0,1,1.15-1.34.82.82,0,0,1,.65.32h0v-.24h.7Zm-.62-1.09a.59.59,0,1,0-1.17,0,.59.59,0,1,0,1.17,0Z" transform="translate(-44.34 -63.24)"/><path class="cls-3" d="M340.12,368c0,.32.12.67.49.67a.51.51,0,0,0,.47-.34l.66.11a1.15,1.15,0,0,1-1.13.77,1.32,1.32,0,0,1,0-2.64c.82,0,1.18.6,1.18,1.35V368Zm1-.44a.51.51,0,0,0-.47-.5c-.28,0-.43.25-.47.5Z" transform="translate(-44.34 -63.24)"/><path class="cls-3" d="M346.14,369.13h-.9l-.93-1.54h0v1.54h-.74v-3.81h1c.75,0,1.27.33,1.27,1.15a1,1,0,0,1-.78,1Zm-1.84-2.06h.1c.41,0,.7-.12.7-.58s-.3-.56-.7-.56h-.1Z" transform="translate(-44.34 -63.24)"/><path class="cls-3" d="M346.93,368c0,.32.12.67.49.67a.53.53,0,0,0,.48-.34l.65.11a1.15,1.15,0,0,1-1.13.77,1.32,1.32,0,0,1,0-2.64c.81,0,1.17.6,1.17,1.35V368Zm1-.44a.53.53,0,0,0-.47-.5.52.52,0,0,0-.48.5Z" transform="translate(-44.34 -63.24)"/><path class="cls-3" d="M349.6,366.88h0a.72.72,0,0,1,.65-.31c.66,0,.85.47.85,1v1.52h-.7v-1.31c0-.3,0-.69-.39-.69s-.42.47-.42.77v1.23h-.71v-2.48h.71Z" transform="translate(-44.34 -63.24)"/><path class="cls-3" d="M352.33,366.88h0a.71.71,0,0,1,.64-.31c.67,0,.86.47.86,1v1.52h-.71v-1.31c0-.3,0-.69-.38-.69s-.42.47-.42.77v1.23h-.71v-2.48h.71Z" transform="translate(-44.34 -63.24)"/><path class="cls-3" d="M354.92,368c0,.32.12.67.49.67a.51.51,0,0,0,.47-.34l.66.11a1.16,1.16,0,0,1-1.13.77,1.32,1.32,0,0,1,0-2.64c.82,0,1.18.6,1.18,1.35V368Zm1-.44a.47.47,0,1,0-.94,0Z" transform="translate(-44.34 -63.24)"/><path class="cls-3" d="M357.59,366.91h0a.7.7,0,0,1,.61-.34.8.8,0,0,1,.3.06l-.09.66a.46.46,0,0,0-.29-.1c-.49,0-.54.44-.54.82v1.12h-.71v-2.48h.71Z" transform="translate(-44.34 -63.24)"/><path class="cls-3" d="M360,367.24a.57.57,0,0,0-.38-.18.23.23,0,0,0-.23.22c0,.18.26.23.51.34a.71.71,0,0,1,.51.71.89.89,0,0,1-1,.88,1.15,1.15,0,0,1-.88-.41l.32-.42a.77.77,0,0,0,.53.29.27.27,0,0,0,.28-.27c0-.22-.24-.27-.49-.38a.66.66,0,0,1-.5-.65.77.77,0,0,1,.79-.8,1.28,1.28,0,0,1,.8.26Z" transform="translate(-44.34 -63.24)"/><path class="cls-3" d="M364.86,369.13H364l-.92-1.54h0v1.54h-.75v-3.81h1c.75,0,1.27.33,1.27,1.15a1,1,0,0,1-.77,1ZM363,367.07h.09c.41,0,.7-.12.7-.58s-.3-.56-.69-.56H363Z" transform="translate(-44.34 -63.24)"/><path class="cls-3" d="M367.52,367.89a1.31,1.31,0,1,1-1.3-1.32A1.25,1.25,0,0,1,367.52,367.89Zm-1.89,0a.59.59,0,1,0,1.17,0,.59.59,0,1,0-1.17,0Z" transform="translate(-44.34 -63.24)"/><path class="cls-3" d="M368.42,368c0,.32.12.67.49.67a.52.52,0,0,0,.48-.34l.65.11a1.15,1.15,0,0,1-1.13.77,1.32,1.32,0,0,1,0-2.64c.81,0,1.18.6,1.18,1.35V368Zm1-.44a.48.48,0,1,0-.95,0Z" transform="translate(-44.34 -63.24)"/><path class="cls-3" d="M371.66,367.24a.57.57,0,0,0-.38-.18.23.23,0,0,0-.23.22c0,.18.26.23.51.34a.71.71,0,0,1,.51.71.89.89,0,0,1-1,.88,1.15,1.15,0,0,1-.88-.41l.33-.42a.73.73,0,0,0,.52.29.27.27,0,0,0,.28-.27c0-.22-.24-.27-.49-.38a.66.66,0,0,1-.5-.65.77.77,0,0,1,.79-.8,1.28,1.28,0,0,1,.8.26Z" transform="translate(-44.34 -63.24)"/><path class="cls-3" d="M373,368c0,.32.12.67.49.67a.51.51,0,0,0,.47-.34l.65.11a1.14,1.14,0,0,1-1.12.77,1.32,1.32,0,0,1,0-2.64c.81,0,1.18.6,1.18,1.35V368Zm1-.44a.52.52,0,0,0-.47-.5.51.51,0,0,0-.47.5Z" transform="translate(-44.34 -63.24)"/><path class="cls-3" d="M375.69,369.13H375v-4.29h.7Z" transform="translate(-44.34 -63.24)"/><path class="cls-3" d="M378.54,369.13h-.7v-.23h0a.84.84,0,0,1-.67.31,1.34,1.34,0,0,1,0-2.64.91.91,0,0,1,.69.31v-.23h.7Zm-.63-1.24a.6.6,0,1,0-.59.69A.66.66,0,0,0,377.91,367.89Z" transform="translate(-44.34 -63.24)"/><path class="cls-3" d="M379.76,366.91h0a.7.7,0,0,1,.61-.34.8.8,0,0,1,.3.06l-.09.66a.46.46,0,0,0-.29-.1c-.49,0-.54.44-.54.82v1.12h-.71v-2.48h.71Z" transform="translate(-44.34 -63.24)"/><path class="cls-3" d="M381.47,368c0,.32.13.67.49.67a.52.52,0,0,0,.48-.34l.65.11a1.15,1.15,0,0,1-1.13.77,1.32,1.32,0,0,1,0-2.64c.81,0,1.18.6,1.18,1.35V368Zm1-.44a.48.48,0,1,0-.95,0Z" transform="translate(-44.34 -63.24)"/><path class="cls-3" d="M337.53,374.18l.31-.84h.46l-.68,1.51h-.22l-.68-1.51h.46Z" transform="translate(-44.34 -63.24)"/><path class="cls-3" d="M339.66,374.47v.35h-1.41l.76-1.13h-.65v-.35h1.35l-.76,1.13Z" transform="translate(-44.34 -63.24)"/><path class="cls-3" d="M340.43,374.19l.36-.9h.2l.37.92.31-.87h.46l-.69,1.51h-.21l-.32-.9-.35.9h-.22l-.69-1.51h.47Z" transform="translate(-44.34 -63.24)"/><path class="cls-3" d="M344.12,373.79a.39.39,0,0,0-.69.3.39.39,0,0,0,.69.28v.41a.78.78,0,0,1-.37.09.76.76,0,0,1-.75-.79.77.77,0,0,1,.78-.79.69.69,0,0,1,.34.09Z" transform="translate(-44.34 -63.24)"/><path class="cls-3" d="M344.18,373.34h.48l.35.84.39-.84h.47l-1.08,2.28h-.47l.49-1Z" transform="translate(-44.34 -63.24)"/><path class="cls-3" d="M347,373.79a.42.42,0,0,0-.31-.15.41.41,0,0,0-.37.45.39.39,0,0,0,.39.42.37.37,0,0,0,.29-.14v.41a.74.74,0,0,1-.36.09.79.79,0,0,1,0-1.58.67.67,0,0,1,.34.09Z" transform="translate(-44.34 -63.24)"/><path class="cls-3" d="M347.66,374.82h-.42v-2.57h.42Z" transform="translate(-44.34 -63.24)"/><path class="cls-3" d="M348.45,372.71a.26.26,0,0,1-.51,0,.26.26,0,0,1,.51,0Zm0,2.11H348v-1.48h.43Z" transform="translate(-44.34 -63.24)"/><path class="cls-3" d="M349.15,373.47h0a.46.46,0,0,1,.39-.18c.4,0,.51.28.51.62v.91h-.42V374c0-.18,0-.41-.23-.41s-.26.28-.26.46v.73h-.42v-1.48h.42Z" transform="translate(-44.34 -63.24)"/><path class="cls-3" d="M351.77,374.73c0,.49-.17.89-.73.89a.7.7,0,0,1-.75-.62h.45a.28.28,0,0,0,.3.26c.3,0,.3-.26.3-.49v-.09h0a.53.53,0,0,1-.41.19.7.7,0,0,1-.67-.78.73.73,0,0,1,.69-.8.49.49,0,0,1,.39.19h0v-.14h.43Zm-.38-.65a.36.36,0,1,0-.35.42A.39.39,0,0,0,351.39,374.08Z" transform="translate(-44.34 -63.24)"/><path class="cls-3" d="M353.42,374.82H353v-1.13h-.15v-.35H353v-.51h.42v.51h.26v.35h-.26Z" transform="translate(-44.34 -63.24)"/><path class="cls-3" d="M354.12,374.15c0,.19.07.4.29.4a.32.32,0,0,0,.29-.21l.39.07a.68.68,0,0,1-.68.46.72.72,0,0,1-.74-.78.71.71,0,0,1,.72-.8c.49,0,.71.36.71.81v0Zm.58-.27a.29.29,0,1,0-.57,0Z" transform="translate(-44.34 -63.24)"/><path class="cls-3" d="M356.7,374.82h-.42v-.13h0a.51.51,0,0,1-.41.18.8.8,0,0,1,0-1.58.52.52,0,0,1,.41.19v-.14h.42Zm-.37-.74a.4.4,0,0,0-.36-.42.43.43,0,0,0,0,.84A.4.4,0,0,0,356.33,374.08Z" transform="translate(-44.34 -63.24)"/><path class="cls-3" d="M357.43,373.47h0a.44.44,0,0,1,.36-.18.47.47,0,0,1,.43.23.52.52,0,0,1,.43-.23c.38,0,.47.28.47.61v.92h-.42V374c0-.14,0-.41-.2-.41s-.23.31-.23.46v.73h-.42v-.75c0-.15,0-.44-.2-.44s-.23.31-.23.46v.73H357v-1.48h.42Z" transform="translate(-44.34 -63.24)"/><path class="cls-3" d="M360.77,374.44h.63v.38h-1.07v-2.28h.44Z" transform="translate(-44.34 -63.24)"/><path class="cls-3" d="M362,373.34v.8c0,.17,0,.37.24.37s.24-.2.24-.37v-.8h.43v.87a.67.67,0,0,1-1.34,0v-.87Z" transform="translate(-44.34 -63.24)"/><path class="cls-3" d="M364.17,373.79a.39.39,0,0,0-.69.3.39.39,0,0,0,.69.28v.41a.81.81,0,0,1-.37.09.79.79,0,0,1,0-1.58.73.73,0,0,1,.35.09Z" transform="translate(-44.34 -63.24)"/><path class="cls-3" d="M366,374.1h0l.45-1.59h.27l.47,1.59h0l.45-1.56h.47l-.77,2.33h-.33l-.46-1.49h0l-.43,1.49h-.33l-.73-2.33h.47Z" transform="translate(-44.34 -63.24)"/><path class="cls-3" d="M369.49,374.82h-.41v-.13h0a.5.5,0,0,1-.4.18.73.73,0,0,1-.69-.8.72.72,0,0,1,.68-.78.55.55,0,0,1,.42.19v-.14h.41Zm-.37-.74a.36.36,0,1,0-.36.42A.4.4,0,0,0,369.12,374.08Z" transform="translate(-44.34 -63.24)"/><path class="cls-3" d="M370.22,374.82h-.42v-2.57h.42Z" transform="translate(-44.34 -63.24)"/><path class="cls-3" d="M371,374.82h-.43v-2.57H371Z" transform="translate(-44.34 -63.24)"/><path class="cls-3" d="M372.66,374.82h-.42v-.13h0a.5.5,0,0,1-.4.18.73.73,0,0,1-.69-.8.72.72,0,0,1,.68-.78.54.54,0,0,1,.42.19v-.14h.42Zm-.38-.74a.36.36,0,1,0-.35.42A.4.4,0,0,0,372.28,374.08Z" transform="translate(-44.34 -63.24)"/><path class="cls-3" d="M372.76,373.34h.48l.35.84.38-.84h.48l-1.08,2.28h-.47l.49-1Z" transform="translate(-44.34 -63.24)"/><path class="cls-3" d="M375.3,373.69a.33.33,0,0,0-.22-.11.14.14,0,0,0-.14.13c0,.11.15.14.3.21a.42.42,0,0,1,.31.42.53.53,0,0,1-.58.53.67.67,0,0,1-.52-.25l.19-.25a.44.44,0,0,0,.32.17.16.16,0,0,0,.17-.16c0-.13-.15-.16-.3-.22a.39.39,0,0,1-.3-.39.46.46,0,0,1,.48-.48.8.8,0,0,1,.47.15Z" transform="translate(-44.34 -63.24)"/><path class="cls-6" d="M423,247.56" transform="translate(-44.34 -63.24)"/><path class="cls-6" d="M421.46,247.56" transform="translate(-44.34 -63.24)"/><path class="cls-2" d="M417.51,248.34" transform="translate(-44.34 -63.24)"/><path class="cls-2" d="M416.79,246.49" transform="translate(-44.34 -63.24)"/><path class="cls-2" d="M423.72,247.09" transform="translate(-44.34 -63.24)"/><path class="cls-2" d="M429,256.34" transform="translate(-44.34 -63.24)"/><path class="cls-2" d="M429.22,257h-.43a3.5,3.5,0,0,1-3.2-2.27v0l-2.37-6.92h1.37l2.21,6.48a2.23,2.23,0,0,0,2,1.44Z" transform="translate(-44.34 -63.24)"/><path class="cls-2" d="M434.7,243.2a4,4,0,0,1-1.38,3,3.58,3.58,0,0,1-1.55.76,6.23,6.23,0,0,1-.88.1h-2.5a4.74,4.74,0,0,0,1.34-.93l.06-.06.25-.29a7,7,0,0,0,1.47-.08,2.25,2.25,0,0,0,1-.48,2.65,2.65,0,0,0,.92-2,2.46,2.46,0,0,0-2.34-2.56h-.76l-.14-.23a4.78,4.78,0,0,0-.9-1.06h1.8A3.75,3.75,0,0,1,434.7,243.2Z" transform="translate(-44.34 -63.24)"/><path class="cls-2" d="M434.38,257h-.44a3.53,3.53,0,0,1-3.2-2.28v0l-2.34-6.93,1.37,0,2.18,6.49a2.25,2.25,0,0,0,2,1.45Z" transform="translate(-44.34 -63.24)"/><path class="cls-2" d="M417.7,239.93l-.42-1.28h8.5a4.25,4.25,0,0,1,2.12.57l.21.13.21.15a4.23,4.23,0,0,1,1.05,1.14l.12.21.11.22a4.2,4.2,0,0,1,.41,1.8,4.13,4.13,0,0,1-.86,2.52l-.17.21-.2.21a.08.08,0,0,1,0,0,4.21,4.21,0,0,1-2.73,1.24H423l-.09-.23-.36-1.05h3.32a2.59,2.59,0,0,0,1-.21,2.74,2.74,0,0,0,.42-.21,4,4,0,0,0,.57-.45,2.9,2.9,0,0,0,.26-3.87l-.2-.24a3,3,0,0,0-2.12-.9H417.7" transform="translate(-44.34 -63.24)"/><path class="cls-2" d="M421.14,246.19l-1.84-5.53h-1.36l2,5.94c.07.23.15.46.24.7.77,2.25,1.64,4.8.21,6.7a4.3,4.3,0,1,1-3.38-6.9h1.59l-.44-1.29H417a5.66,5.66,0,0,0-5.63,5.61,5.58,5.58,0,0,0,10,3.36c1.85-2.45.82-5.47,0-7.9C421.29,246.65,421.21,246.42,421.14,246.19Z" transform="translate(-44.34 -63.24)"/><path class="cls-3" d="M401.63,262.12a1.28,1.28,0,0,1-.18.81.86.86,0,0,1-.73.36.92.92,0,0,1-.63-.3l.4-.46a.33.33,0,0,0,.25.21c.3,0,.27-.52.27-.73v-2h.62Z" transform="translate(-44.34 -63.24)"/><path class="cls-3" d="M404.12,262.16a1.11,1.11,0,1,1-1.1-1.11A1.07,1.07,0,0,1,404.12,262.16Zm-1.6,0a.5.5,0,1,0,1,0,.5.5,0,1,0-1,0Z" transform="translate(-44.34 -63.24)"/><path class="cls-3" d="M405,261.31h0a.64.64,0,0,1,.55-.26c.56,0,.72.39.72.88v1.28h-.59V262.1c0-.25,0-.58-.33-.58s-.36.4-.36.65v1h-.59v-2.1H405Z" transform="translate(-44.34 -63.24)"/><path class="cls-3" d="M408.67,263.08c0,.68-.23,1.25-1,1.25a1,1,0,0,1-1.06-.87h.63a.4.4,0,0,0,.41.36c.43,0,.43-.37.43-.68V263h0a.74.74,0,0,1-.58.28,1,1,0,0,1-.94-1.1,1,1,0,0,1,1-1.13.71.71,0,0,1,.55.26h0v-.2h.6Zm-.52-.92a.56.56,0,0,0-.5-.59.6.6,0,0,0,0,1.18A.56.56,0,0,0,408.15,262.16Z" transform="translate(-44.34 -63.24)"/><path class="cls-3" d="M409.58,262.26c0,.26.1.56.41.56a.43.43,0,0,0,.4-.29l.56.09a1,1,0,0,1-1,.66,1,1,0,0,1-1-1.1,1,1,0,0,1,1-1.13c.69,0,1,.5,1,1.13v.08Zm.81-.37c0-.22-.16-.43-.39-.43s-.37.21-.4.43Z" transform="translate(-44.34 -63.24)"/><path class="cls-3" d="M414.66,263.21h-.76l-.78-1.3h0v1.3h-.63V260h.85c.64,0,1.08.28,1.08,1a.85.85,0,0,1-.66.89Zm-1.55-1.74h.08c.35,0,.59-.1.59-.49s-.25-.48-.58-.48h-.09Z" transform="translate(-44.34 -63.24)"/><path class="cls-3" d="M415.33,262.26c0,.26.1.56.41.56a.43.43,0,0,0,.4-.29l.55.09a1,1,0,0,1-.95.66,1,1,0,0,1-1-1.1,1,1,0,0,1,1-1.13c.69,0,1,.5,1,1.13v.08Zm.81-.37c0-.22-.16-.43-.39-.43s-.37.21-.4.43Z" transform="translate(-44.34 -63.24)"/><path class="cls-3" d="M417.58,261.31h0a.62.62,0,0,1,.55-.26c.56,0,.72.39.72.88v1.28h-.6V262.1c0-.25,0-.58-.32-.58s-.36.4-.36.65v1H417v-2.1h.6Z" transform="translate(-44.34 -63.24)"/><path class="cls-3" d="M419.88,261.31h0a.64.64,0,0,1,.55-.26c.56,0,.72.39.72.88v1.28h-.59V262.1c0-.25,0-.58-.33-.58s-.36.4-.36.65v1h-.59v-2.1h.59Z" transform="translate(-44.34 -63.24)"/><path class="cls-3" d="M422.07,262.26c0,.26.11.56.42.56a.44.44,0,0,0,.4-.29l.55.09a1,1,0,0,1-.95.66,1,1,0,0,1-1.05-1.1,1,1,0,0,1,1-1.13c.68,0,1,.5,1,1.13v.08Zm.82-.37a.44.44,0,0,0-.4-.43c-.24,0-.37.21-.4.43Z" transform="translate(-44.34 -63.24)"/><path class="cls-3" d="M424.33,261.33h0a.6.6,0,0,1,.52-.28.7.7,0,0,1,.25.05l-.07.55a.44.44,0,0,0-.25-.08c-.41,0-.45.37-.45.7v.94h-.6v-2.1h.6Z" transform="translate(-44.34 -63.24)"/><path class="cls-3" d="M426.37,261.61a.5.5,0,0,0-.32-.15.19.19,0,0,0-.19.18c0,.16.21.2.43.29a.62.62,0,0,1,.43.6.76.76,0,0,1-.82.75,1,1,0,0,1-.73-.35l.27-.36a.62.62,0,0,0,.44.25.23.23,0,0,0,.24-.23c0-.18-.21-.23-.42-.32a.56.56,0,0,1-.42-.55.65.65,0,0,1,.67-.67,1.07,1.07,0,0,1,.67.21Z" transform="translate(-44.34 -63.24)"/><path class="cls-3" d="M430.47,263.21h-.76l-.78-1.3h0v1.3h-.63V260h.85c.64,0,1.08.28,1.08,1a.85.85,0,0,1-.66.89Zm-1.55-1.74H429c.35,0,.59-.1.59-.49s-.25-.48-.59-.48h-.08Z" transform="translate(-44.34 -63.24)"/><path class="cls-3" d="M432.71,262.16a1.1,1.1,0,1,1-1.1-1.11A1.06,1.06,0,0,1,432.71,262.16Zm-1.59,0a.5.5,0,1,0,1,0,.5.5,0,1,0-1,0Z" transform="translate(-44.34 -63.24)"/><path class="cls-3" d="M433.47,262.26c0,.26.11.56.42.56a.44.44,0,0,0,.4-.29l.55.09a1,1,0,0,1-.95.66,1,1,0,0,1-1.05-1.1,1,1,0,0,1,1-1.13c.68,0,1,.5,1,1.13v.08Zm.82-.37a.44.44,0,0,0-.4-.43c-.24,0-.37.21-.4.43Z" transform="translate(-44.34 -63.24)"/><path class="cls-3" d="M436.2,261.61a.46.46,0,0,0-.31-.15.2.2,0,0,0-.2.18c0,.16.22.2.43.29a.61.61,0,0,1,.43.6.75.75,0,0,1-.81.75,1,1,0,0,1-.74-.35l.27-.36a.65.65,0,0,0,.45.25.23.23,0,0,0,.24-.23c0-.18-.21-.23-.42-.32a.56.56,0,0,1-.42-.55.64.64,0,0,1,.67-.67,1.07,1.07,0,0,1,.67.21Z" transform="translate(-44.34 -63.24)"/><path class="cls-3" d="M437.36,262.26c0,.26.1.56.41.56a.43.43,0,0,0,.4-.29l.55.09a1,1,0,0,1-1,.66,1.12,1.12,0,0,1,0-2.23c.69,0,1,.5,1,1.13v.08Zm.81-.37c0-.22-.16-.43-.39-.43s-.37.21-.4.43Z" transform="translate(-44.34 -63.24)"/><path class="cls-3" d="M439.61,263.21H439v-3.62h.6Z" transform="translate(-44.34 -63.24)"/><path class="cls-3" d="M442,263.21h-.59V263h0a.75.75,0,0,1-.57.26,1.13,1.13,0,0,1,0-2.23.75.75,0,0,1,.58.26v-.2H442Zm-.53-1a.5.5,0,1,0-.49.59A.56.56,0,0,0,441.48,262.16Z" transform="translate(-44.34 -63.24)"/><path class="cls-3" d="M443,261.33h0a.6.6,0,0,1,.52-.28.7.7,0,0,1,.25.05l-.08.55a.41.41,0,0,0-.24-.08c-.42,0-.46.37-.46.7v.94h-.6v-2.1h.6Z" transform="translate(-44.34 -63.24)"/><path class="cls-3" d="M444.49,262.26c0,.26.1.56.42.56a.44.44,0,0,0,.4-.29l.55.09a1,1,0,0,1-.95.66,1,1,0,0,1-1.05-1.1,1,1,0,0,1,1-1.13c.68,0,1,.5,1,1.13v.08Zm.82-.37a.44.44,0,0,0-.4-.43c-.24,0-.37.21-.4.43Z" transform="translate(-44.34 -63.24)"/><path class="cls-3" d="M407.39,267.47l.26-.71H408l-.57,1.28h-.19l-.57-1.28h.39Z" transform="translate(-44.34 -63.24)"/><path class="cls-3" d="M409.19,267.71v.3H408l.64-.95h-.54v-.3h1.13l-.64.95Z" transform="translate(-44.34 -63.24)"/><path class="cls-3" d="M409.84,267.48l.3-.76h.18l.31.77.26-.73h.39L410.7,268h-.18l-.27-.76-.3.76h-.19l-.57-1.28h.39Z" transform="translate(-44.34 -63.24)"/><path class="cls-3" d="M413,267.14a.4.4,0,0,0-.27-.12.34.34,0,0,0-.31.37.33.33,0,0,0,.33.36.33.33,0,0,0,.25-.12V268a.68.68,0,0,1-.31.08.67.67,0,0,1,0-1.34.51.51,0,0,1,.29.08Z" transform="translate(-44.34 -63.24)"/><path class="cls-3" d="M413,266.76h.4l.3.71.32-.71h.4l-.91,1.93h-.39l.41-.87Z" transform="translate(-44.34 -63.24)"/><path class="cls-3" d="M415.37,267.14a.4.4,0,0,0-.27-.12.35.35,0,0,0-.32.37.33.33,0,0,0,.59.24V268a.68.68,0,0,1-.31.08.67.67,0,0,1,0-1.34.54.54,0,0,1,.3.08Z" transform="translate(-44.34 -63.24)"/><path class="cls-3" d="M416,268h-.36v-2.16H416Z" transform="translate(-44.34 -63.24)"/><path class="cls-3" d="M416.61,266.23a.21.21,0,0,1-.21.21.21.21,0,0,1-.22-.21.22.22,0,0,1,.43,0Zm0,1.78h-.36v-1.25h.36Z" transform="translate(-44.34 -63.24)"/><path class="cls-3" d="M417.21,266.87h0a.39.39,0,0,1,.33-.15c.34,0,.43.24.43.53V268h-.35v-.66c0-.15,0-.35-.2-.35s-.21.24-.21.39V268h-.36v-1.25h.36Z" transform="translate(-44.34 -63.24)"/><path class="cls-3" d="M419.41,267.94c0,.41-.14.75-.61.75a.6.6,0,0,1-.63-.53h.38a.23.23,0,0,0,.24.22c.26,0,.26-.22.26-.41v-.08h0a.45.45,0,0,1-.34.17.6.6,0,0,1-.57-.66.62.62,0,0,1,.58-.68.41.41,0,0,1,.33.16h0v-.12h.36Zm-.31-.55a.3.3,0,1,0-.3.35A.33.33,0,0,0,419.1,267.39Z" transform="translate(-44.34 -63.24)"/><path class="cls-3" d="M420.81,268h-.36v-.95h-.12v-.3h.12v-.43h.36v.43H421v.3h-.22Z" transform="translate(-44.34 -63.24)"/><path class="cls-3" d="M421.4,267.44c0,.16.06.34.25.34a.27.27,0,0,0,.24-.17l.33.05a.58.58,0,0,1-.57.4.61.61,0,0,1-.63-.66.6.6,0,0,1,.61-.68c.41,0,.59.3.59.68v0Zm.49-.22a.24.24,0,1,0-.48,0Z" transform="translate(-44.34 -63.24)"/><path class="cls-3" d="M423.58,268h-.36v-.11h0a.44.44,0,0,1-.34.16.62.62,0,0,1-.58-.68.61.61,0,0,1,.57-.66.43.43,0,0,1,.35.16v-.12h.36Zm-.32-.62a.33.33,0,0,0-.3-.35.33.33,0,0,0-.3.35.34.34,0,0,0,.3.35A.33.33,0,0,0,423.26,267.39Z" transform="translate(-44.34 -63.24)"/><path class="cls-3" d="M424.19,266.87h0a.37.37,0,0,1,.31-.15.4.4,0,0,1,.36.19.42.42,0,0,1,.36-.19c.32,0,.4.24.4.51V268h-.36v-.66c0-.12,0-.35-.16-.35s-.2.27-.2.4V268h-.35v-.63c0-.12,0-.38-.18-.38s-.19.27-.19.4V268h-.35v-1.25h.35Z" transform="translate(-44.34 -63.24)"/><path class="cls-3" d="M427,267.69h.53V268h-.91v-1.92H427Z" transform="translate(-44.34 -63.24)"/><path class="cls-3" d="M428,266.76v.68c0,.14,0,.31.2.31s.21-.17.21-.31v-.68h.36v.74a.57.57,0,0,1-1.13,0v-.74Z" transform="translate(-44.34 -63.24)"/><path class="cls-3" d="M429.88,267.14a.37.37,0,0,0-.26-.12.35.35,0,0,0-.32.37.33.33,0,0,0,.33.36.3.3,0,0,0,.25-.12V268a.68.68,0,0,1-.31.08.67.67,0,0,1,0-1.34.51.51,0,0,1,.29.08Z" transform="translate(-44.34 -63.24)"/><path class="cls-3" d="M431.46,267.4h0l.38-1.34h.22l.4,1.34h0l.38-1.31h.39l-.65,2h-.28l-.38-1.26h0l-.36,1.26h-.28l-.61-2h.39Z" transform="translate(-44.34 -63.24)"/><path class="cls-3" d="M434.38,268H434v-.11h0a.44.44,0,0,1-.34.16.62.62,0,0,1-.58-.68.61.61,0,0,1,.57-.66.43.43,0,0,1,.35.16v-.12h.36Zm-.32-.62a.33.33,0,0,0-.3-.35.33.33,0,0,0-.3.35.34.34,0,0,0,.3.35A.33.33,0,0,0,434.06,267.39Z" transform="translate(-44.34 -63.24)"/><path class="cls-3" d="M435,268h-.35v-2.16H435Z" transform="translate(-44.34 -63.24)"/><path class="cls-3" d="M435.61,268h-.36v-2.16h.36Z" transform="translate(-44.34 -63.24)"/><path class="cls-3" d="M437.05,268h-.36v-.11h0a.44.44,0,0,1-.34.16.62.62,0,0,1-.58-.68.61.61,0,0,1,.57-.66.43.43,0,0,1,.35.16v-.12h.36Zm-.32-.62a.3.3,0,1,0-.6,0,.3.3,0,1,0,.6,0Z" transform="translate(-44.34 -63.24)"/><path class="cls-3" d="M437.13,266.76h.41l.3.71.32-.71h.4l-.91,1.93h-.4l.42-.87Z" transform="translate(-44.34 -63.24)"/><path class="cls-3" d="M439.28,267.06a.28.28,0,0,0-.19-.09.11.11,0,0,0-.12.11c0,.09.13.11.26.17a.37.37,0,0,1,.26.36.45.45,0,0,1-.49.45.58.58,0,0,1-.44-.21l.16-.22a.37.37,0,0,0,.27.15.13.13,0,0,0,.14-.14c0-.11-.12-.13-.25-.19a.33.33,0,0,1-.25-.33.38.38,0,0,1,.4-.4.64.64,0,0,1,.4.13Z" transform="translate(-44.34 -63.24)"/><path class="cls-3" d="M551.22,325.34H370.16V63.24H551.22Zm-179.48-1.59H549.63V64.82H371.74Z" transform="translate(-44.34 -63.24)"/><path class="cls-3" d="M551.22,428.77H292.89V63.24H551.22Zm-256.75-1.58H549.63V64.82H294.47Z" transform="translate(-44.34 -63.24)"/><path class="cls-3" d="M551.22,577.39H191.94V63.24H551.22Zm-357.7-1.59H549.63v-511H193.52Z" transform="translate(-44.34 -63.24)"/><path class="cls-3" d="M551.22,779.81H44.34V63.24H551.22Zm-505.3-1.58H549.63V64.82H45.92Z" transform="translate(-44.34 -63.24)"/><path class="cls-3" d="M136.51,103.75l-2.07,5.3h-5.16l9.79-25.77h3.8l9.52,25.77h-5.23l-1.93-5.3Zm4.22-13.12h-.06l-2.77,9.13h6Z" transform="translate(-44.34 -63.24)"/><path class="cls-3" d="M154.05,90.5c.43-4.33,3.2-7.22,7.69-7.22,4.33,0,7.23,2.76,7.23,7.09a6.21,6.21,0,0,1-2.4,5.22c2.3,1,3.23,3.83,3.23,6.13,0,4.93-3.56,8-8.36,8a8.22,8.22,0,0,1-8.32-7.92h4.93a3.59,3.59,0,0,0,3.59,3.66c2.2,0,3.36-2.06,3.36-4s-1.33-4.16-3.53-4l-.89.06V94h.53c2.1,0,3.2-1.37,3.2-3.47a3,3,0,0,0-2.87-3.19c-1.73,0-2.66,1.63-2.73,3.16Z" transform="translate(-44.34 -63.24)"/><path class="cls-3" d="M236.57,103.75l-2.07,5.3h-5.16l9.79-25.77h3.8l9.52,25.77h-5.23l-1.93-5.3Zm4.23-13.12h-.07L238,99.76h6Z" transform="translate(-44.34 -63.24)"/><path class="cls-3" d="M270.56,100.69v3.93H267.9v4.43h-4.6v-4.43H252.25v-2.2l11.18-19h4.47v17.22Zm-7.26-10h-.07l-5.29,10h5.36Z" transform="translate(-44.34 -63.24)"/><path class="cls-3" d="M323.3,103.75l-2.06,5.3h-5.16l9.79-25.77h3.79l9.53,25.77H334l-1.93-5.3Zm4.23-13.12h-.07l-2.76,9.13h6Z" transform="translate(-44.34 -63.24)"/><path class="cls-3" d="M348,88.2,347.17,92l1.27-.06c4.89,0,8.09,4,8.09,8.72,0,5.39-3.76,9-9.12,9a9.55,9.55,0,0,1-7.46-3.33l1.46-4.19a7.15,7.15,0,0,0,5.66,3.26,4.67,4.67,0,0,0,4.5-5,4.93,4.93,0,0,0-4.9-5,6.23,6.23,0,0,0-4,1.64h-.76l2.7-13.19H355.5V88.2Z" transform="translate(-44.34 -63.24)"/><path class="cls-3" d="M497.27,103.75l-2.07,5.3H490l9.79-25.77h3.8l9.52,25.77h-5.23l-1.93-5.3Zm4.23-13.12h-.07l-2.76,9.13h6Z" transform="translate(-44.34 -63.24)"/><path class="cls-3" d="M526.87,85.51,521.7,92.8l.07.06a5.4,5.4,0,0,1,2-.33c4.59,0,7.45,4,7.45,8.33a8.52,8.52,0,0,1-8.85,8.85c-5,0-8.79-3.49-8.79-8.52,0-3,1.43-6,3.06-8.39l6.66-9.89Zm-.6,15.55c0-2.27-1.5-4.7-4-4.7s-4,2.43-4,4.7,1.53,4.66,4,4.66S526.27,103.29,526.27,101.06Z" transform="translate(-44.34 -63.24)"/></svg>