<svg id="Laag_1" data-name="Laag 1" xmlns="http://www.w3.org/2000/svg" viewBox="0 0 447.68 336.38"><defs><style>.cls-1,.cls-4,.cls-5,.cls-6{fill:none;stroke:#1d1d1b;stroke-miterlimit:10;}.cls-1{stroke-width:0.3px;}.cls-2{fill:#e04403;}.cls-3{fill:#081f2d;}.cls-4{stroke-width:1.21px;}.cls-5{stroke-width:0.93px;}.cls-6{stroke-width:1.1px;stroke-dasharray:2.21;}</style></defs><title>logo_witruimte</title><path class="cls-1" d="M420.89,254.2" transform="translate(-197.06 -129.45)"/><path class="cls-1" d="M410.13,254.2" transform="translate(-197.06 -129.45)"/><path class="cls-2" d="M382,259.72" transform="translate(-197.06 -129.45)"/><path class="cls-2" d="M376.89,246.57" transform="translate(-197.06 -129.45)"/><path class="cls-2" d="M426.19,250.83" transform="translate(-197.06 -129.45)"/><path class="cls-2" d="M463.79,316.69" transform="translate(-197.06 -129.45)"/><path class="cls-2" d="M465.33,321.61l-3,0c-2.15,0-16.83-.77-22.83-16.14l-.06-.18L422.61,256l9.68.12L448,302.22a15.94,15.94,0,0,0,14.38,10.24Z" transform="translate(-197.06 -129.45)"/><path class="cls-2" d="M504.3,223.15a28.21,28.21,0,0,1-9.79,21.43,25.08,25.08,0,0,1-11,5.39,40.39,40.39,0,0,1-6.26.72H459.44a33.88,33.88,0,0,0,9.53-6.64c.14-.14.27-.27.39-.41l1.8-2a53.34,53.34,0,0,0,10.47-.57,16.1,16.1,0,0,0,7-3.44,19,19,0,0,0,6.54-14.46c0-10.05-7.47-18.23-16.66-18.23h-5.38l-1-1.6a32.67,32.67,0,0,0-6.46-7.52H478.5C492.73,195.8,504.3,208.07,504.3,223.15Z" transform="translate(-197.06 -129.45)"/><path class="cls-2" d="M502,321.61l-3.1-.05c-2.16,0-16.82-.84-22.77-16.23l-.07-.18-16.64-49.34,9.71.16,15.57,46.17a15.93,15.93,0,0,0,14.36,10.3Z" transform="translate(-197.06 -129.45)"/><path class="cls-2" d="M383.39,199.93l-3-9.15h60.53a30,30,0,0,1,15,4c.52.29,1,.61,1.53.94s1,.7,1.52,1.08a30.2,30.2,0,0,1,7.42,8.11c.32.5.61,1,.89,1.52s.53,1,.78,1.53a29.7,29.7,0,0,1,2.89,12.84,29.29,29.29,0,0,1-6.1,17.88c-.39.52-.8,1-1.24,1.52s-.91,1-1.4,1.53l-.26.27a30.23,30.23,0,0,1-19.46,8.82c-.48,0-1,0-1.42,0h-.25l-1.41,0-2.6,0h-16l-.58-1.64-2.58-7.45,12.52,0,5.38,0c1.81,0,3.64,0,5.44,0h.27a18.57,18.57,0,0,0,7.28-1.53,18.9,18.9,0,0,0,3-1.52,21.72,21.72,0,0,0,4-3.17A20.55,20.55,0,0,0,457.38,208a21.43,21.43,0,0,0-1.47-1.69,20.85,20.85,0,0,0-15-6.38H383.39" transform="translate(-197.06 -129.45)"/><path class="cls-2" d="M407.84,244.45l-13.11-39.39H385.1l14.06,42.28c.54,1.62,1.1,3.29,1.68,5,5.5,16,11.73,34.15,1.52,47.7a30.55,30.55,0,0,1-54.93-18.37,31,31,0,0,1,30.86-30.76H389.6l-3.1-9.16-8.21,0a40.2,40.2,0,0,0-40,39.9,39.69,39.69,0,0,0,71.37,23.88c13.15-17.43,5.78-38.91-.15-56.18C408.92,247.69,408.36,246.05,407.84,244.45Z" transform="translate(-197.06 -129.45)"/><path class="cls-3" d="M269.05,357.75c0,2.13-.06,3.95-1.33,5.8a6,6,0,0,1-5.13,2.58A6.59,6.59,0,0,1,258.1,364L261,360.7a2.21,2.21,0,0,0,1.73,1.49c2.19,0,1.91-3.71,1.91-5.19V342.64h4.46Z" transform="translate(-197.06 -129.45)"/><path class="cls-3" d="M286.72,358.09a7.84,7.84,0,1,1-7.83-8A7.53,7.53,0,0,1,286.72,358.09Zm-11.36,0c0,2,1.34,4.16,3.53,4.16s3.52-2.16,3.52-4.16-1.34-4.19-3.52-4.19S275.36,356,275.36,358.09Z" transform="translate(-197.06 -129.45)"/><path class="cls-3" d="M293,352H293a4.45,4.45,0,0,1,3.88-1.86c4,0,5.16,2.83,5.16,6.29v9.11h-4.25v-7.9c0-1.79.09-4.09-2.3-4.09s-2.55,2.82-2.55,4.61v7.38h-4.25V350.62H293Z" transform="translate(-197.06 -129.45)"/><path class="cls-3" d="M319.13,364.61c0,4.86-1.64,8.87-7.22,8.87-3.65,0-7.32-2.22-7.53-6.19h4.49a2.85,2.85,0,0,0,2.94,2.61c3,0,3.07-2.64,3.07-4.89v-1h-.06a5.19,5.19,0,0,1-4.07,2c-4.37,0-6.71-3.82-6.71-7.83s2.49-8.05,6.92-8.05a4.93,4.93,0,0,1,3.86,1.92h.06v-1.43h4.25Zm-3.73-6.52c0-2-1.34-4.19-3.53-4.19s-3.52,2.19-3.52,4.19,1.34,4.16,3.52,4.16S315.4,360.09,315.4,358.09Z" transform="translate(-197.06 -129.45)"/><path class="cls-3" d="M325.59,358.76c0,1.88.73,4,3,4a3.12,3.12,0,0,0,2.85-2l3.92.64a6.87,6.87,0,0,1-6.77,4.64c-4.62,0-7.44-3.28-7.44-7.8s2.4-8.08,7.22-8.08,7.08,3.62,7.08,8.11v.52Zm5.8-2.65c-.21-1.51-1.18-3-2.82-3s-2.64,1.46-2.86,3Z" transform="translate(-197.06 -129.45)"/><path class="cls-3" d="M361.74,365.53h-5.4l-5.56-9.23h-.06v9.23h-4.46V342.64h6c4.52,0,7.65,2,7.65,6.89,0,2.91-1.61,5.83-4.68,6.34Zm-11-12.36h.58c2.46,0,4.19-.73,4.19-3.52s-1.8-3.37-4.16-3.37h-.61Z" transform="translate(-197.06 -129.45)"/><path class="cls-3" d="M366.5,358.76c0,1.88.73,4,2.94,4a3.12,3.12,0,0,0,2.86-2l3.91.64a6.86,6.86,0,0,1-6.77,4.64c-4.61,0-7.43-3.28-7.43-7.8s2.4-8.08,7.22-8.08,7.08,3.62,7.08,8.11v.52Zm5.8-2.65c-.21-1.51-1.18-3-2.82-3s-2.65,1.46-2.86,3Z" transform="translate(-197.06 -129.45)"/><path class="cls-3" d="M382.52,352h.07a4.43,4.43,0,0,1,3.88-1.86c4,0,5.16,2.83,5.16,6.29v9.11h-4.25v-7.9c0-1.79.09-4.09-2.31-4.09s-2.55,2.82-2.55,4.61v7.38h-4.24V350.62h4.24Z" transform="translate(-197.06 -129.45)"/><path class="cls-3" d="M398.91,352H399a4.45,4.45,0,0,1,3.89-1.86c4,0,5.16,2.83,5.16,6.29v9.11h-4.25v-7.9c0-1.79.09-4.09-2.31-4.09s-2.55,2.82-2.55,4.61v7.38h-4.25V350.62h4.25Z" transform="translate(-197.06 -129.45)"/><path class="cls-3" d="M414.48,358.76c0,1.88.73,4,2.95,4a3.12,3.12,0,0,0,2.85-2l3.91.64a6.85,6.85,0,0,1-6.76,4.64c-4.62,0-7.44-3.28-7.44-7.8s2.4-8.08,7.22-8.08,7.08,3.62,7.08,8.11v.52Zm5.8-2.65c-.21-1.51-1.18-3-2.82-3s-2.65,1.46-2.86,3Z" transform="translate(-197.06 -129.45)"/><path class="cls-3" d="M430.51,352.17h.06a4.25,4.25,0,0,1,3.7-2,5,5,0,0,1,1.76.37l-.52,3.95a3,3,0,0,0-1.76-.55c-2.94,0-3.24,2.61-3.24,4.92v6.71h-4.25V350.62h4.25Z" transform="translate(-197.06 -129.45)"/><path class="cls-3" d="M445,354.14a3.37,3.37,0,0,0-2.24-1,1.38,1.38,0,0,0-1.4,1.28c0,1.09,1.55,1.39,3.07,2.06s3.06,1.7,3.06,4.28c0,3.31-2.67,5.28-5.8,5.28a6.85,6.85,0,0,1-5.25-2.49l1.95-2.52a4.47,4.47,0,0,0,3.15,1.73,1.6,1.6,0,0,0,1.7-1.61c0-1.3-1.49-1.61-3-2.24s-3-1.52-3-3.92a4.61,4.61,0,0,1,4.74-4.83,7.74,7.74,0,0,1,4.79,1.55Z" transform="translate(-197.06 -129.45)"/><path class="cls-3" d="M474.21,365.53H468.8l-5.55-9.23h-.06v9.23h-4.46V342.64h6c4.52,0,7.65,2,7.65,6.89,0,2.91-1.61,5.83-4.68,6.34Zm-11-12.36h.58c2.46,0,4.18-.73,4.18-3.52s-1.79-3.37-4.15-3.37h-.61Z" transform="translate(-197.06 -129.45)"/><path class="cls-3" d="M490.17,358.09a7.83,7.83,0,1,1-7.83-8A7.53,7.53,0,0,1,490.17,358.09Zm-11.35,0c0,2,1.33,4.16,3.52,4.16s3.52-2.16,3.52-4.16-1.33-4.19-3.52-4.19S478.82,356,478.82,358.09Z" transform="translate(-197.06 -129.45)"/><path class="cls-3" d="M495.6,358.76c0,1.88.73,4,2.95,4a3.12,3.12,0,0,0,2.85-2l3.91.64a6.85,6.85,0,0,1-6.76,4.64c-4.62,0-7.44-3.28-7.44-7.8s2.4-8.08,7.22-8.08,7.07,3.62,7.07,8.11v.52Zm5.8-2.65c-.21-1.51-1.19-3-2.82-3s-2.65,1.46-2.86,3Z" transform="translate(-197.06 -129.45)"/><path class="cls-3" d="M515,354.14a3.37,3.37,0,0,0-2.24-1,1.38,1.38,0,0,0-1.4,1.28c0,1.09,1.55,1.39,3.07,2.06s3.06,1.7,3.06,4.28c0,3.31-2.67,5.28-5.79,5.28a6.86,6.86,0,0,1-5.26-2.49l2-2.52a4.49,4.49,0,0,0,3.15,1.73,1.6,1.6,0,0,0,1.7-1.61c0-1.3-1.48-1.61-3-2.24s-3-1.52-3-3.92a4.61,4.61,0,0,1,4.74-4.83,7.79,7.79,0,0,1,4.8,1.55Z" transform="translate(-197.06 -129.45)"/><path class="cls-3" d="M523.25,358.76c0,1.88.73,4,2.94,4a3.12,3.12,0,0,0,2.86-2l3.91.64a6.86,6.86,0,0,1-6.77,4.64c-4.61,0-7.43-3.28-7.43-7.8s2.39-8.08,7.22-8.08,7.07,3.62,7.07,8.11v.52Zm5.8-2.65c-.22-1.51-1.19-3-2.83-3s-2.64,1.46-2.85,3Z" transform="translate(-197.06 -129.45)"/><path class="cls-3" d="M539.27,365.53H535V339.78h4.25Z" transform="translate(-197.06 -129.45)"/><path class="cls-3" d="M556.36,365.53h-4.19v-1.37h-.06a5.16,5.16,0,0,1-4,1.85c-4.37,0-6.86-4-6.86-8s2.52-7.87,6.8-7.87a5.5,5.5,0,0,1,4.16,1.89v-1.4h4.19Zm-3.76-7.47c0-2-1.37-4.16-3.56-4.16s-3.52,2.15-3.52,4.16,1.34,4.19,3.52,4.19S552.6,360.06,552.6,358.06Z" transform="translate(-197.06 -129.45)"/><path class="cls-3" d="M563.67,352.17h.06a4.27,4.27,0,0,1,3.71-2,5,5,0,0,1,1.76.37l-.52,3.95a3,3,0,0,0-1.76-.55c-2.95,0-3.25,2.61-3.25,4.92v6.71h-4.25V350.62h4.25Z" transform="translate(-197.06 -129.45)"/><path class="cls-3" d="M574,358.76c0,1.88.73,4,2.94,4a3.12,3.12,0,0,0,2.86-2l3.91.64a6.86,6.86,0,0,1-6.77,4.64c-4.61,0-7.43-3.28-7.43-7.8s2.39-8.08,7.22-8.08,7.07,3.62,7.07,8.11v.52Zm5.8-2.65c-.22-1.51-1.19-3-2.83-3s-2.64,1.46-2.85,3Z" transform="translate(-197.06 -129.45)"/><path class="cls-3" d="M310,395.83l1.84-5h2.78l-4.11,9.12h-1.31l-4.1-9.12H308Z" transform="translate(-197.06 -129.45)"/><path class="cls-3" d="M322.82,397.58v2.14h-8.48l4.57-6.79h-3.86v-2.14h8.06l-4.53,6.79Z" transform="translate(-197.06 -129.45)"/><path class="cls-3" d="M327.43,395.94l2.18-5.44h1.22L333,396l1.9-5.22h2.76l-4.15,9.12h-1.29l-1.91-5.45-2.13,5.45H326.9l-4.11-9.12h2.78Z" transform="translate(-197.06 -129.45)"/><path class="cls-3" d="M349.62,393.52a2.49,2.49,0,0,0-1.87-.88,2.45,2.45,0,0,0-2.26,2.66,2.38,2.38,0,0,0,2.35,2.57,2.42,2.42,0,0,0,1.78-.86v2.46a4.45,4.45,0,0,1-2.2.54,4.56,4.56,0,0,1-4.51-4.73,4.61,4.61,0,0,1,4.64-4.78,4,4,0,0,1,2.07.56Z" transform="translate(-197.06 -129.45)"/><path class="cls-3" d="M350,390.79h2.9l2.13,5.07,2.29-5.07h2.84l-6.5,13.7h-2.8l2.95-6.13Z" transform="translate(-197.06 -129.45)"/><path class="cls-3" d="M366.76,393.52a2.51,2.51,0,0,0-1.88-.88,2.44,2.44,0,0,0-2.25,2.66,2.38,2.38,0,0,0,2.34,2.57,2.44,2.44,0,0,0,1.79-.86v2.46a4.45,4.45,0,0,1-2.2.54,4.56,4.56,0,0,1-4.52-4.73,4.62,4.62,0,0,1,4.64-4.78,4,4,0,0,1,2.08.56Z" transform="translate(-197.06 -129.45)"/><path class="cls-3" d="M370.89,399.72h-2.55V384.29h2.55Z" transform="translate(-197.06 -129.45)"/><path class="cls-3" d="M375.61,387a1.51,1.51,0,1,1-1.51-1.51A1.51,1.51,0,0,1,375.61,387Zm-.24,12.68h-2.55v-8.93h2.55Z" transform="translate(-197.06 -129.45)"/><path class="cls-3" d="M379.85,391.61h0a2.65,2.65,0,0,1,2.33-1.11c2.4,0,3.09,1.69,3.09,3.76v5.46h-2.55V395c0-1.07.06-2.46-1.38-2.46s-1.53,1.7-1.53,2.77v4.42H377.3v-8.93h2.55Z" transform="translate(-197.06 -129.45)"/><path class="cls-3" d="M395.55,399.18c0,2.91-1,5.31-4.34,5.31-2.18,0-4.38-1.33-4.51-3.71h2.69a1.7,1.7,0,0,0,1.77,1.56c1.8,0,1.84-1.58,1.84-2.93v-.58h0a3.09,3.09,0,0,1-2.44,1.18c-2.62,0-4-2.29-4-4.69s1.49-4.82,4.15-4.82a3,3,0,0,1,2.31,1.14h0v-.85h2.55Zm-2.24-3.92a2.14,2.14,0,1,0-2.11,2.5A2.35,2.35,0,0,0,393.31,395.26Z" transform="translate(-197.06 -129.45)"/><path class="cls-3" d="M405.49,399.72h-2.55v-6.79h-.87v-2.14h.87v-3h2.55v3h1.56v2.14h-1.56Z" transform="translate(-197.06 -129.45)"/><path class="cls-3" d="M409.68,395.66c0,1.13.43,2.41,1.76,2.41a1.86,1.86,0,0,0,1.71-1.22l2.35.38a4.11,4.11,0,0,1-4.06,2.78,4.32,4.32,0,0,1-4.46-4.67c0-2.72,1.44-4.84,4.34-4.84s4.24,2.16,4.24,4.85v.31Zm3.47-1.58a1.86,1.86,0,0,0-1.69-1.8,1.84,1.84,0,0,0-1.71,1.8Z" transform="translate(-197.06 -129.45)"/><path class="cls-3" d="M425.19,399.72h-2.51v-.82h0a3.09,3.09,0,0,1-2.42,1.11c-2.62,0-4.11-2.38-4.11-4.8s1.51-4.71,4.07-4.71a3.34,3.34,0,0,1,2.5,1.12v-.83h2.51Zm-2.26-4.47a2.15,2.15,0,1,0-2.13,2.51A2.35,2.35,0,0,0,422.93,395.25Z" transform="translate(-197.06 -129.45)"/><path class="cls-3" d="M429.58,391.59h0a2.68,2.68,0,0,1,2.18-1.09,2.84,2.84,0,0,1,2.57,1.4,3.06,3.06,0,0,1,2.6-1.4c2.27,0,2.84,1.71,2.84,3.65v5.57h-2.55V395c0-.88.06-2.5-1.2-2.5s-1.37,1.88-1.37,2.81v4.38h-2.54v-4.53c0-.87.1-2.66-1.22-2.66s-1.35,1.86-1.35,2.81v4.38H427v-8.93h2.55Z" transform="translate(-197.06 -129.45)"/><path class="cls-3" d="M449.65,397.39h3.78v2.33H447V386h2.68Z" transform="translate(-197.06 -129.45)"/><path class="cls-3" d="M456.71,390.79v4.84c0,1,.16,2.24,1.46,2.24s1.45-1.22,1.45-2.24v-4.84h2.55v5.26c0,2.6-1.35,4-4,4s-4-1.36-4-4v-5.26Z" transform="translate(-197.06 -129.45)"/><path class="cls-3" d="M470,393.52a2.51,2.51,0,0,0-1.88-.88,2.45,2.45,0,0,0-2.25,2.66,2.38,2.38,0,0,0,2.34,2.57A2.44,2.44,0,0,0,470,397v2.46a4.45,4.45,0,0,1-2.2.54,4.56,4.56,0,0,1-4.52-4.73A4.62,4.62,0,0,1,468,390.5a4,4,0,0,1,2.08.56Z" transform="translate(-197.06 -129.45)"/><path class="cls-3" d="M481.29,395.35h0l2.73-9.53h1.58l2.84,9.53h0l2.69-9.35H494l-4.64,14h-2l-2.73-9h0l-2.58,9h-2l-4.37-14h2.8Z" transform="translate(-197.06 -129.45)"/><path class="cls-3" d="M502,399.72h-2.51v-.82h0a3.09,3.09,0,0,1-2.42,1.11c-2.62,0-4.11-2.38-4.11-4.8s1.51-4.71,4.07-4.71a3.34,3.34,0,0,1,2.5,1.12v-.83H502Zm-2.26-4.47a2.15,2.15,0,1,0-2.13,2.51A2.35,2.35,0,0,0,499.77,395.25Z" transform="translate(-197.06 -129.45)"/><path class="cls-3" d="M506.42,399.72h-2.55V384.29h2.55Z" transform="translate(-197.06 -129.45)"/><path class="cls-3" d="M510.77,399.72h-2.55V384.29h2.55Z" transform="translate(-197.06 -129.45)"/><path class="cls-3" d="M521,399.72h-2.51v-.82h0a3.08,3.08,0,0,1-2.42,1.11c-2.62,0-4.11-2.38-4.11-4.8s1.51-4.71,4.08-4.71a3.33,3.33,0,0,1,2.49,1.12v-.83H521Zm-2.26-4.47a2.15,2.15,0,1,0-2.13,2.51A2.35,2.35,0,0,0,518.76,395.25Z" transform="translate(-197.06 -129.45)"/><path class="cls-3" d="M521.62,390.79h2.9l2.13,5.07,2.29-5.07h2.84l-6.5,13.7h-2.8l2.95-6.13Z" transform="translate(-197.06 -129.45)"/><path class="cls-3" d="M536.92,392.9a2,2,0,0,0-1.35-.62.82.82,0,0,0-.84.76c0,.66.93.84,1.84,1.24a2.59,2.59,0,0,1,1.84,2.57,3.21,3.21,0,0,1-3.48,3.16,4.07,4.07,0,0,1-3.14-1.49L533,397a2.69,2.69,0,0,0,1.89,1,1,1,0,0,0,1-1c0-.78-.89-1-1.78-1.34a2.41,2.41,0,0,1-1.79-2.35,2.75,2.75,0,0,1,2.84-2.89,4.69,4.69,0,0,1,2.88.92Z" transform="translate(-197.06 -129.45)"/><rect class="cls-4" x="61.04" y="61.34" width="325.7" height="213.71"/><circle class="cls-5" cx="180.47" cy="152.6" r="30.24"/><circle class="cls-5" cx="223.89" cy="30.79" r="30.24"/><circle class="cls-5" cx="416.98" cy="168.19" r="30.24"/><circle class="cls-5" cx="30.79" cy="168.19" r="30.24"/><circle class="cls-5" cx="223.89" cy="305.59" r="30.24"/><rect class="cls-6" x="0.55" y="0.55" width="446.38" height="335.28"/></svg>