<svg id="Laag_1" data-name="Laag 1" xmlns="http://www.w3.org/2000/svg" viewBox="0 0 300 300"><defs><style>.cls-1{fill:#081f2d;}.cls-2{fill:#e04403;}</style></defs><title>nobase_neg</title><rect class="cls-1" width="300" height="300"/><path class="cls-2" d="M149.51,147.58"/><path class="cls-2" d="M136.51,147.58"/><path class="cls-2" d="M102.54,154.26"/><path class="cls-2" d="M96.38,138.38"/><path class="cls-2" d="M155.91,143.51"/><path class="cls-2" d="M201.32,223.06"/><path class="cls-2" d="M203.18,229l-3.65-.05c-2.61,0-20.33-.93-27.58-19.49l-.07-.22-20.29-59.47,11.69.14,19,55.67A19.26,19.26,0,0,0,199.67,218Z"/><path class="cls-2" d="M250.25,110.08A34,34,0,0,1,238.42,136a30.27,30.27,0,0,1-13.3,6.51,49.7,49.7,0,0,1-7.56.87H196.07a41,41,0,0,0,11.51-8c.17-.18.33-.34.48-.51l2.17-2.43c4.38,0,8.9.07,12.64-.7a19.33,19.33,0,0,0,8.44-4.15,23,23,0,0,0,7.9-17.47c0-12.13-9-22-20.12-22h-6.5l-1.2-1.93a39.59,39.59,0,0,0-7.81-9.08h15.51C236.27,77.06,250.25,91.88,250.25,110.08Z"/><path class="cls-2" d="M247.5,229l-3.75-.06c-2.61,0-20.32-1-27.5-19.6l-.08-.22-20.1-59.58,11.73.19,18.8,55.76a19.26,19.26,0,0,0,17.34,12.44Z"/><path class="cls-2" d="M104.22,82l-3.67-11h73.11a36.19,36.19,0,0,1,18.15,4.87c.63.36,1.24.74,1.84,1.14s1.24.85,1.84,1.3a36.41,36.41,0,0,1,9,9.8c.38.6.74,1.21,1.08,1.84s.64,1.21.93,1.84A35.85,35.85,0,0,1,210,107.3a35.34,35.34,0,0,1-7.37,21.59c-.47.63-1,1.24-1.5,1.84s-1.09,1.24-1.68,1.84l-.32.34a36.62,36.62,0,0,1-23.5,10.65c-.58,0-1.16.05-1.72.05h-.3c-.56,0-1.13,0-1.7,0l-3.15,0H149.36l-.7-2-3.11-9,15.12,0q3.21,0,6.5,0c2.18,0,4.39,0,6.57.06h.32a22.61,22.61,0,0,0,8.8-1.84,24.33,24.33,0,0,0,3.59-1.84,26.76,26.76,0,0,0,4.86-3.83,24.81,24.81,0,0,0,2.27-33.26,24.4,24.4,0,0,0-1.77-2,25.17,25.17,0,0,0-18.15-7.7H104.22"/><path class="cls-2" d="M133.75,135.81,117.92,88.25H106.28l17,51.05c.66,2,1.34,4,2,6,6.64,19.33,14.17,41.25,1.83,57.61a36.89,36.89,0,0,1-66.34-22.19c0-20.34,16.95-37.14,37.28-37.14h13.65L108,132.54l-9.91,0c-26.41,0-48.32,21.76-48.32,48.19a47.93,47.93,0,0,0,86.19,28.84c15.88-21.05,7-47-.18-67.85C135.06,139.73,134.38,137.74,133.75,135.81Z"/></svg>